<svg width="40" height="40" viewBox="0 0 40 40" fill="none" xmlns="http://www.w3.org/2000/svg">
<rect width="40" height="40" rx="20" fill="#EFEFEF"/>
<path d="M18.0026 26.1667H13.8359V25.8333H18.0026H18.5026V25.3333C18.5026 25.2891 18.5202 25.2467 18.5514 25.2155C18.5827 25.1842 18.6251 25.1667 18.6693 25.1667H19.3359H19.8359V24.6667V22.5H20.1693V24.6667V25.1667H20.6693H21.3359C21.3801 25.1667 21.4225 25.1842 21.4538 25.2155C21.485 25.2467 21.5026 25.2891 21.5026 25.3333V25.8333H22.0026H26.1693V26.1667H22.0026H21.5026V26.6667C21.5026 26.7109 21.485 26.7533 21.4538 26.7845C21.4225 26.8158 21.3801 26.8333 21.3359 26.8333H18.6693C18.6251 26.8333 18.5827 26.8158 18.5514 26.7845C18.5202 26.7533 18.5026 26.7109 18.5026 26.6667V26.1667H18.0026ZM13.8359 19.3333C13.8359 17.8112 14.3879 16.4177 15.3035 15.3414L15.5365 15.5743C14.6806 16.5877 14.1693 17.9043 14.1693 19.3333C14.1693 20.7685 14.6807 22.0803 15.5364 23.0925L15.3035 23.3253C14.3879 22.2489 13.8359 20.8555 13.8359 19.3333ZM24.7017 23.3253L24.4688 23.0925C25.3245 22.0803 25.8359 20.7685 25.8359 19.3333C25.8359 17.9043 25.3246 16.5877 24.4687 15.5743L24.7017 15.3414C25.6173 16.4177 26.1693 17.8112 26.1693 19.3333C26.1693 20.8555 25.6173 22.2489 24.7017 23.3253ZM16.5026 19.3333C16.5026 18.5502 16.7611 17.825 17.201 17.2388L17.4369 17.4748C17.06 17.995 16.8359 18.6373 16.8359 19.3333C16.8359 20.0294 17.06 20.6716 17.4369 21.1919L17.201 21.4278C16.7611 20.8416 16.5026 20.1165 16.5026 19.3333ZM23.1693 19.3333C23.1693 18.6373 22.9452 17.995 22.5683 17.4748L22.8042 17.2388C23.2441 17.825 23.5026 18.5502 23.5026 19.3333C23.5026 20.1165 23.2441 20.8416 22.8042 21.4278L22.5683 21.1919C22.9452 20.6716 23.1693 20.0294 23.1693 19.3333ZM19.4133 18.7441C19.5696 18.5878 19.7816 18.5 20.0026 18.5C20.2236 18.5 20.4356 18.5878 20.5919 18.7441C20.7481 18.9004 20.8359 19.1123 20.8359 19.3333C20.8359 19.5543 20.7481 19.7663 20.5919 19.9226C20.4356 20.0789 20.2236 20.1667 20.0026 20.1667C19.7816 20.1667 19.5696 20.0789 19.4133 19.9226C19.2571 19.7663 19.1693 19.5543 19.1693 19.3333C19.1693 19.1123 19.2571 18.9004 19.4133 18.7441Z" stroke="#FFCC00"/>
</svg>
