<svg width="44" height="44" viewBox="0 0 44 44" fill="none" xmlns="http://www.w3.org/2000/svg">
<g clip-path="url(#clip0_10138_38900)">
<path d="M44 22C44 34.1503 34.1503 44 22 44C15.5949 44 9.82906 41.263 5.8089 36.8944C4.7529 35.7477 3.81812 34.4879 3.02253 33.1365C1.1018 29.8697 0 26.0633 0 22C0 9.84971 9.84971 0 22 0C26.0642 0 29.8706 1.1018 33.1365 3.02343C34.4879 3.81812 35.7469 4.7529 36.8935 5.80979C41.2621 9.82816 44 15.5949 44 22Z" fill="#F0CD00"/>
<path d="M44 22.0004C44 33.8768 34.5903 43.555 22.8189 43.9851C11.0476 43.555 1.63788 33.8768 1.63788 22.0004C1.63788 10.124 11.0476 0.445747 22.8189 0.015625C34.5903 0.445747 44 10.124 44 22.0004Z" fill="#FFDE50"/>
<path d="M36.8935 5.8098L5.80889 36.8945C4.75289 35.7478 3.81811 34.4879 3.02252 33.1365L33.1365 3.02344C34.4879 3.81813 35.7468 4.75291 36.8935 5.8098Z" fill="#FFEA94"/>
<path d="M42.4825 13.9567L13.9561 42.483C11.9366 41.6892 10.0625 40.6054 8.38605 39.2827L39.283 8.38574C40.6057 10.0622 41.6896 11.9363 42.4825 13.9567Z" fill="#FFEA94"/>
<path d="M39.0954 21.9996C39.0954 31.4408 31.4412 39.095 22 39.095C18.7117 39.095 15.6407 38.1665 13.0339 36.5574C11.898 35.8569 10.8509 35.0263 9.91168 34.0871C9.22115 33.3974 8.58899 32.6476 8.02417 31.8476C7.24654 30.7458 6.59552 29.5479 6.09356 28.2755C5.35005 26.3943 4.9316 24.3487 4.90646 22.2098C4.90466 22.1397 4.90466 22.0697 4.90466 21.9996C4.90466 12.5585 12.558 4.9043 22 4.9043C22.07 4.9043 22.141 4.9043 22.211 4.90609C24.35 4.93124 26.3946 5.35058 28.2758 6.09319C29.5483 6.59605 30.7461 7.24617 31.8479 8.02381C32.648 8.58952 33.3969 9.22079 34.0874 9.91132C35.0267 10.8497 35.8573 11.8976 36.5577 13.0335C38.1669 15.6403 39.0954 18.7113 39.0954 21.9996Z" fill="#FAA300"/>
<path d="M34.0874 9.91132L9.91168 34.0871C9.22115 33.3974 8.58899 32.6476 8.02417 31.8476C7.24654 30.7458 6.59552 29.5479 6.09356 28.2755C5.35005 26.3943 4.9316 24.3487 4.90646 22.2098C4.90466 22.1397 4.90466 22.0697 4.90466 21.9996C4.90466 12.5585 12.558 4.9043 22 4.9043C22.0701 4.9043 22.141 4.9043 22.211 4.90609C24.35 4.93124 26.3946 5.35058 28.2758 6.09319C29.5483 6.59605 30.7461 7.24617 31.8479 8.02381C32.648 8.58952 33.3969 9.22079 34.0874 9.91132Z" fill="#FFBD00"/>
<path d="M39.0949 21.9996C39.0949 31.4408 31.4407 39.095 21.9995 39.095C21.6754 39.095 21.3539 39.086 21.0342 39.068C30.0264 38.5679 37.1634 31.1166 37.1634 21.9996C37.1634 12.8827 30.0264 5.4314 21.0342 4.93124C21.3539 4.91328 21.6754 4.9043 21.9995 4.9043C31.4407 4.9043 39.0949 12.5585 39.0949 21.9996Z" fill="#F68E00"/>
<path d="M29.7691 26.3167C29.7691 24.0367 28.5907 22.0279 26.8119 20.8637C27.5428 19.8565 27.9755 18.6194 27.9755 17.2825C27.9755 14.9738 26.6885 12.9604 24.7945 11.9208V9.70705C24.7945 8.71517 23.9905 7.91113 22.9986 7.91113C22.0067 7.91113 21.2027 8.71517 21.2027 9.70705V11.1704H19.0352V9.70705C19.0352 8.71517 18.2312 7.91113 17.2393 7.91113C16.2474 7.91113 15.4434 8.71517 15.4434 9.70705V11.1704H13.3329C12.341 11.1704 11.537 11.9744 11.537 12.9663C11.537 13.9582 12.341 14.7622 13.3329 14.7622H13.9527V21.5988V29.2387H13.3329C12.341 29.2387 11.537 30.0428 11.537 31.0347C11.537 32.0265 12.341 32.8306 13.3329 32.8306H15.4435V34.2939C15.4435 35.2858 16.2475 36.0898 17.2394 36.0898C18.2313 36.0898 19.0353 35.2858 19.0353 34.2939V32.8306H21.2028V34.2939C21.2028 35.2858 22.0068 36.0898 22.9987 36.0898C23.9906 36.0898 24.7946 35.2858 24.7946 34.2939V32.6452C27.6456 31.9516 29.7691 29.3782 29.7691 26.3167ZM17.5445 14.7622H21.8633C23.2531 14.7622 24.3836 15.8928 24.3836 17.2825C24.3836 18.6722 23.253 19.8028 21.8633 19.8028H17.5445V14.7622ZM23.2553 29.2387H17.5445V23.3947H21.8633H23.2553C24.8664 23.3947 26.1772 24.7056 26.1772 26.3168C26.1772 27.928 24.8664 29.2387 23.2553 29.2387Z" fill="#F68E00"/>
<path d="M32.014 26.3167C32.014 24.0367 30.8356 22.0279 29.0569 20.8637C29.7878 19.8565 30.2204 18.6194 30.2204 17.2825C30.2204 14.9738 28.9335 12.9604 27.0395 11.9208V9.70705C27.0395 8.71517 26.2355 7.91113 25.2436 7.91113C24.2517 7.91113 23.4477 8.71517 23.4477 9.70705V11.1704H21.2802V9.70705C21.2802 8.71517 20.4761 7.91113 19.4843 7.91113C18.4924 7.91113 17.6883 8.71517 17.6883 9.70705V11.1704H15.5778C14.5859 11.1704 13.7819 11.9744 13.7819 12.9663C13.7819 13.9582 14.5859 14.7622 15.5778 14.7622H16.1976V21.5988V29.2387H15.5778C14.5859 29.2387 13.7819 30.0428 13.7819 31.0347C13.7819 32.0265 14.5859 32.8306 15.5778 32.8306H17.6883V34.2939C17.6883 35.2858 18.4924 36.0898 19.4843 36.0898C20.4761 36.0898 21.2802 35.2858 21.2802 34.2939V32.8306H23.4477V34.2939C23.4477 35.2858 24.2517 36.0898 25.2436 36.0898C26.2355 36.0898 27.0395 35.2858 27.0395 34.2939V32.6452C29.8906 31.9516 32.014 29.3782 32.014 26.3167ZM19.7895 14.7622H24.1083C25.4981 14.7622 26.6286 15.8928 26.6286 17.2825C26.6286 18.6722 25.498 19.8028 24.1083 19.8028H19.7895V14.7622ZM25.5002 29.2387H19.7895V23.3947H24.1083H25.5002C27.1113 23.3947 28.4222 24.7056 28.4222 26.3168C28.4222 27.928 27.1114 29.2387 25.5002 29.2387Z" fill="#FFEA94"/>
</g>
<defs>
<clipPath id="clip0_10138_38900">
<rect width="44" height="44" fill="white"/>
</clipPath>
</defs>
</svg>
