<svg width="121" height="121" viewBox="0 0 121 121" fill="none" xmlns="http://www.w3.org/2000/svg">
<path d="M53.6395 17.2655C60.4384 13.4951 69.0869 15.9723 72.8863 22.7105L109.23 85.7861C110.03 87.6688 110.38 89.1997 110.48 90.7901C110.68 94.506 109.38 98.1178 106.831 100.897C104.281 103.667 100.832 105.302 97.0822 105.5H23.8945C22.3448 105.406 20.795 105.054 19.3453 104.509C12.0965 101.586 8.5971 93.3615 11.5466 86.232L48.1404 22.6659C49.3902 20.4314 51.2899 18.5041 53.6395 17.2655ZM60.4883 76.863C58.0888 76.863 56.0891 78.8448 56.0891 81.228C56.0891 83.6012 58.0888 85.5879 60.4883 85.5879C62.8879 85.5879 64.8376 83.6012 64.8376 81.1734C64.8376 78.8002 62.8879 76.863 60.4883 76.863ZM60.4883 45.952C58.0888 45.952 56.0891 47.8793 56.0891 50.2624V64.2786C56.0891 66.6568 58.0888 68.6435 60.4883 68.6435C62.8879 68.6435 64.8376 66.6568 64.8376 64.2786V50.2624C64.8376 47.8793 62.8879 45.952 60.4883 45.952Z" fill="#EDB525"/>
</svg>
