<svg width="44" height="44" viewBox="0 0 44 44" fill="none" xmlns="http://www.w3.org/2000/svg">
<path d="M22 39.875C31.8721 39.875 39.875 31.8721 39.875 22C39.875 12.1279 31.8721 4.125 22 4.125C12.1279 4.125 4.125 12.1279 4.125 22C4.125 31.8721 12.1279 39.875 22 39.875Z" fill="#FDC019"/>
<path d="M22 4.125C26.7407 4.125 31.2873 6.00825 34.6395 9.36047C37.9917 12.7127 39.875 17.2593 39.875 22C39.875 26.7407 37.9917 31.2873 34.6395 34.6395C31.2873 37.9917 26.7407 39.875 22 39.875V4.125Z" fill="#FD9F0F"/>
<path d="M30.25 23.375H28.875V22H30.25C30.6147 22 30.9644 21.8551 31.2223 21.5973C31.4801 21.3394 31.625 20.9897 31.625 20.625C31.625 20.2603 31.4801 19.9106 31.2223 19.6527C30.9644 19.3949 30.6147 19.25 30.25 19.25H28.875V15.125C28.875 14.7603 28.7301 14.4106 28.4723 14.1527C28.2144 13.8949 27.8647 13.75 27.5 13.75C27.1353 13.75 26.7856 13.8949 26.5277 14.1527C26.2699 14.4106 26.125 14.7603 26.125 15.125V19.25H21.2002L17.6114 14.316C17.4406 14.0814 17.1999 13.9069 16.9238 13.8175C16.6478 13.728 16.3505 13.7282 16.0745 13.818C15.7986 13.9078 15.5581 14.0826 15.3876 14.3173C15.217 14.5521 15.1251 14.8348 15.125 15.125V19.25H13.75C13.3853 19.25 13.0356 19.3949 12.7777 19.6527C12.5199 19.9106 12.375 20.2603 12.375 20.625C12.375 20.9897 12.5199 21.3394 12.7777 21.5973C13.0356 21.8551 13.3853 22 13.75 22H15.125V23.375H13.75C13.3853 23.375 13.0356 23.5199 12.7777 23.7777C12.5199 24.0356 12.375 24.3853 12.375 24.75C12.375 25.1147 12.5199 25.4644 12.7777 25.7223C13.0356 25.9801 13.3853 26.125 13.75 26.125H15.125V30.25C15.125 30.6147 15.2699 30.9644 15.5277 31.2223C15.7856 31.4801 16.1353 31.625 16.5 31.625C16.8647 31.625 17.2144 31.4801 17.4723 31.2223C17.7301 30.9644 17.875 30.6147 17.875 30.25V26.125H22.7998L26.3886 31.059C26.5161 31.2344 26.6832 31.377 26.8764 31.4754C27.0695 31.5737 27.2832 31.625 27.5 31.625C27.6806 31.6251 27.8594 31.5896 28.0263 31.5206C28.1932 31.4515 28.3448 31.3502 28.4725 31.2225C28.6002 31.0948 28.7015 30.9432 28.7706 30.7763C28.8396 30.6094 28.8751 30.4306 28.875 30.25V26.125H30.25C30.6147 26.125 30.9644 25.9801 31.2223 25.7223C31.4801 25.4644 31.625 25.1147 31.625 24.75C31.625 24.3853 31.4801 24.0356 31.2223 23.7777C30.9644 23.5199 30.6147 23.375 30.25 23.375ZM26.125 22V23.375H24.2L23.2 22H26.125ZM17.875 23.375V22H19.8L20.8 23.375H17.875Z" fill="#FEF6E3"/>
</svg>
