<svg width="44" height="44" viewBox="0 0 44 44" fill="none" xmlns="http://www.w3.org/2000/svg">
<g clip-path="url(#clip0_10138_38891)">
<path d="M22 44C9.8688 44 0 34.1307 0 22C0 9.86932 9.8688 0 22 0C34.1312 0 44 9.86932 44 22C44 34.1307 34.1312 44 22 44Z" fill="#FFE14D"/>
<path d="M44 22C44 9.86932 34.1312 0 22 0V44C34.1312 44 44 34.1307 44 22Z" fill="#FFCC33"/>
<path d="M22 2.86914C11.4512 2.86914 2.86957 11.4513 2.86957 21.9996C2.86957 32.5479 11.4512 41.1301 22 41.1301C32.5489 41.1301 41.1305 32.5479 41.1305 21.9996C41.1305 11.4513 32.5489 2.86914 22 2.86914ZM22 38.2604C13.0336 38.2604 5.73919 30.966 5.73919 21.9996C5.73919 13.0332 13.0336 5.73877 22 5.73877C30.9665 5.73877 38.2609 13.0331 38.2609 21.9996C38.2609 30.9661 30.9665 38.2604 22 38.2604Z" fill="#FF9F19"/>
<path d="M38.2608 21.9996C38.2608 30.9661 30.9664 38.2604 22 38.2604V41.13C32.5488 41.13 41.1305 32.5479 41.1305 21.9995C41.1305 11.4511 32.5488 2.86914 22 2.86914V5.73868C30.9665 5.73877 38.2608 13.0331 38.2608 21.9996Z" fill="#F28618"/>
<path d="M27.2609 25.8261C27.2609 28.2269 25.6347 30.2548 23.4347 30.8861V31.5653C23.4347 32.3592 22.794 33.0001 21.9999 33.0001C21.2059 33.0001 20.5651 32.3592 20.5651 31.5653V30.8861C18.3651 30.2548 16.739 28.2269 16.739 25.8261C16.739 25.0322 17.3798 24.3913 18.1738 24.3913C18.9678 24.3913 19.6086 25.0321 19.6086 25.8261C19.6086 27.1461 20.6799 28.2174 21.9999 28.2174C23.3199 28.2174 24.3912 27.1461 24.3912 25.8261C24.3912 25.7592 24.3817 25.7209 24.3721 25.6922C24.2573 24.9461 23.186 24.2766 21.9999 23.6261C21.7799 23.5112 21.5504 23.3869 21.3304 23.2721C19.2834 22.1914 16.7391 20.8427 16.7391 18.174C16.7391 15.7731 18.3652 13.7453 20.5652 13.114V12.4348C20.5652 11.6409 21.206 11 22 11C22.7941 11 23.4348 11.6408 23.4348 12.4348V13.114C25.6348 13.7453 27.2609 15.7731 27.2609 18.174C27.2609 18.9679 26.6202 19.6088 25.8261 19.6088C25.0321 19.6088 24.3913 18.968 24.3913 18.174C24.3913 16.854 23.32 15.7827 22 15.7827C20.68 15.7827 19.6087 16.854 19.6087 18.174C19.6087 18.9679 20.7373 19.6853 22 20.374C22.22 20.4888 22.4496 20.6131 22.6696 20.7279C24.7167 21.8087 27.2609 23.1574 27.2609 25.8261Z" fill="#FF9F19"/>
<path d="M27.2609 25.8261C27.2609 28.2269 25.6348 30.2548 23.4348 30.8861V31.5652C23.4348 32.3591 22.794 33 21.9999 33V28.2175C23.3199 28.2175 24.3912 27.1462 24.3912 25.8262C24.3912 25.7592 24.3817 25.721 24.3721 25.6923C24.2573 24.9462 23.186 24.2766 21.9999 23.6262V20.374C22.2199 20.4888 22.4495 20.6132 22.6695 20.7279C24.7167 21.8087 27.2609 23.1574 27.2609 25.8261Z" fill="#F28618"/>
<path d="M24.3913 18.1739C24.3913 18.9665 25.034 19.6087 25.8261 19.6087C26.6182 19.6087 27.2609 18.9665 27.2609 18.1739C27.2609 15.771 25.6394 13.7437 23.4348 13.1171V12.4348C23.4348 11.6422 22.7921 11 22 11V15.7826C23.319 15.7826 24.3913 16.8554 24.3913 18.1739Z" fill="#F28618"/>
</g>
<defs>
<clipPath id="clip0_10138_38891">
<rect width="44" height="44" fill="white"/>
</clipPath>
</defs>
</svg>
