<svg width="44" height="44" viewBox="0 0 44 44" fill="none" xmlns="http://www.w3.org/2000/svg">
<path d="M44.0005 11.61C44.0009 16.5303 40.0123 20.5192 35.092 20.5192C30.1721 20.5192 26.1832 16.5306 26.1836 11.6104C26.1836 6.69045 30.1721 2.7019 35.0924 2.70228C37.4587 2.68946 39.7323 3.62384 41.4054 5.29698C43.0789 6.9705 44.0133 9.24369 44.0005 11.61Z" fill="#FFCC00"/>
<path d="M36.5449 8.40402C36.2811 8.66786 36.2811 9.09566 36.5449 9.3595L38.1215 10.9361L30.4313 10.9361C30.0581 10.9361 29.7559 11.2384 29.7559 11.6116C29.7559 11.9847 30.0581 12.287 30.4313 12.287L38.1215 12.287L36.5453 13.8625C36.2814 14.1264 36.2814 14.5542 36.5453 14.818C36.8091 15.0815 37.2369 15.0815 37.5008 14.818L40.2304 12.0891C40.357 11.9625 40.4283 11.7906 40.4283 11.6112C40.4283 11.4322 40.357 11.2603 40.2304 11.1337L37.5008 8.40402C37.3741 8.27699 37.2022 8.20576 37.0228 8.20576C36.8434 8.20576 36.6715 8.27737 36.5449 8.40402Z" fill="#0E141C"/>
<path d="M16.6536 27.3513C16.6532 27.9988 16.424 28.6256 16.006 29.1201C15.585 29.6195 15.0042 29.9576 14.3619 30.0764L10.2852 30.8415L11.0627 26.8311C11.2761 25.8168 12.0258 24.9989 13.0178 24.6989C14.0102 24.3985 15.0875 24.6635 15.8274 25.3898C16.3558 25.9058 16.6536 26.6129 16.6536 27.3513Z" fill="#0E141C"/>
<path d="M9.3916 26.8315L10.1692 30.8419L6.09244 30.0767C4.7721 29.8385 3.80907 28.6935 3.80078 27.3516C3.80078 26.6132 4.09855 25.9061 4.62699 25.3901C5.35067 24.6838 6.39398 24.4128 7.37019 24.677C8.39842 24.9533 9.18128 25.7878 9.3916 26.8315Z" fill="#0E141C"/>
<path d="M10.2285 30.8774H42.4565V37.3423C42.4565 39.4738 40.7283 41.202 38.5969 41.202H10.2285V30.8774Z" fill="#353E4A"/>
<path d="M42.4565 16.6229V30.8776H10.2285V9.21533H26.5114C25.3395 13.4172 27.3828 17.8498 31.3393 19.688C35.2958 21.5258 40.0009 20.2285 42.4565 16.6229ZM16.0074 29.1204C16.935 28.0224 16.8574 26.3941 15.8288 25.39C15.0889 24.6637 14.0116 24.3987 13.0192 24.6991C12.0272 24.9991 11.2775 25.8171 11.0641 26.8313L10.2866 30.8417L14.3633 30.0766C15.0056 29.9579 15.5864 29.6198 16.0074 29.1204Z" fill="#212A36"/>
<path d="M10.228 30.8774V41.202H3.85964C1.72817 41.202 0 39.4738 0 37.3423V30.8774H10.228Z" fill="#353E4A"/>
<path d="M10.228 9.21533V30.8776H0V13.075C0 10.9431 1.72817 9.21533 3.85964 9.21533H10.228ZM10.17 30.8417L9.39241 26.8313C9.18209 25.7877 8.39923 24.9532 7.371 24.6769C6.39479 24.4127 5.35148 24.6837 4.6278 25.39C4.09936 25.906 3.80159 26.6131 3.80159 27.3515C3.80988 28.6933 4.77291 29.8384 6.09325 30.0766L10.17 30.8417Z" fill="#0E141C"/>
<path d="M16.5241 29.5553C17.6794 28.1874 17.5825 26.16 16.3025 24.9083C15.3851 24.0078 14.0489 23.6799 12.819 24.0542C11.5891 24.4281 10.6615 25.4442 10.4011 26.7031L10.2288 27.5927L10.0562 26.7028C9.79727 25.4069 8.82633 24.3696 7.55046 24.0255C6.34207 23.6972 5.05037 24.0331 4.15519 24.9083C3.49634 25.5502 3.12545 26.4318 3.12696 27.3514C3.13638 29.0178 4.33046 30.4414 5.96967 30.7403L8.86704 31.2842L5.40919 34.7417C5.14535 35.0055 5.14535 35.4333 5.40919 35.6972C5.67304 35.961 6.10046 35.961 6.3643 35.6972L10.2288 31.8326L15.203 36.8068C15.4669 37.0706 15.8943 37.0706 16.1581 36.8068C16.422 36.543 16.422 36.1152 16.1581 35.8517L11.5906 31.2842L14.4876 30.7407C15.2829 30.5922 16.0025 30.1734 16.5241 29.5553ZM4.47783 27.3514C4.47745 26.794 4.70247 26.2603 5.10201 25.8717C5.65532 25.3327 6.45213 25.1265 7.19767 25.3293C7.976 25.5388 8.56927 26.1698 8.73022 26.9598L9.31859 29.9944L6.21844 29.4124C5.21847 29.2334 4.48725 28.3676 4.47783 27.3514ZM11.1391 29.9944L11.7275 26.9602C11.8937 26.1898 12.4655 25.5705 13.2201 25.3444C13.975 25.1178 14.7929 25.3199 15.3557 25.8717C16.1325 26.6285 16.1917 27.8576 15.4906 28.6857C15.1699 29.0649 14.7277 29.322 14.2392 29.4124L11.1391 29.9944Z" fill="#FFCC00"/>
</svg>
