<svg width="513" height="154" viewBox="0 0 513 154" fill="none" xmlns="http://www.w3.org/2000/svg">
<g clip-path="url(#clip0_10344_53701)">
<rect width="513" height="154" rx="16" fill="#FBA23A"/>
<path d="M24.37 127.556C25.078 127.688 25.66 128.042 26.116 128.618C26.572 129.194 26.8 129.854 26.8 130.598C26.8 131.27 26.632 131.864 26.296 132.38C25.972 132.884 25.498 133.28 24.874 133.568C24.25 133.856 23.512 134 22.66 134H17.242V121.436H22.426C23.278 121.436 24.01 121.574 24.622 121.85C25.246 122.126 25.714 122.51 26.026 123.002C26.35 123.494 26.512 124.052 26.512 124.676C26.512 125.408 26.314 126.02 25.918 126.512C25.534 127.004 25.018 127.352 24.37 127.556ZM19.762 126.62H22.066C22.666 126.62 23.128 126.488 23.452 126.224C23.776 125.948 23.938 125.558 23.938 125.054C23.938 124.55 23.776 124.16 23.452 123.884C23.128 123.608 22.666 123.47 22.066 123.47H19.762V126.62ZM22.3 131.948C22.912 131.948 23.386 131.804 23.722 131.516C24.07 131.228 24.244 130.82 24.244 130.292C24.244 129.752 24.064 129.332 23.704 129.032C23.344 128.72 22.858 128.564 22.246 128.564H19.762V131.948H22.3ZM38.3724 124.028V134H35.8344V132.74C35.5104 133.172 35.0844 133.514 34.5564 133.766C34.0404 134.006 33.4764 134.126 32.8644 134.126C32.0844 134.126 31.3944 133.964 30.7944 133.64C30.1944 133.304 29.7204 132.818 29.3724 132.182C29.0364 131.534 28.8684 130.766 28.8684 129.878V124.028H31.3884V129.518C31.3884 130.31 31.5864 130.922 31.9824 131.354C32.3784 131.774 32.9184 131.984 33.6024 131.984C34.2984 131.984 34.8444 131.774 35.2404 131.354C35.6364 130.922 35.8344 130.31 35.8344 129.518V124.028H38.3724ZM50.5488 124.028L44.3748 138.716H41.6928L43.8528 133.748L39.8568 124.028H42.6828L45.2568 130.994L47.8668 124.028H50.5488ZM64.2003 131.606H59.1963L58.3683 134H55.7223L60.2403 121.418H63.1743L67.6923 134H65.0283L64.2003 131.606ZM63.5163 129.59L61.6983 124.334L59.8803 129.59H63.5163ZM70.8091 122.84C70.3651 122.84 69.9931 122.702 69.6931 122.426C69.4051 122.138 69.2611 121.784 69.2611 121.364C69.2611 120.944 69.4051 120.596 69.6931 120.32C69.9931 120.032 70.3651 119.888 70.8091 119.888C71.2531 119.888 71.6191 120.032 71.9071 120.32C72.2071 120.596 72.3571 120.944 72.3571 121.364C72.3571 121.784 72.2071 122.138 71.9071 122.426C71.6191 122.702 71.2531 122.84 70.8091 122.84ZM72.0511 124.028V134H69.5311V124.028H72.0511ZM77.2108 125.576C77.5348 125.048 77.9548 124.634 78.4708 124.334C78.9988 124.034 79.5988 123.884 80.2708 123.884V126.53H79.6048C78.8128 126.53 78.2128 126.716 77.8048 127.088C77.4088 127.46 77.2108 128.108 77.2108 129.032V134H74.6908V124.028H77.2108V125.576ZM85.0522 126.098V130.922C85.0522 131.258 85.1302 131.504 85.2862 131.66C85.4542 131.804 85.7302 131.876 86.1142 131.876H87.2842V134H85.7002C83.5762 134 82.5142 132.968 82.5142 130.904V126.098H81.3262V124.028H82.5142V121.562H85.0522V124.028H87.2842V126.098H85.0522ZM90.5247 122.84C90.0807 122.84 89.7087 122.702 89.4087 122.426C89.1207 122.138 88.9767 121.784 88.9767 121.364C88.9767 120.944 89.1207 120.596 89.4087 120.32C89.7087 120.032 90.0807 119.888 90.5247 119.888C90.9687 119.888 91.3347 120.032 91.6227 120.32C91.9227 120.596 92.0727 120.944 92.0727 121.364C92.0727 121.784 91.9227 122.138 91.6227 122.426C91.3347 122.702 90.9687 122.84 90.5247 122.84ZM91.7667 124.028V134H89.2467V124.028H91.7667ZM106.79 123.884C108.014 123.884 108.998 124.262 109.742 125.018C110.498 125.762 110.876 126.806 110.876 128.15V134H108.356V128.492C108.356 127.712 108.158 127.118 107.762 126.71C107.366 126.29 106.826 126.08 106.142 126.08C105.458 126.08 104.912 126.29 104.504 126.71C104.108 127.118 103.91 127.712 103.91 128.492V134H101.39V128.492C101.39 127.712 101.192 127.118 100.796 126.71C100.4 126.29 99.8605 126.08 99.1765 126.08C98.4805 126.08 97.9285 126.29 97.5205 126.71C97.1245 127.118 96.9265 127.712 96.9265 128.492V134H94.4065V124.028H96.9265V125.234C97.2505 124.814 97.6645 124.484 98.1685 124.244C98.6845 124.004 99.2485 123.884 99.8605 123.884C100.64 123.884 101.336 124.052 101.948 124.388C102.56 124.712 103.034 125.18 103.37 125.792C103.694 125.216 104.162 124.754 104.774 124.406C105.398 124.058 106.07 123.884 106.79 123.884ZM122.688 128.798C122.688 129.158 122.664 129.482 122.616 129.77H115.326C115.386 130.49 115.638 131.054 116.082 131.462C116.526 131.87 117.072 132.074 117.72 132.074C118.656 132.074 119.322 131.672 119.718 130.868H122.436C122.148 131.828 121.596 132.62 120.78 133.244C119.964 133.856 118.962 134.162 117.774 134.162C116.814 134.162 115.95 133.952 115.182 133.532C114.426 133.1 113.832 132.494 113.4 131.714C112.98 130.934 112.77 130.034 112.77 129.014C112.77 127.982 112.98 127.076 113.4 126.296C113.82 125.516 114.408 124.916 115.164 124.496C115.92 124.076 116.79 123.866 117.774 123.866C118.722 123.866 119.568 124.07 120.312 124.478C121.068 124.886 121.65 125.468 122.058 126.224C122.478 126.968 122.688 127.826 122.688 128.798ZM120.078 128.078C120.066 127.43 119.832 126.914 119.376 126.53C118.92 126.134 118.362 125.936 117.702 125.936C117.078 125.936 116.55 126.128 116.118 126.512C115.698 126.884 115.44 127.406 115.344 128.078H120.078Z" fill="white"/>
<rect x="16" y="24" width="56" height="56" rx="28" fill="#FFBC6D"/>
<path d="M44.9832 57.8256L45.3068 57.9903L45.5636 57.7336L47.7636 55.5336C47.9053 55.3918 48.0978 55.3508 48.2772 55.4061C49.4463 55.7919 50.6979 56 52 56C52.1326 56 52.2598 56.0527 52.3536 56.1464C52.4473 56.2402 52.5 56.3674 52.5 56.5V60C52.5 60.1326 52.4473 60.2598 52.3536 60.3536C52.2598 60.4473 52.1326 60.5 52 60.5C47.6239 60.5 43.4271 58.7616 40.3327 55.6673C37.2384 52.5729 35.5 48.3761 35.5 44C35.5 43.8674 35.5527 43.7402 35.6464 43.6464C35.7402 43.5527 35.8674 43.5 36 43.5H39.5C39.6326 43.5 39.7598 43.5527 39.8536 43.6464C39.9473 43.7402 40 43.8674 40 44C40 45.3021 40.2081 46.5537 40.5939 47.7228C40.6492 47.9022 40.6082 48.0947 40.4664 48.2364L38.2664 50.4364L38.0097 50.6932L38.1744 51.0168C39.6623 53.941 42.059 56.3377 44.9832 57.8256ZM44.5 48.5359V47.5278C45.5095 47.6407 46.4568 48.0928 47.182 48.818C47.9072 49.5432 48.3593 50.4905 48.4722 51.5H47.4641C47.3568 50.7566 47.0122 50.0625 46.4749 49.5251C45.9375 48.9878 45.2434 48.6432 44.5 48.5359ZM44.5 43.5144C48.7976 43.7618 52.2379 47.1797 52.4857 51.5H51.4836C51.237 47.7528 48.2386 44.7629 44.5 44.5164V43.5144Z" fill="white" stroke="white"/>
<circle cx="512.848" cy="66.8483" r="61.771" transform="rotate(-137.224 512.848 66.8483)" stroke="url(#paint0_linear_10344_53701)" stroke-width="24"/>
</g>
<defs>
<linearGradient id="paint0_linear_10344_53701" x1="625.108" y1="-152.326" x2="512.848" y2="140.619" gradientUnits="userSpaceOnUse">
<stop stop-color="white" stop-opacity="0.32"/>
<stop offset="1" stop-color="white" stop-opacity="0"/>
</linearGradient>
<clipPath id="clip0_10344_53701">
<rect width="513" height="154" rx="16" fill="white"/>
</clipPath>
</defs>
</svg>
