<svg width="513" height="154" viewBox="0 0 513 154" fill="none" xmlns="http://www.w3.org/2000/svg">
<g clip-path="url(#clip0_10344_53728)">
<rect width="513" height="154" rx="16" fill="#009BBA"/>
<path d="M21.58 134.126C20.704 134.126 19.912 133.976 19.204 133.676C18.508 133.376 17.956 132.944 17.548 132.38C17.14 131.816 16.93 131.15 16.918 130.382H19.618C19.654 130.898 19.834 131.306 20.158 131.606C20.494 131.906 20.95 132.056 21.526 132.056C22.114 132.056 22.576 131.918 22.912 131.642C23.248 131.354 23.416 130.982 23.416 130.526C23.416 130.154 23.302 129.848 23.074 129.608C22.846 129.368 22.558 129.182 22.21 129.05C21.874 128.906 21.406 128.75 20.806 128.582C19.99 128.342 19.324 128.108 18.808 127.88C18.304 127.64 17.866 127.286 17.494 126.818C17.134 126.338 16.954 125.702 16.954 124.91C16.954 124.166 17.14 123.518 17.512 122.966C17.884 122.414 18.406 121.994 19.078 121.706C19.75 121.406 20.518 121.256 21.382 121.256C22.678 121.256 23.728 121.574 24.532 122.21C25.348 122.834 25.798 123.71 25.882 124.838H23.11C23.086 124.406 22.9 124.052 22.552 123.776C22.216 123.488 21.766 123.344 21.202 123.344C20.71 123.344 20.314 123.47 20.014 123.722C19.726 123.974 19.582 124.34 19.582 124.82C19.582 125.156 19.69 125.438 19.906 125.666C20.134 125.882 20.41 126.062 20.734 126.206C21.07 126.338 21.538 126.494 22.138 126.674C22.954 126.914 23.62 127.154 24.136 127.394C24.652 127.634 25.096 127.994 25.468 128.474C25.84 128.954 26.026 129.584 26.026 130.364C26.026 131.036 25.852 131.66 25.504 132.236C25.156 132.812 24.646 133.274 23.974 133.622C23.302 133.958 22.504 134.126 21.58 134.126ZM30.8807 125.468C31.2047 125.012 31.6487 124.634 32.2128 124.334C32.7888 124.022 33.4428 123.866 34.1747 123.866C35.0268 123.866 35.7948 124.076 36.4788 124.496C37.1747 124.916 37.7207 125.516 38.1167 126.296C38.5248 127.064 38.7288 127.958 38.7288 128.978C38.7288 129.998 38.5248 130.904 38.1167 131.696C37.7207 132.476 37.1747 133.082 36.4788 133.514C35.7948 133.946 35.0268 134.162 34.1747 134.162C33.4428 134.162 32.7948 134.012 32.2307 133.712C31.6787 133.412 31.2287 133.034 30.8807 132.578V138.752H28.3607V124.028H30.8807V125.468ZM36.1548 128.978C36.1548 128.378 36.0288 127.862 35.7768 127.43C35.5368 126.986 35.2128 126.65 34.8047 126.422C34.4087 126.194 33.9768 126.08 33.5087 126.08C33.0527 126.08 32.6207 126.2 32.2128 126.44C31.8167 126.668 31.4927 127.004 31.2407 127.448C31.0007 127.892 30.8807 128.414 30.8807 129.014C30.8807 129.614 31.0007 130.136 31.2407 130.58C31.4927 131.024 31.8167 131.366 32.2128 131.606C32.6207 131.834 33.0527 131.948 33.5087 131.948C33.9768 131.948 34.4087 131.828 34.8047 131.588C35.2128 131.348 35.5368 131.006 35.7768 130.562C36.0288 130.118 36.1548 129.59 36.1548 128.978ZM45.138 134.162C44.178 134.162 43.314 133.952 42.546 133.532C41.778 133.1 41.172 132.494 40.728 131.714C40.296 130.934 40.08 130.034 40.08 129.014C40.08 127.994 40.302 127.094 40.746 126.314C41.202 125.534 41.82 124.934 42.6 124.514C43.38 124.082 44.25 123.866 45.21 123.866C46.17 123.866 47.04 124.082 47.82 124.514C48.6 124.934 49.212 125.534 49.656 126.314C50.112 127.094 50.34 127.994 50.34 129.014C50.34 130.034 50.106 130.934 49.638 131.714C49.182 132.494 48.558 133.1 47.766 133.532C46.986 133.952 46.11 134.162 45.138 134.162ZM45.138 131.966C45.594 131.966 46.02 131.858 46.416 131.642C46.824 131.414 47.148 131.078 47.388 130.634C47.628 130.19 47.748 129.65 47.748 129.014C47.748 128.066 47.496 127.34 46.992 126.836C46.5 126.32 45.894 126.062 45.174 126.062C44.454 126.062 43.848 126.32 43.356 126.836C42.876 127.34 42.636 128.066 42.636 129.014C42.636 129.962 42.87 130.694 43.338 131.21C43.818 131.714 44.418 131.966 45.138 131.966ZM54.8585 125.576C55.1825 125.048 55.6025 124.634 56.1185 124.334C56.6465 124.034 57.2465 123.884 57.9185 123.884V126.53H57.2525C56.4605 126.53 55.8605 126.716 55.4525 127.088C55.0565 127.46 54.8585 128.108 54.8585 129.032V134H52.3385V124.028H54.8585V125.576ZM62.6998 126.098V130.922C62.6998 131.258 62.7778 131.504 62.9338 131.66C63.1018 131.804 63.3778 131.876 63.7618 131.876H64.9318V134H63.3478C61.2238 134 60.1618 132.968 60.1618 130.904V126.098H58.9738V124.028H60.1618V121.562H62.6998V124.028H64.9318V126.098H62.6998ZM70.7103 134.162C69.8943 134.162 69.1623 134.018 68.5143 133.73C67.8663 133.43 67.3503 133.028 66.9663 132.524C66.5943 132.02 66.3903 131.462 66.3543 130.85H68.8923C68.9403 131.234 69.1263 131.552 69.4503 131.804C69.7863 132.056 70.2003 132.182 70.6923 132.182C71.1723 132.182 71.5443 132.086 71.8083 131.894C72.0843 131.702 72.2223 131.456 72.2223 131.156C72.2223 130.832 72.0543 130.592 71.7183 130.436C71.3943 130.268 70.8723 130.088 70.1523 129.896C69.4083 129.716 68.7963 129.53 68.3163 129.338C67.8483 129.146 67.4403 128.852 67.0923 128.456C66.7563 128.06 66.5883 127.526 66.5883 126.854C66.5883 126.302 66.7443 125.798 67.0563 125.342C67.3803 124.886 67.8363 124.526 68.4243 124.262C69.0243 123.998 69.7263 123.866 70.5303 123.866C71.7183 123.866 72.6663 124.166 73.3743 124.766C74.0823 125.354 74.4723 126.152 74.5443 127.16H72.1323C72.0963 126.764 71.9283 126.452 71.6283 126.224C71.3403 125.984 70.9503 125.864 70.4583 125.864C70.0023 125.864 69.6483 125.948 69.3963 126.116C69.1563 126.284 69.0363 126.518 69.0363 126.818C69.0363 127.154 69.2043 127.412 69.5403 127.592C69.8763 127.76 70.3983 127.934 71.1063 128.114C71.8263 128.294 72.4203 128.48 72.8883 128.672C73.3563 128.864 73.7583 129.164 74.0943 129.572C74.4423 129.968 74.6223 130.496 74.6343 131.156C74.6343 131.732 74.4723 132.248 74.1483 132.704C73.8363 133.16 73.3803 133.52 72.7803 133.784C72.1923 134.036 71.5023 134.162 70.7103 134.162ZM88.42 127.556C89.128 127.688 89.71 128.042 90.166 128.618C90.622 129.194 90.85 129.854 90.85 130.598C90.85 131.27 90.682 131.864 90.346 132.38C90.022 132.884 89.548 133.28 88.924 133.568C88.3 133.856 87.562 134 86.71 134H81.292V121.436H86.476C87.328 121.436 88.06 121.574 88.672 121.85C89.296 122.126 89.764 122.51 90.076 123.002C90.4 123.494 90.562 124.052 90.562 124.676C90.562 125.408 90.364 126.02 89.968 126.512C89.584 127.004 89.068 127.352 88.42 127.556ZM83.812 126.62H86.116C86.716 126.62 87.178 126.488 87.502 126.224C87.826 125.948 87.988 125.558 87.988 125.054C87.988 124.55 87.826 124.16 87.502 123.884C87.178 123.608 86.716 123.47 86.116 123.47H83.812V126.62ZM86.35 131.948C86.962 131.948 87.436 131.804 87.772 131.516C88.12 131.228 88.294 130.82 88.294 130.292C88.294 129.752 88.114 129.332 87.754 129.032C87.394 128.72 86.908 128.564 86.296 128.564H83.812V131.948H86.35ZM102.278 128.798C102.278 129.158 102.254 129.482 102.206 129.77H94.9164C94.9764 130.49 95.2284 131.054 95.6724 131.462C96.1164 131.87 96.6624 132.074 97.3104 132.074C98.2464 132.074 98.9124 131.672 99.3084 130.868H102.026C101.738 131.828 101.186 132.62 100.37 133.244C99.5544 133.856 98.5524 134.162 97.3644 134.162C96.4044 134.162 95.5404 133.952 94.7724 133.532C94.0164 133.1 93.4224 132.494 92.9904 131.714C92.5704 130.934 92.3604 130.034 92.3604 129.014C92.3604 127.982 92.5704 127.076 92.9904 126.296C93.4104 125.516 93.9984 124.916 94.7544 124.496C95.5104 124.076 96.3804 123.866 97.3644 123.866C98.3124 123.866 99.1584 124.07 99.9024 124.478C100.658 124.886 101.24 125.468 101.648 126.224C102.068 126.968 102.278 127.826 102.278 128.798ZM99.6684 128.078C99.6564 127.43 99.4224 126.914 98.9664 126.53C98.5104 126.134 97.9524 125.936 97.2924 125.936C96.6684 125.936 96.1404 126.128 95.7084 126.512C95.2884 126.884 95.0304 127.406 94.9344 128.078H99.6684ZM107.202 126.098V130.922C107.202 131.258 107.28 131.504 107.436 131.66C107.604 131.804 107.88 131.876 108.264 131.876H109.434V134H107.85C105.726 134 104.664 132.968 104.664 130.904V126.098H103.476V124.028H104.664V121.562H107.202V124.028H109.434V126.098H107.202ZM114.33 126.098V130.922C114.33 131.258 114.408 131.504 114.564 131.66C114.732 131.804 115.008 131.876 115.392 131.876H116.562V134H114.978C112.854 134 111.792 132.968 111.792 130.904V126.098H110.604V124.028H111.792V121.562H114.33V124.028H116.562V126.098H114.33ZM119.803 122.84C119.359 122.84 118.987 122.702 118.687 122.426C118.399 122.138 118.255 121.784 118.255 121.364C118.255 120.944 118.399 120.596 118.687 120.32C118.987 120.032 119.359 119.888 119.803 119.888C120.247 119.888 120.613 120.032 120.901 120.32C121.201 120.596 121.351 120.944 121.351 121.364C121.351 121.784 121.201 122.138 120.901 122.426C120.613 122.702 120.247 122.84 119.803 122.84ZM121.045 124.028V134H118.525V124.028H121.045ZM129.211 123.884C130.399 123.884 131.359 124.262 132.091 125.018C132.823 125.762 133.189 126.806 133.189 128.15V134H130.669V128.492C130.669 127.7 130.471 127.094 130.075 126.674C129.679 126.242 129.139 126.026 128.455 126.026C127.759 126.026 127.207 126.242 126.799 126.674C126.403 127.094 126.205 127.7 126.205 128.492V134H123.685V124.028H126.205V125.27C126.541 124.838 126.967 124.502 127.483 124.262C128.011 124.01 128.587 123.884 129.211 123.884ZM139.641 123.866C140.385 123.866 141.039 124.016 141.603 124.316C142.167 124.604 142.611 124.982 142.935 125.45V124.028H145.473V134.072C145.473 134.996 145.287 135.818 144.915 136.538C144.543 137.27 143.985 137.846 143.241 138.266C142.497 138.698 141.597 138.914 140.541 138.914C139.125 138.914 137.961 138.584 137.049 137.924C136.149 137.264 135.639 136.364 135.519 135.224H138.021C138.153 135.68 138.435 136.04 138.867 136.304C139.311 136.58 139.845 136.718 140.469 136.718C141.201 136.718 141.795 136.496 142.251 136.052C142.707 135.62 142.935 134.96 142.935 134.072V132.524C142.611 132.992 142.161 133.382 141.585 133.694C141.021 134.006 140.373 134.162 139.641 134.162C138.801 134.162 138.033 133.946 137.337 133.514C136.641 133.082 136.089 132.476 135.681 131.696C135.285 130.904 135.087 129.998 135.087 128.978C135.087 127.97 135.285 127.076 135.681 126.296C136.089 125.516 136.635 124.916 137.319 124.496C138.015 124.076 138.789 123.866 139.641 123.866ZM142.935 129.014C142.935 128.402 142.815 127.88 142.575 127.448C142.335 127.004 142.011 126.668 141.603 126.44C141.195 126.2 140.757 126.08 140.289 126.08C139.821 126.08 139.389 126.194 138.993 126.422C138.597 126.65 138.273 126.986 138.021 127.43C137.781 127.862 137.661 128.378 137.661 128.978C137.661 129.578 137.781 130.106 138.021 130.562C138.273 131.006 138.597 131.348 138.993 131.588C139.401 131.828 139.833 131.948 140.289 131.948C140.757 131.948 141.195 131.834 141.603 131.606C142.011 131.366 142.335 131.03 142.575 130.598C142.815 130.154 142.935 129.626 142.935 129.014Z" fill="white"/>
<rect x="16" y="24" width="56" height="56" rx="28" fill="#2BBAD7"/>
<path d="M38.5 51V49.5H39.5V51V51.5H40H41.5V52.5H40H39.5V53V54.5H38.5V53V52.5H38H36.5V51.5H38H38.5V51ZM44.3577 56.5506L44 56.1845L43.6423 56.5506C42.4633 57.7575 40.8209 58.5 39 58.5C37.2761 58.5 35.6228 57.8152 34.4038 56.5962C33.1848 55.3772 32.5 53.7239 32.5 52C32.5 50.2761 33.1848 48.6228 34.4038 47.4038C35.6228 46.1848 37.2761 45.5 39 45.5H49C50.7239 45.5 52.3772 46.1848 53.5962 47.4038C54.8152 48.6228 55.5 50.2761 55.5 52C55.5 53.7239 54.8152 55.3772 53.5962 56.5962C52.3772 57.8152 50.7239 58.5 49 58.5C47.1791 58.5 45.5367 57.7575 44.3577 56.5506ZM50.5 49.5C50.7652 49.5 51.0196 49.6054 51.2071 49.7929C51.3946 49.9804 51.5 50.2348 51.5 50.5C51.5 50.7652 51.3946 51.0196 51.2071 51.2071C51.0196 51.3946 50.7652 51.5 50.5 51.5C50.2348 51.5 49.9804 51.3946 49.7929 51.2071C49.6054 51.0196 49.5 50.7652 49.5 50.5C49.5 50.2348 49.6054 49.9804 49.7929 49.7929C49.9804 49.6054 50.2348 49.5 50.5 49.5ZM47.5 52.5C47.7652 52.5 48.0196 52.6054 48.2071 52.7929C48.3946 52.9804 48.5 53.2348 48.5 53.5C48.5 53.7652 48.3946 54.0196 48.2071 54.2071C48.0196 54.3946 47.7652 54.5 47.5 54.5C47.2348 54.5 46.9804 54.3946 46.7929 54.2071C46.6054 54.0196 46.5 53.7652 46.5 53.5C46.5 53.2348 46.6054 52.9804 46.7929 52.7929C46.9804 52.6054 47.2348 52.5 47.5 52.5ZM39 46.5C37.5413 46.5 36.1424 47.0795 35.1109 48.1109C34.0795 49.1424 33.5 50.5413 33.5 52C33.5 53.4587 34.0795 54.8576 35.1109 55.8891C36.1424 56.9205 37.5413 57.5 39 57.5C40.7127 57.5 42.2367 56.7164 43.2423 55.5H44.7577C45.7633 56.7164 47.2873 57.5 49 57.5C50.4587 57.5 51.8576 56.9205 52.8891 55.8891C53.9205 54.8576 54.5 53.4587 54.5 52C54.5 50.5413 53.9205 49.1424 52.8891 48.1109C51.8576 47.0795 50.4587 46.5 49 46.5H39Z" fill="black" stroke="white"/>
<circle cx="512.848" cy="66.8486" r="61.771" transform="rotate(17.3021 512.848 66.8486)" stroke="url(#paint0_linear_10344_53728)" stroke-width="24"/>
</g>
<defs>
<linearGradient id="paint0_linear_10344_53728" x1="625.108" y1="-152.326" x2="512.848" y2="140.62" gradientUnits="userSpaceOnUse">
<stop stop-color="white" stop-opacity="0.32"/>
<stop offset="1" stop-color="white" stop-opacity="0"/>
</linearGradient>
<clipPath id="clip0_10344_53728">
<rect width="513" height="154" rx="16" fill="white"/>
</clipPath>
</defs>
</svg>
