<svg width="513" height="154" viewBox="0 0 513 154" fill="none" xmlns="http://www.w3.org/2000/svg">
<g clip-path="url(#clip0_10344_53712)">
<rect width="513" height="154" rx="16" fill="#2B3440"/>
<path d="M16.63 127.7C16.63 126.464 16.906 125.36 17.458 124.388C18.022 123.404 18.784 122.642 19.744 122.102C20.716 121.55 21.802 121.274 23.002 121.274C24.406 121.274 25.636 121.634 26.692 122.354C27.748 123.074 28.486 124.07 28.906 125.342H26.008C25.72 124.742 25.312 124.292 24.784 123.992C24.268 123.692 23.668 123.542 22.984 123.542C22.252 123.542 21.598 123.716 21.022 124.064C20.458 124.4 20.014 124.88 19.69 125.504C19.378 126.128 19.222 126.86 19.222 127.7C19.222 128.528 19.378 129.26 19.69 129.896C20.014 130.52 20.458 131.006 21.022 131.354C21.598 131.69 22.252 131.858 22.984 131.858C23.668 131.858 24.268 131.708 24.784 131.408C25.312 131.096 25.72 130.64 26.008 130.04H28.906C28.486 131.324 27.748 132.326 26.692 133.046C25.648 133.754 24.418 134.108 23.002 134.108C21.802 134.108 20.716 133.838 19.744 133.298C18.784 132.746 18.022 131.984 17.458 131.012C16.906 130.04 16.63 128.936 16.63 127.7ZM30.5604 128.978C30.5604 127.97 30.7584 127.076 31.1544 126.296C31.5624 125.516 32.1084 124.916 32.7924 124.496C33.4884 124.076 34.2624 123.866 35.1144 123.866C35.8584 123.866 36.5064 124.016 37.0584 124.316C37.6224 124.616 38.0724 124.994 38.4084 125.45V124.028H40.9464V134H38.4084V132.542C38.0844 133.01 37.6344 133.4 37.0584 133.712C36.4944 134.012 35.8404 134.162 35.0964 134.162C34.2564 134.162 33.4884 133.946 32.7924 133.514C32.1084 133.082 31.5624 132.476 31.1544 131.696C30.7584 130.904 30.5604 129.998 30.5604 128.978ZM38.4084 129.014C38.4084 128.402 38.2884 127.88 38.0484 127.448C37.8084 127.004 37.4844 126.668 37.0764 126.44C36.6684 126.2 36.2304 126.08 35.7624 126.08C35.2944 126.08 34.8624 126.194 34.4664 126.422C34.0704 126.65 33.7464 126.986 33.4944 127.43C33.2544 127.862 33.1344 128.378 33.1344 128.978C33.1344 129.578 33.2544 130.106 33.4944 130.562C33.7464 131.006 34.0704 131.348 34.4664 131.588C34.8744 131.828 35.3064 131.948 35.7624 131.948C36.2304 131.948 36.6684 131.834 37.0764 131.606C37.4844 131.366 37.8084 131.03 38.0484 130.598C38.2884 130.154 38.4084 129.626 38.4084 129.014ZM46.0776 125.486C46.4016 125.006 46.8456 124.616 47.4096 124.316C47.9856 124.016 48.6396 123.866 49.3716 123.866C50.2236 123.866 50.9916 124.076 51.6756 124.496C52.3716 124.916 52.9176 125.516 53.3136 126.296C53.7216 127.064 53.9256 127.958 53.9256 128.978C53.9256 129.998 53.7216 130.904 53.3136 131.696C52.9176 132.476 52.3716 133.082 51.6756 133.514C50.9916 133.946 50.2236 134.162 49.3716 134.162C48.6276 134.162 47.9736 134.018 47.4096 133.73C46.8576 133.43 46.4136 133.046 46.0776 132.578V134H43.5576V120.68H46.0776V125.486ZM51.3516 128.978C51.3516 128.378 51.2256 127.862 50.9736 127.43C50.7336 126.986 50.4096 126.65 50.0016 126.422C49.6056 126.194 49.1736 126.08 48.7056 126.08C48.2496 126.08 47.8176 126.2 47.4096 126.44C47.0136 126.668 46.6896 127.004 46.4376 127.448C46.1976 127.892 46.0776 128.414 46.0776 129.014C46.0776 129.614 46.1976 130.136 46.4376 130.58C46.6896 131.024 47.0136 131.366 47.4096 131.606C47.8176 131.834 48.2496 131.948 48.7056 131.948C49.1736 131.948 49.6056 131.828 50.0016 131.588C50.4096 131.348 50.7336 131.006 50.9736 130.562C51.2256 130.118 51.3516 129.59 51.3516 128.978ZM58.4268 120.68V134H55.9068V120.68H58.4268ZM70.3366 128.798C70.3366 129.158 70.3126 129.482 70.2646 129.77H62.9746C63.0346 130.49 63.2866 131.054 63.7306 131.462C64.1746 131.87 64.7206 132.074 65.3686 132.074C66.3046 132.074 66.9706 131.672 67.3666 130.868H70.0846C69.7966 131.828 69.2446 132.62 68.4286 133.244C67.6126 133.856 66.6106 134.162 65.4226 134.162C64.4626 134.162 63.5986 133.952 62.8306 133.532C62.0746 133.1 61.4806 132.494 61.0486 131.714C60.6286 130.934 60.4186 130.034 60.4186 129.014C60.4186 127.982 60.6286 127.076 61.0486 126.296C61.4686 125.516 62.0566 124.916 62.8126 124.496C63.5686 124.076 64.4386 123.866 65.4226 123.866C66.3706 123.866 67.2166 124.07 67.9606 124.478C68.7166 124.886 69.2986 125.468 69.7066 126.224C70.1266 126.968 70.3366 127.826 70.3366 128.798ZM67.7266 128.078C67.7146 127.43 67.4806 126.914 67.0246 126.53C66.5686 126.134 66.0106 125.936 65.3506 125.936C64.7266 125.936 64.1986 126.128 63.7666 126.512C63.3466 126.884 63.0886 127.406 62.9926 128.078H67.7266ZM85.315 121.436V123.47H81.967V134H79.447V123.47H76.099V121.436H85.315ZM98.5897 121.436L93.9817 134H90.9217L86.3137 121.436H89.0137L92.4697 131.426L95.9077 121.436H98.5897Z" fill="white"/>
<rect x="16" y="24" width="56" height="56" rx="28" fill="#485362"/>
<path d="M53 57.5H53.5V57V45V44.5H53H35H34.5V45V57V57.5H35H53ZM40.5 59V58.5H40H35C34.6022 58.5 34.2206 58.342 33.9393 58.0607C33.658 57.7794 33.5 57.3978 33.5 57V45C33.5 44.6022 33.658 44.2206 33.9393 43.9393C34.2206 43.658 34.6022 43.5 35 43.5H53C53.3978 43.5 53.7794 43.658 54.0607 43.9393C54.342 44.2206 54.5 44.6022 54.5 45V57C54.5 57.3978 54.342 57.7794 54.0607 58.0607C53.7794 58.342 53.3978 58.5 53 58.5H48H47.5V59V60.5H40.5V59Z" fill="#80858C" stroke="white"/>
<circle cx="512.848" cy="66.8487" r="61.771" transform="rotate(11.3028 512.848 66.8487)" stroke="url(#paint0_linear_10344_53712)" stroke-width="24"/>
</g>
<defs>
<linearGradient id="paint0_linear_10344_53712" x1="625.109" y1="-152.326" x2="512.848" y2="140.62" gradientUnits="userSpaceOnUse">
<stop stop-color="white" stop-opacity="0.32"/>
<stop offset="1" stop-color="white" stop-opacity="0"/>
</linearGradient>
<clipPath id="clip0_10344_53712">
<rect width="513" height="154" rx="16" fill="white"/>
</clipPath>
</defs>
</svg>
