<svg width="513" height="154" viewBox="0 0 513 154" fill="none" xmlns="http://www.w3.org/2000/svg">
<g clip-path="url(#clip0_10344_53706)">
<rect width="513" height="154" rx="16" fill="#FC7C33"/>
<path d="M24.37 127.556C25.078 127.688 25.66 128.042 26.116 128.618C26.572 129.194 26.8 129.854 26.8 130.598C26.8 131.27 26.632 131.864 26.296 132.38C25.972 132.884 25.498 133.28 24.874 133.568C24.25 133.856 23.512 134 22.66 134H17.242V121.436H22.426C23.278 121.436 24.01 121.574 24.622 121.85C25.246 122.126 25.714 122.51 26.026 123.002C26.35 123.494 26.512 124.052 26.512 124.676C26.512 125.408 26.314 126.02 25.918 126.512C25.534 127.004 25.018 127.352 24.37 127.556ZM19.762 126.62H22.066C22.666 126.62 23.128 126.488 23.452 126.224C23.776 125.948 23.938 125.558 23.938 125.054C23.938 124.55 23.776 124.16 23.452 123.884C23.128 123.608 22.666 123.47 22.066 123.47H19.762V126.62ZM22.3 131.948C22.912 131.948 23.386 131.804 23.722 131.516C24.07 131.228 24.244 130.82 24.244 130.292C24.244 129.752 24.064 129.332 23.704 129.032C23.344 128.72 22.858 128.564 22.246 128.564H19.762V131.948H22.3ZM38.3724 124.028V134H35.8344V132.74C35.5104 133.172 35.0844 133.514 34.5564 133.766C34.0404 134.006 33.4764 134.126 32.8644 134.126C32.0844 134.126 31.3944 133.964 30.7944 133.64C30.1944 133.304 29.7204 132.818 29.3724 132.182C29.0364 131.534 28.8684 130.766 28.8684 129.878V124.028H31.3884V129.518C31.3884 130.31 31.5864 130.922 31.9824 131.354C32.3784 131.774 32.9184 131.984 33.6024 131.984C34.2984 131.984 34.8444 131.774 35.2404 131.354C35.6364 130.922 35.8344 130.31 35.8344 129.518V124.028H38.3724ZM50.5488 124.028L44.3748 138.716H41.6928L43.8528 133.748L39.8568 124.028H42.6828L45.2568 130.994L47.8668 124.028H50.5488ZM60.8883 121.436C62.2083 121.436 63.3663 121.694 64.3623 122.21C65.3703 122.726 66.1443 123.464 66.6843 124.424C67.2363 125.372 67.5123 126.476 67.5123 127.736C67.5123 128.996 67.2363 130.1 66.6843 131.048C66.1443 131.984 65.3703 132.71 64.3623 133.226C63.3663 133.742 62.2083 134 60.8883 134H56.4963V121.436H60.8883ZM60.7983 131.858C62.1183 131.858 63.1383 131.498 63.8583 130.778C64.5783 130.058 64.9383 129.044 64.9383 127.736C64.9383 126.428 64.5783 125.408 63.8583 124.676C63.1383 123.932 62.1183 123.56 60.7983 123.56H59.0163V131.858H60.7983ZM68.9006 128.978C68.9006 127.97 69.0986 127.076 69.4946 126.296C69.9026 125.516 70.4486 124.916 71.1326 124.496C71.8286 124.076 72.6026 123.866 73.4546 123.866C74.1986 123.866 74.8466 124.016 75.3986 124.316C75.9626 124.616 76.4126 124.994 76.7486 125.45V124.028H79.2866V134H76.7486V132.542C76.4246 133.01 75.9746 133.4 75.3986 133.712C74.8346 134.012 74.1806 134.162 73.4366 134.162C72.5966 134.162 71.8286 133.946 71.1326 133.514C70.4486 133.082 69.9026 132.476 69.4946 131.696C69.0986 130.904 68.9006 129.998 68.9006 128.978ZM76.7486 129.014C76.7486 128.402 76.6286 127.88 76.3886 127.448C76.1486 127.004 75.8246 126.668 75.4166 126.44C75.0086 126.2 74.5706 126.08 74.1026 126.08C73.6346 126.08 73.2026 126.194 72.8066 126.422C72.4106 126.65 72.0866 126.986 71.8346 127.43C71.5946 127.862 71.4746 128.378 71.4746 128.978C71.4746 129.578 71.5946 130.106 71.8346 130.562C72.0866 131.006 72.4106 131.348 72.8066 131.588C73.2146 131.828 73.6466 131.948 74.1026 131.948C74.5706 131.948 75.0086 131.834 75.4166 131.606C75.8246 131.366 76.1486 131.03 76.3886 130.598C76.6286 130.154 76.7486 129.626 76.7486 129.014ZM84.8319 126.098V130.922C84.8319 131.258 84.9099 131.504 85.0659 131.66C85.2339 131.804 85.5099 131.876 85.8939 131.876H87.0639V134H85.4799C83.3559 134 82.2939 132.968 82.2939 130.904V126.098H81.1059V124.028H82.2939V121.562H84.8319V124.028H87.0639V126.098H84.8319ZM88.3784 128.978C88.3784 127.97 88.5764 127.076 88.9724 126.296C89.3804 125.516 89.9264 124.916 90.6104 124.496C91.3064 124.076 92.0804 123.866 92.9324 123.866C93.6764 123.866 94.3244 124.016 94.8764 124.316C95.4404 124.616 95.8904 124.994 96.2264 125.45V124.028H98.7644V134H96.2264V132.542C95.9024 133.01 95.4524 133.4 94.8764 133.712C94.3124 134.012 93.6584 134.162 92.9144 134.162C92.0744 134.162 91.3064 133.946 90.6104 133.514C89.9264 133.082 89.3804 132.476 88.9724 131.696C88.5764 130.904 88.3784 129.998 88.3784 128.978ZM96.2264 129.014C96.2264 128.402 96.1064 127.88 95.8664 127.448C95.6264 127.004 95.3024 126.668 94.8944 126.44C94.4864 126.2 94.0484 126.08 93.5804 126.08C93.1124 126.08 92.6804 126.194 92.2844 126.422C91.8884 126.65 91.5644 126.986 91.3124 127.43C91.0724 127.862 90.9524 128.378 90.9524 128.978C90.9524 129.578 91.0724 130.106 91.3124 130.562C91.5644 131.006 91.8884 131.348 92.2844 131.588C92.6924 131.828 93.1244 131.948 93.5804 131.948C94.0484 131.948 94.4864 131.834 94.8944 131.606C95.3024 131.366 95.6264 131.03 95.8664 130.598C96.1064 130.154 96.2264 129.626 96.2264 129.014Z" fill="white"/>
<rect x="16" y="24" width="56" height="56" rx="28" fill="#FFA470"/>
<path d="M36.5 45.5082V44.5051C44.705 44.7128 51.2872 51.295 51.4949 59.5H50.4946C50.2885 51.8723 44.2033 45.7625 36.5 45.5082ZM36.5 49.5119V48.5109C39.3682 48.6356 42.0932 49.8297 44.1317 51.8683C46.1703 53.9068 47.3644 56.6318 47.4891 59.5H46.4881C46.4305 58.2919 46.1645 57.1015 45.7007 55.9818C45.1731 54.7079 44.3996 53.5504 43.4246 52.5754C42.4496 51.6004 41.2921 50.8269 40.0182 50.2993C38.8985 49.8355 37.7081 49.5695 36.5 49.5119ZM36.5 53.5192V52.5167C38.3065 52.6373 40.0151 53.4085 41.3033 54.6967C42.5915 55.9849 43.3627 57.6935 43.4833 59.5H42.4808C42.3619 57.959 41.6968 56.5044 40.5962 55.4038C39.4956 54.3032 38.041 53.6381 36.5 53.5192ZM36.5 56.5359C37.2434 56.6432 37.9375 56.9878 38.4749 57.5251C39.0122 58.0625 39.3568 58.7566 39.4641 59.5H36.5V56.5359Z" fill="#FDB085" stroke="white"/>
<circle cx="512.849" cy="66.8485" r="61.771" transform="rotate(143.528 512.849 66.8485)" stroke="url(#paint0_linear_10344_53706)" stroke-width="24"/>
</g>
<defs>
<linearGradient id="paint0_linear_10344_53706" x1="625.109" y1="-152.326" x2="512.849" y2="140.619" gradientUnits="userSpaceOnUse">
<stop stop-color="white" stop-opacity="0.32"/>
<stop offset="1" stop-color="white" stop-opacity="0"/>
</linearGradient>
<clipPath id="clip0_10344_53706">
<rect width="513" height="154" rx="16" fill="white"/>
</clipPath>
</defs>
</svg>
