<svg width="513" height="154" viewBox="0 0 513 154" fill="none" xmlns="http://www.w3.org/2000/svg">
<g clip-path="url(#clip0_10344_53734)">
<rect width="513" height="154" rx="16" fill="#36A32D"/>
<path d="M19.762 123.47V126.62H23.992V128.618H19.762V131.948H24.532V134H17.242V121.418H24.532V123.47H19.762ZM30.7881 134.162C29.9721 134.162 29.2401 134.018 28.5921 133.73C27.9441 133.43 27.4281 133.028 27.0441 132.524C26.6721 132.02 26.4681 131.462 26.4321 130.85H28.9701C29.0181 131.234 29.2041 131.552 29.5281 131.804C29.8641 132.056 30.2781 132.182 30.7701 132.182C31.2501 132.182 31.6221 132.086 31.8861 131.894C32.1621 131.702 32.3001 131.456 32.3001 131.156C32.3001 130.832 32.1321 130.592 31.7961 130.436C31.4721 130.268 30.9501 130.088 30.2301 129.896C29.4861 129.716 28.8741 129.53 28.3941 129.338C27.9261 129.146 27.5181 128.852 27.1701 128.456C26.8341 128.06 26.6661 127.526 26.6661 126.854C26.6661 126.302 26.8221 125.798 27.1341 125.342C27.4581 124.886 27.9141 124.526 28.5021 124.262C29.1021 123.998 29.8041 123.866 30.6081 123.866C31.7961 123.866 32.7441 124.166 33.4521 124.766C34.1601 125.354 34.5501 126.152 34.6221 127.16H32.2101C32.1741 126.764 32.0061 126.452 31.7061 126.224C31.4181 125.984 31.0281 125.864 30.5361 125.864C30.0801 125.864 29.7261 125.948 29.4741 126.116C29.2341 126.284 29.1141 126.518 29.1141 126.818C29.1141 127.154 29.2821 127.412 29.6181 127.592C29.9541 127.76 30.4761 127.934 31.1841 128.114C31.9041 128.294 32.4981 128.48 32.9661 128.672C33.4341 128.864 33.8361 129.164 34.1721 129.572C34.5201 129.968 34.7001 130.496 34.7121 131.156C34.7121 131.732 34.5501 132.248 34.2261 132.704C33.9141 133.16 33.4581 133.52 32.8581 133.784C32.2701 134.036 31.5801 134.162 30.7881 134.162ZM39.8647 126.098V130.922C39.8647 131.258 39.9427 131.504 40.0987 131.66C40.2667 131.804 40.5427 131.876 40.9267 131.876H42.0967V134H40.5127C38.3887 134 37.3267 132.968 37.3267 130.904V126.098H36.1387V124.028H37.3267V121.562H39.8647V124.028H42.0967V126.098H39.8647ZM43.4112 128.978C43.4112 127.97 43.6092 127.076 44.0052 126.296C44.4132 125.516 44.9592 124.916 45.6432 124.496C46.3392 124.076 47.1132 123.866 47.9652 123.866C48.7092 123.866 49.3572 124.016 49.9092 124.316C50.4732 124.616 50.9232 124.994 51.2592 125.45V124.028H53.7972V134H51.2592V132.542C50.9352 133.01 50.4852 133.4 49.9092 133.712C49.3452 134.012 48.6912 134.162 47.9472 134.162C47.1072 134.162 46.3392 133.946 45.6432 133.514C44.9592 133.082 44.4132 132.476 44.0052 131.696C43.6092 130.904 43.4112 129.998 43.4112 128.978ZM51.2592 129.014C51.2592 128.402 51.1392 127.88 50.8992 127.448C50.6592 127.004 50.3352 126.668 49.9272 126.44C49.5192 126.2 49.0812 126.08 48.6132 126.08C48.1452 126.08 47.7132 126.194 47.3172 126.422C46.9212 126.65 46.5972 126.986 46.3452 127.43C46.1052 127.862 45.9852 128.378 45.9852 128.978C45.9852 129.578 46.1052 130.106 46.3452 130.562C46.5972 131.006 46.9212 131.348 47.3172 131.588C47.7252 131.828 48.1572 131.948 48.6132 131.948C49.0812 131.948 49.5192 131.834 49.9272 131.606C50.3352 131.366 50.6592 131.03 50.8992 130.598C51.1392 130.154 51.2592 129.626 51.2592 129.014ZM59.3424 126.098V130.922C59.3424 131.258 59.4204 131.504 59.5764 131.66C59.7444 131.804 60.0204 131.876 60.4044 131.876H61.5744V134H59.9904C57.8664 134 56.8044 132.968 56.8044 130.904V126.098H55.6164V124.028H56.8044V121.562H59.3424V124.028H61.5744V126.098H59.3424ZM72.8069 128.798C72.8069 129.158 72.7829 129.482 72.7349 129.77H65.4449C65.5049 130.49 65.7569 131.054 66.2009 131.462C66.6449 131.87 67.1909 132.074 67.8389 132.074C68.7749 132.074 69.4409 131.672 69.8369 130.868H72.5549C72.2669 131.828 71.7149 132.62 70.8989 133.244C70.0829 133.856 69.0809 134.162 67.8929 134.162C66.9329 134.162 66.0689 133.952 65.3009 133.532C64.5449 133.1 63.9509 132.494 63.5189 131.714C63.0989 130.934 62.8889 130.034 62.8889 129.014C62.8889 127.982 63.0989 127.076 63.5189 126.296C63.9389 125.516 64.5269 124.916 65.2829 124.496C66.0389 124.076 66.9089 123.866 67.8929 123.866C68.8409 123.866 69.6869 124.07 70.4309 124.478C71.1869 124.886 71.7689 125.468 72.1769 126.224C72.5969 126.968 72.8069 127.826 72.8069 128.798ZM70.1969 128.078C70.1849 127.43 69.9509 126.914 69.4949 126.53C69.0389 126.134 68.4809 125.936 67.8209 125.936C67.1969 125.936 66.6689 126.128 66.2369 126.512C65.8169 126.884 65.5589 127.406 65.4629 128.078H70.1969ZM86.9394 131.606H81.9354L81.1074 134H78.4614L82.9794 121.418H85.9134L90.4314 134H87.7674L86.9394 131.606ZM86.2554 129.59L84.4374 124.334L82.6194 129.59H86.2554ZM96.0861 134.162C95.2701 134.162 94.5381 134.018 93.8901 133.73C93.2421 133.43 92.7261 133.028 92.3421 132.524C91.9701 132.02 91.7661 131.462 91.7301 130.85H94.2681C94.3161 131.234 94.5021 131.552 94.8261 131.804C95.1621 132.056 95.5761 132.182 96.0681 132.182C96.5481 132.182 96.9201 132.086 97.1841 131.894C97.4601 131.702 97.5981 131.456 97.5981 131.156C97.5981 130.832 97.4301 130.592 97.0941 130.436C96.7701 130.268 96.2481 130.088 95.5281 129.896C94.7841 129.716 94.1721 129.53 93.6921 129.338C93.2241 129.146 92.8161 128.852 92.4681 128.456C92.1321 128.06 91.9641 127.526 91.9641 126.854C91.9641 126.302 92.1201 125.798 92.4321 125.342C92.7561 124.886 93.2121 124.526 93.8001 124.262C94.4001 123.998 95.1021 123.866 95.9061 123.866C97.0941 123.866 98.0421 124.166 98.7501 124.766C99.4581 125.354 99.8481 126.152 99.9201 127.16H97.5081C97.4721 126.764 97.3041 126.452 97.0041 126.224C96.7161 125.984 96.3261 125.864 95.8341 125.864C95.3781 125.864 95.0241 125.948 94.7721 126.116C94.5321 126.284 94.4121 126.518 94.4121 126.818C94.4121 127.154 94.5801 127.412 94.9161 127.592C95.2521 127.76 95.7741 127.934 96.4821 128.114C97.2021 128.294 97.7961 128.48 98.2641 128.672C98.7321 128.864 99.1341 129.164 99.4701 129.572C99.8181 129.968 99.9981 130.496 100.01 131.156C100.01 131.732 99.8481 132.248 99.5241 132.704C99.2121 133.16 98.7561 133.52 98.1561 133.784C97.5681 134.036 96.8781 134.162 96.0861 134.162ZM106.045 134.162C105.229 134.162 104.497 134.018 103.849 133.73C103.201 133.43 102.685 133.028 102.301 132.524C101.929 132.02 101.725 131.462 101.689 130.85H104.227C104.275 131.234 104.461 131.552 104.785 131.804C105.121 132.056 105.535 132.182 106.027 132.182C106.507 132.182 106.879 132.086 107.143 131.894C107.419 131.702 107.557 131.456 107.557 131.156C107.557 130.832 107.389 130.592 107.053 130.436C106.729 130.268 106.207 130.088 105.487 129.896C104.743 129.716 104.131 129.53 103.651 129.338C103.183 129.146 102.775 128.852 102.427 128.456C102.091 128.06 101.923 127.526 101.923 126.854C101.923 126.302 102.079 125.798 102.391 125.342C102.715 124.886 103.171 124.526 103.759 124.262C104.359 123.998 105.061 123.866 105.865 123.866C107.053 123.866 108.001 124.166 108.709 124.766C109.417 125.354 109.807 126.152 109.879 127.16H107.467C107.431 126.764 107.263 126.452 106.963 126.224C106.675 125.984 106.285 125.864 105.793 125.864C105.337 125.864 104.983 125.948 104.731 126.116C104.491 126.284 104.371 126.518 104.371 126.818C104.371 127.154 104.539 127.412 104.875 127.592C105.211 127.76 105.733 127.934 106.441 128.114C107.161 128.294 107.755 128.48 108.223 128.672C108.691 128.864 109.093 129.164 109.429 129.572C109.777 129.968 109.957 130.496 109.969 131.156C109.969 131.732 109.807 132.248 109.483 132.704C109.171 133.16 108.715 133.52 108.115 133.784C107.527 134.036 106.837 134.162 106.045 134.162ZM116.615 134.162C115.655 134.162 114.791 133.952 114.023 133.532C113.255 133.1 112.649 132.494 112.205 131.714C111.773 130.934 111.557 130.034 111.557 129.014C111.557 127.994 111.779 127.094 112.223 126.314C112.679 125.534 113.297 124.934 114.077 124.514C114.857 124.082 115.727 123.866 116.687 123.866C117.647 123.866 118.517 124.082 119.297 124.514C120.077 124.934 120.689 125.534 121.133 126.314C121.589 127.094 121.817 127.994 121.817 129.014C121.817 130.034 121.583 130.934 121.115 131.714C120.659 132.494 120.035 133.1 119.243 133.532C118.463 133.952 117.587 134.162 116.615 134.162ZM116.615 131.966C117.071 131.966 117.497 131.858 117.893 131.642C118.301 131.414 118.625 131.078 118.865 130.634C119.105 130.19 119.225 129.65 119.225 129.014C119.225 128.066 118.973 127.34 118.469 126.836C117.977 126.32 117.371 126.062 116.651 126.062C115.931 126.062 115.325 126.32 114.833 126.836C114.353 127.34 114.113 128.066 114.113 129.014C114.113 129.962 114.347 130.694 114.815 131.21C115.295 131.714 115.895 131.966 116.615 131.966ZM123.168 129.014C123.168 127.982 123.378 127.082 123.798 126.314C124.218 125.534 124.8 124.934 125.544 124.514C126.288 124.082 127.14 123.866 128.1 123.866C129.336 123.866 130.356 124.178 131.16 124.802C131.976 125.414 132.522 126.278 132.798 127.394H130.08C129.936 126.962 129.69 126.626 129.342 126.386C129.006 126.134 128.586 126.008 128.082 126.008C127.362 126.008 126.792 126.272 126.372 126.8C125.952 127.316 125.742 128.054 125.742 129.014C125.742 129.962 125.952 130.7 126.372 131.228C126.792 131.744 127.362 132.002 128.082 132.002C129.102 132.002 129.768 131.546 130.08 130.634H132.798C132.522 131.714 131.976 132.572 131.16 133.208C130.344 133.844 129.324 134.162 128.1 134.162C127.14 134.162 126.288 133.952 125.544 133.532C124.8 133.1 124.218 132.5 123.798 131.732C123.378 130.952 123.168 130.046 123.168 129.014ZM136.072 122.84C135.628 122.84 135.256 122.702 134.956 122.426C134.668 122.138 134.524 121.784 134.524 121.364C134.524 120.944 134.668 120.596 134.956 120.32C135.256 120.032 135.628 119.888 136.072 119.888C136.516 119.888 136.882 120.032 137.17 120.32C137.47 120.596 137.62 120.944 137.62 121.364C137.62 121.784 137.47 122.138 137.17 122.426C136.882 122.702 136.516 122.84 136.072 122.84ZM137.314 124.028V134H134.794V124.028H137.314ZM139.306 128.978C139.306 127.97 139.504 127.076 139.9 126.296C140.308 125.516 140.854 124.916 141.538 124.496C142.234 124.076 143.008 123.866 143.86 123.866C144.604 123.866 145.252 124.016 145.804 124.316C146.368 124.616 146.818 124.994 147.154 125.45V124.028H149.692V134H147.154V132.542C146.83 133.01 146.38 133.4 145.804 133.712C145.24 134.012 144.586 134.162 143.842 134.162C143.002 134.162 142.234 133.946 141.538 133.514C140.854 133.082 140.308 132.476 139.9 131.696C139.504 130.904 139.306 129.998 139.306 128.978ZM147.154 129.014C147.154 128.402 147.034 127.88 146.794 127.448C146.554 127.004 146.23 126.668 145.822 126.44C145.414 126.2 144.976 126.08 144.508 126.08C144.04 126.08 143.608 126.194 143.212 126.422C142.816 126.65 142.492 126.986 142.24 127.43C142 127.862 141.88 128.378 141.88 128.978C141.88 129.578 142 130.106 142.24 130.562C142.492 131.006 142.816 131.348 143.212 131.588C143.62 131.828 144.052 131.948 144.508 131.948C144.976 131.948 145.414 131.834 145.822 131.606C146.23 131.366 146.554 131.03 146.794 130.598C147.034 130.154 147.154 129.626 147.154 129.014ZM155.237 126.098V130.922C155.237 131.258 155.315 131.504 155.471 131.66C155.639 131.804 155.915 131.876 156.299 131.876H157.469V134H155.885C153.761 134 152.699 132.968 152.699 130.904V126.098H151.511V124.028H152.699V121.562H155.237V124.028H157.469V126.098H155.237ZM160.709 122.84C160.265 122.84 159.893 122.702 159.593 122.426C159.305 122.138 159.161 121.784 159.161 121.364C159.161 120.944 159.305 120.596 159.593 120.32C159.893 120.032 160.265 119.888 160.709 119.888C161.153 119.888 161.519 120.032 161.807 120.32C162.107 120.596 162.257 120.944 162.257 121.364C162.257 121.784 162.107 122.138 161.807 122.426C161.519 122.702 161.153 122.84 160.709 122.84ZM161.951 124.028V134H159.431V124.028H161.951ZM169.019 134.162C168.059 134.162 167.195 133.952 166.427 133.532C165.659 133.1 165.053 132.494 164.609 131.714C164.177 130.934 163.961 130.034 163.961 129.014C163.961 127.994 164.183 127.094 164.627 126.314C165.083 125.534 165.701 124.934 166.481 124.514C167.261 124.082 168.131 123.866 169.091 123.866C170.051 123.866 170.921 124.082 171.701 124.514C172.481 124.934 173.093 125.534 173.537 126.314C173.993 127.094 174.221 127.994 174.221 129.014C174.221 130.034 173.987 130.934 173.519 131.714C173.063 132.494 172.439 133.1 171.647 133.532C170.867 133.952 169.991 134.162 169.019 134.162ZM169.019 131.966C169.475 131.966 169.901 131.858 170.297 131.642C170.705 131.414 171.029 131.078 171.269 130.634C171.509 130.19 171.629 129.65 171.629 129.014C171.629 128.066 171.377 127.34 170.873 126.836C170.381 126.32 169.775 126.062 169.055 126.062C168.335 126.062 167.729 126.32 167.237 126.836C166.757 127.34 166.517 128.066 166.517 129.014C166.517 129.962 166.751 130.694 167.219 131.21C167.699 131.714 168.299 131.966 169.019 131.966ZM181.746 123.884C182.934 123.884 183.894 124.262 184.626 125.018C185.358 125.762 185.724 126.806 185.724 128.15V134H183.204V128.492C183.204 127.7 183.006 127.094 182.61 126.674C182.214 126.242 181.674 126.026 180.99 126.026C180.294 126.026 179.742 126.242 179.334 126.674C178.938 127.094 178.74 127.7 178.74 128.492V134H176.22V124.028H178.74V125.27C179.076 124.838 179.502 124.502 180.018 124.262C180.546 124.01 181.122 123.884 181.746 123.884Z" fill="white"/>
<rect x="16" y="24" width="56" height="56" rx="28" fill="#4BC441"/>
<path d="M46 56.5H46.5V56V54V53.5H46H40H39.5V54V56V56.5H40H46ZM50 52.5H50.5V52V50V49.5H50H40H39.5V50V52V52.5H40H50ZM36 44.5H53.5V45.5H36H35.5V46V61.5H34.5V42.5H35.5V44V44.5H36ZM40 48.5H50C50.8322 48.5 51.5 49.1745 51.5 50V56C51.5 56.8339 50.8339 57.5 50 57.5H40C39.1745 57.5 38.5 56.8322 38.5 56V50C38.5 49.1761 39.1761 48.5 40 48.5Z" fill="#86C881" stroke="white"/>
<circle cx="512.849" cy="66.8492" r="61.771" transform="rotate(33.4931 512.849 66.8492)" stroke="url(#paint0_linear_10344_53734)" stroke-width="24"/>
</g>
<defs>
<linearGradient id="paint0_linear_10344_53734" x1="625.109" y1="-152.325" x2="512.849" y2="140.62" gradientUnits="userSpaceOnUse">
<stop stop-color="white" stop-opacity="0.32"/>
<stop offset="1" stop-color="white" stop-opacity="0"/>
</linearGradient>
<clipPath id="clip0_10344_53734">
<rect width="513" height="154" rx="16" fill="white"/>
</clipPath>
</defs>
</svg>
