<svg width="513" height="154" viewBox="0 0 513 154" fill="none" xmlns="http://www.w3.org/2000/svg">
<g clip-path="url(#clip0_10344_53739)">
<rect width="513" height="154" rx="16" fill="#FE93DA"/>
<path d="M19.762 121.436V134H17.242V121.436H19.762ZM27.9278 123.884C29.1158 123.884 30.0758 124.262 30.8078 125.018C31.5398 125.762 31.9058 126.806 31.9058 128.15V134H29.3858V128.492C29.3858 127.7 29.1878 127.094 28.7918 126.674C28.3958 126.242 27.8558 126.026 27.1718 126.026C26.4758 126.026 25.9238 126.242 25.5158 126.674C25.1198 127.094 24.9218 127.7 24.9218 128.492V134H22.4018V124.028H24.9218V125.27C25.2578 124.838 25.6838 124.502 26.1998 124.262C26.7278 124.01 27.3038 123.884 27.9278 123.884ZM38.2682 134.162C37.4522 134.162 36.7202 134.018 36.0722 133.73C35.4242 133.43 34.9082 133.028 34.5242 132.524C34.1522 132.02 33.9482 131.462 33.9122 130.85H36.4502C36.4982 131.234 36.6842 131.552 37.0082 131.804C37.3442 132.056 37.7582 132.182 38.2502 132.182C38.7302 132.182 39.1022 132.086 39.3662 131.894C39.6422 131.702 39.7802 131.456 39.7802 131.156C39.7802 130.832 39.6122 130.592 39.2762 130.436C38.9522 130.268 38.4302 130.088 37.7102 129.896C36.9662 129.716 36.3542 129.53 35.8742 129.338C35.4062 129.146 34.9982 128.852 34.6502 128.456C34.3142 128.06 34.1462 127.526 34.1462 126.854C34.1462 126.302 34.3022 125.798 34.6142 125.342C34.9382 124.886 35.3942 124.526 35.9822 124.262C36.5822 123.998 37.2842 123.866 38.0882 123.866C39.2762 123.866 40.2242 124.166 40.9322 124.766C41.6402 125.354 42.0302 126.152 42.1022 127.16H39.6902C39.6542 126.764 39.4862 126.452 39.1862 126.224C38.8982 125.984 38.5082 125.864 38.0162 125.864C37.5602 125.864 37.2062 125.948 36.9542 126.116C36.7142 126.284 36.5942 126.518 36.5942 126.818C36.5942 127.154 36.7622 127.412 37.0982 127.592C37.4342 127.76 37.9562 127.934 38.6642 128.114C39.3842 128.294 39.9782 128.48 40.4462 128.672C40.9142 128.864 41.3162 129.164 41.6522 129.572C42.0002 129.968 42.1802 130.496 42.1922 131.156C42.1922 131.732 42.0302 132.248 41.7062 132.704C41.3942 133.16 40.9382 133.52 40.3382 133.784C39.7502 134.036 39.0602 134.162 38.2682 134.162ZM53.8248 124.028V134H51.2868V132.74C50.9628 133.172 50.5368 133.514 50.0088 133.766C49.4928 134.006 48.9288 134.126 48.3168 134.126C47.5368 134.126 46.8468 133.964 46.2468 133.64C45.6468 133.304 45.1728 132.818 44.8248 132.182C44.4888 131.534 44.3208 130.766 44.3208 129.878V124.028H46.8408V129.518C46.8408 130.31 47.0388 130.922 47.4348 131.354C47.8308 131.774 48.3708 131.984 49.0548 131.984C49.7508 131.984 50.2968 131.774 50.6928 131.354C51.0888 130.922 51.2868 130.31 51.2868 129.518V124.028H53.8248ZM58.9811 125.576C59.3051 125.048 59.7251 124.634 60.2411 124.334C60.7691 124.034 61.3691 123.884 62.0411 123.884V126.53H61.3751C60.5831 126.53 59.9831 126.716 59.5751 127.088C59.1791 127.46 58.9811 128.108 58.9811 129.032V134H56.4611V124.028H58.9811V125.576ZM63.2405 128.978C63.2405 127.97 63.4385 127.076 63.8345 126.296C64.2425 125.516 64.7885 124.916 65.4725 124.496C66.1685 124.076 66.9425 123.866 67.7945 123.866C68.5385 123.866 69.1865 124.016 69.7385 124.316C70.3025 124.616 70.7525 124.994 71.0885 125.45V124.028H73.6265V134H71.0885V132.542C70.7645 133.01 70.3145 133.4 69.7385 133.712C69.1745 134.012 68.5205 134.162 67.7765 134.162C66.9365 134.162 66.1685 133.946 65.4725 133.514C64.7885 133.082 64.2425 132.476 63.8345 131.696C63.4385 130.904 63.2405 129.998 63.2405 128.978ZM71.0885 129.014C71.0885 128.402 70.9685 127.88 70.7285 127.448C70.4885 127.004 70.1645 126.668 69.7565 126.44C69.3485 126.2 68.9105 126.08 68.4425 126.08C67.9745 126.08 67.5425 126.194 67.1465 126.422C66.7505 126.65 66.4265 126.986 66.1745 127.43C65.9345 127.862 65.8145 128.378 65.8145 128.978C65.8145 129.578 65.9345 130.106 66.1745 130.562C66.4265 131.006 66.7505 131.348 67.1465 131.588C67.5545 131.828 67.9865 131.948 68.4425 131.948C68.9105 131.948 69.3485 131.834 69.7565 131.606C70.1645 131.366 70.4885 131.03 70.7285 130.598C70.9685 130.154 71.0885 129.626 71.0885 129.014ZM81.7637 123.884C82.9517 123.884 83.9117 124.262 84.6437 125.018C85.3757 125.762 85.7417 126.806 85.7417 128.15V134H83.2217V128.492C83.2217 127.7 83.0237 127.094 82.6277 126.674C82.2317 126.242 81.6917 126.026 81.0077 126.026C80.3117 126.026 79.7597 126.242 79.3517 126.674C78.9557 127.094 78.7577 127.7 78.7577 128.492V134H76.2377V124.028H78.7577V125.27C79.0937 124.838 79.5197 124.502 80.0357 124.262C80.5637 124.01 81.1397 123.884 81.7637 123.884ZM87.6401 129.014C87.6401 127.982 87.8501 127.082 88.2701 126.314C88.6901 125.534 89.2721 124.934 90.0161 124.514C90.7601 124.082 91.6121 123.866 92.5721 123.866C93.8081 123.866 94.8281 124.178 95.6321 124.802C96.4481 125.414 96.9941 126.278 97.2701 127.394H94.5521C94.4081 126.962 94.1621 126.626 93.8141 126.386C93.4781 126.134 93.0581 126.008 92.5541 126.008C91.8341 126.008 91.2641 126.272 90.8441 126.8C90.4241 127.316 90.2141 128.054 90.2141 129.014C90.2141 129.962 90.4241 130.7 90.8441 131.228C91.2641 131.744 91.8341 132.002 92.5541 132.002C93.5741 132.002 94.2401 131.546 94.5521 130.634H97.2701C96.9941 131.714 96.4481 132.572 95.6321 133.208C94.8161 133.844 93.7961 134.162 92.5721 134.162C91.6121 134.162 90.7601 133.952 90.0161 133.532C89.2721 133.1 88.6901 132.5 88.2701 131.732C87.8501 130.952 87.6401 130.046 87.6401 129.014ZM108.536 128.798C108.536 129.158 108.512 129.482 108.464 129.77H101.174C101.234 130.49 101.486 131.054 101.93 131.462C102.374 131.87 102.92 132.074 103.568 132.074C104.504 132.074 105.17 131.672 105.566 130.868H108.284C107.996 131.828 107.444 132.62 106.628 133.244C105.812 133.856 104.81 134.162 103.622 134.162C102.662 134.162 101.798 133.952 101.03 133.532C100.274 133.1 99.6802 132.494 99.2482 131.714C98.8282 130.934 98.6182 130.034 98.6182 129.014C98.6182 127.982 98.8282 127.076 99.2482 126.296C99.6682 125.516 100.256 124.916 101.012 124.496C101.768 124.076 102.638 123.866 103.622 123.866C104.57 123.866 105.416 124.07 106.16 124.478C106.916 124.886 107.498 125.468 107.906 126.224C108.326 126.968 108.536 127.826 108.536 128.798ZM105.926 128.078C105.914 127.43 105.68 126.914 105.224 126.53C104.768 126.134 104.21 125.936 103.55 125.936C102.926 125.936 102.398 126.128 101.966 126.512C101.546 126.884 101.288 127.406 101.192 128.078H105.926Z" fill="white"/>
<rect x="16" y="24" width="56" height="56" rx="28" fill="#FFB4E5"/>
<path d="M43.8712 61.4831L44 61.5175L44.1288 61.4831C46.1422 60.9462 47.9815 59.4957 49.3121 57.6471C50.6445 55.796 51.5 53.5008 51.5 51.22V46.3V45.9754L51.2036 45.8433L44.2036 42.7233L44 42.6326L43.7964 42.7233L36.7964 45.8433L36.5 45.9754V46.3V51.22C36.5 53.5008 37.3555 55.796 38.6879 57.6471C40.0185 59.4957 41.8578 60.9462 43.8712 61.4831ZM43.7119 53.7217L41.6534 54.9622L42.1971 52.6127L42.2652 52.3188L42.0368 52.1216L40.2236 50.5559L42.6231 50.3481L42.9237 50.3221L43.0408 50.0441L43.9723 47.8325L44.9099 50.0358L45.0276 50.3122L45.3269 50.3381L47.7269 50.546L45.9031 52.1217L45.6742 52.3195L45.7432 52.6141L46.2933 54.9622L44.2275 53.7214L43.9696 53.5665L43.7119 53.7217ZM52.5 51C52.5 56.2973 48.8574 61.2335 44 62.4845C39.1426 61.2335 35.5 56.2973 35.5 51V45.3249L44 41.5472L52.5 45.3249V51Z" fill="white" stroke="white"/>
<circle cx="512.849" cy="66.8481" r="61.771" transform="rotate(-14.8081 512.849 66.8481)" stroke="url(#paint0_linear_10344_53739)" stroke-width="24"/>
</g>
<defs>
<linearGradient id="paint0_linear_10344_53739" x1="625.109" y1="-152.327" x2="512.849" y2="140.619" gradientUnits="userSpaceOnUse">
<stop stop-color="white" stop-opacity="0.32"/>
<stop offset="1" stop-color="white" stop-opacity="0"/>
</linearGradient>
<clipPath id="clip0_10344_53739">
<rect width="513" height="154" rx="16" fill="white"/>
</clipPath>
</defs>
</svg>
