<svg width="513" height="154" viewBox="0 0 513 154" fill="none" xmlns="http://www.w3.org/2000/svg">
<g clip-path="url(#clip0_10344_53717)">
<rect width="513" height="154" rx="16" fill="#9693FE"/>
<path d="M19.762 121.436V134H17.242V121.436H19.762ZM27.9278 123.884C29.1158 123.884 30.0758 124.262 30.8078 125.018C31.5398 125.762 31.9058 126.806 31.9058 128.15V134H29.3858V128.492C29.3858 127.7 29.1878 127.094 28.7918 126.674C28.3958 126.242 27.8558 126.026 27.1718 126.026C26.4758 126.026 25.9238 126.242 25.5158 126.674C25.1198 127.094 24.9218 127.7 24.9218 128.492V134H22.4018V124.028H24.9218V125.27C25.2578 124.838 25.6838 124.502 26.1998 124.262C26.7278 124.01 27.3038 123.884 27.9278 123.884ZM37.3862 126.098V130.922C37.3862 131.258 37.4642 131.504 37.6202 131.66C37.7882 131.804 38.0642 131.876 38.4482 131.876H39.6182V134H38.0342C35.9102 134 34.8482 132.968 34.8482 130.904V126.098H33.6602V124.028H34.8482V121.562H37.3862V124.028H39.6182V126.098H37.3862ZM50.8507 128.798C50.8507 129.158 50.8267 129.482 50.7787 129.77H43.4887C43.5487 130.49 43.8007 131.054 44.2447 131.462C44.6887 131.87 45.2347 132.074 45.8827 132.074C46.8187 132.074 47.4847 131.672 47.8807 130.868H50.5987C50.3107 131.828 49.7587 132.62 48.9427 133.244C48.1267 133.856 47.1247 134.162 45.9367 134.162C44.9767 134.162 44.1127 133.952 43.3447 133.532C42.5887 133.1 41.9947 132.494 41.5627 131.714C41.1427 130.934 40.9327 130.034 40.9327 129.014C40.9327 127.982 41.1427 127.076 41.5627 126.296C41.9827 125.516 42.5707 124.916 43.3267 124.496C44.0827 124.076 44.9527 123.866 45.9367 123.866C46.8847 123.866 47.7307 124.07 48.4747 124.478C49.2307 124.886 49.8127 125.468 50.2207 126.224C50.6407 126.968 50.8507 127.826 50.8507 128.798ZM48.2407 128.078C48.2287 127.43 47.9947 126.914 47.5387 126.53C47.0827 126.134 46.5247 125.936 45.8647 125.936C45.2407 125.936 44.7127 126.128 44.2807 126.512C43.8607 126.884 43.6027 127.406 43.5067 128.078H48.2407ZM55.36 125.576C55.684 125.048 56.104 124.634 56.62 124.334C57.148 124.034 57.748 123.884 58.42 123.884V126.53H57.754C56.962 126.53 56.362 126.716 55.954 127.088C55.558 127.46 55.36 128.108 55.36 129.032V134H52.84V124.028H55.36V125.576ZM65.7934 123.884C66.9814 123.884 67.9414 124.262 68.6734 125.018C69.4054 125.762 69.7714 126.806 69.7714 128.15V134H67.2514V128.492C67.2514 127.7 67.0534 127.094 66.6574 126.674C66.2614 126.242 65.7214 126.026 65.0374 126.026C64.3414 126.026 63.7894 126.242 63.3814 126.674C62.9854 127.094 62.7874 127.7 62.7874 128.492V134H60.2674V124.028H62.7874V125.27C63.1234 124.838 63.5494 124.502 64.0654 124.262C64.5934 124.01 65.1694 123.884 65.7934 123.884ZM81.5878 128.798C81.5878 129.158 81.5638 129.482 81.5158 129.77H74.2258C74.2858 130.49 74.5378 131.054 74.9818 131.462C75.4258 131.87 75.9718 132.074 76.6198 132.074C77.5558 132.074 78.2218 131.672 78.6178 130.868H81.3358C81.0478 131.828 80.4958 132.62 79.6798 133.244C78.8638 133.856 77.8618 134.162 76.6738 134.162C75.7138 134.162 74.8498 133.952 74.0818 133.532C73.3258 133.1 72.7318 132.494 72.2998 131.714C71.8798 130.934 71.6698 130.034 71.6698 129.014C71.6698 127.982 71.8798 127.076 72.2998 126.296C72.7198 125.516 73.3078 124.916 74.0638 124.496C74.8198 124.076 75.6898 123.866 76.6738 123.866C77.6218 123.866 78.4678 124.07 79.2118 124.478C79.9678 124.886 80.5498 125.468 80.9578 126.224C81.3778 126.968 81.5878 127.826 81.5878 128.798ZM78.9778 128.078C78.9658 127.43 78.7318 126.914 78.2758 126.53C77.8198 126.134 77.2618 125.936 76.6018 125.936C75.9778 125.936 75.4498 126.128 75.0178 126.512C74.5978 126.884 74.3398 127.406 74.2438 128.078H78.9778ZM86.5112 126.098V130.922C86.5112 131.258 86.5892 131.504 86.7452 131.66C86.9132 131.804 87.1892 131.876 87.5732 131.876H88.7432V134H87.1592C85.0352 134 83.9732 132.968 83.9732 130.904V126.098H82.7852V124.028H83.9732V121.562H86.5112V124.028H88.7432V126.098H86.5112ZM99.4827 134.126C98.6067 134.126 97.8147 133.976 97.1067 133.676C96.4107 133.376 95.8587 132.944 95.4507 132.38C95.0427 131.816 94.8327 131.15 94.8207 130.382H97.5207C97.5567 130.898 97.7367 131.306 98.0607 131.606C98.3967 131.906 98.8527 132.056 99.4287 132.056C100.017 132.056 100.479 131.918 100.815 131.642C101.151 131.354 101.319 130.982 101.319 130.526C101.319 130.154 101.205 129.848 100.977 129.608C100.749 129.368 100.461 129.182 100.113 129.05C99.7767 128.906 99.3087 128.75 98.7087 128.582C97.8927 128.342 97.2267 128.108 96.7107 127.88C96.2067 127.64 95.7687 127.286 95.3967 126.818C95.0367 126.338 94.8567 125.702 94.8567 124.91C94.8567 124.166 95.0427 123.518 95.4147 122.966C95.7867 122.414 96.3087 121.994 96.9807 121.706C97.6527 121.406 98.4207 121.256 99.2847 121.256C100.581 121.256 101.631 121.574 102.435 122.21C103.251 122.834 103.701 123.71 103.785 124.838H101.013C100.989 124.406 100.803 124.052 100.455 123.776C100.119 123.488 99.6687 123.344 99.1047 123.344C98.6127 123.344 98.2167 123.47 97.9167 123.722C97.6287 123.974 97.4847 124.34 97.4847 124.82C97.4847 125.156 97.5927 125.438 97.8087 125.666C98.0367 125.882 98.3127 126.062 98.6367 126.206C98.9727 126.338 99.4407 126.494 100.041 126.674C100.857 126.914 101.523 127.154 102.039 127.394C102.555 127.634 102.999 127.994 103.371 128.474C103.743 128.954 103.929 129.584 103.929 130.364C103.929 131.036 103.755 131.66 103.407 132.236C103.059 132.812 102.549 133.274 101.877 133.622C101.205 133.958 100.407 134.126 99.4827 134.126ZM115.677 124.028V134H113.139V132.74C112.815 133.172 112.389 133.514 111.861 133.766C111.345 134.006 110.781 134.126 110.169 134.126C109.389 134.126 108.699 133.964 108.099 133.64C107.499 133.304 107.025 132.818 106.677 132.182C106.341 131.534 106.173 130.766 106.173 129.878V124.028H108.693V129.518C108.693 130.31 108.891 130.922 109.287 131.354C109.683 131.774 110.223 131.984 110.907 131.984C111.603 131.984 112.149 131.774 112.545 131.354C112.941 130.922 113.139 130.31 113.139 129.518V124.028H115.677ZM120.834 125.486C121.158 125.006 121.602 124.616 122.166 124.316C122.742 124.016 123.396 123.866 124.128 123.866C124.98 123.866 125.748 124.076 126.432 124.496C127.128 124.916 127.674 125.516 128.07 126.296C128.478 127.064 128.682 127.958 128.682 128.978C128.682 129.998 128.478 130.904 128.07 131.696C127.674 132.476 127.128 133.082 126.432 133.514C125.748 133.946 124.98 134.162 124.128 134.162C123.384 134.162 122.73 134.018 122.166 133.73C121.614 133.43 121.17 133.046 120.834 132.578V134H118.314V120.68H120.834V125.486ZM126.108 128.978C126.108 128.378 125.982 127.862 125.73 127.43C125.49 126.986 125.166 126.65 124.758 126.422C124.362 126.194 123.93 126.08 123.462 126.08C123.006 126.08 122.574 126.2 122.166 126.44C121.77 126.668 121.446 127.004 121.194 127.448C120.954 127.892 120.834 128.414 120.834 129.014C120.834 129.614 120.954 130.136 121.194 130.58C121.446 131.024 121.77 131.366 122.166 131.606C122.574 131.834 123.006 131.948 123.462 131.948C123.93 131.948 124.362 131.828 124.758 131.588C125.166 131.348 125.49 131.006 125.73 130.562C125.982 130.118 126.108 129.59 126.108 128.978ZM134.479 134.162C133.663 134.162 132.931 134.018 132.283 133.73C131.635 133.43 131.119 133.028 130.735 132.524C130.363 132.02 130.159 131.462 130.123 130.85H132.661C132.709 131.234 132.895 131.552 133.219 131.804C133.555 132.056 133.969 132.182 134.461 132.182C134.941 132.182 135.313 132.086 135.577 131.894C135.853 131.702 135.991 131.456 135.991 131.156C135.991 130.832 135.823 130.592 135.487 130.436C135.163 130.268 134.641 130.088 133.921 129.896C133.177 129.716 132.565 129.53 132.085 129.338C131.617 129.146 131.209 128.852 130.861 128.456C130.525 128.06 130.357 127.526 130.357 126.854C130.357 126.302 130.513 125.798 130.825 125.342C131.149 124.886 131.605 124.526 132.193 124.262C132.793 123.998 133.495 123.866 134.299 123.866C135.487 123.866 136.435 124.166 137.143 124.766C137.851 125.354 138.241 126.152 138.313 127.16H135.901C135.865 126.764 135.697 126.452 135.397 126.224C135.109 125.984 134.719 125.864 134.227 125.864C133.771 125.864 133.417 125.948 133.165 126.116C132.925 126.284 132.805 126.518 132.805 126.818C132.805 127.154 132.973 127.412 133.309 127.592C133.645 127.76 134.167 127.934 134.875 128.114C135.595 128.294 136.189 128.48 136.657 128.672C137.125 128.864 137.527 129.164 137.863 129.572C138.211 129.968 138.391 130.496 138.403 131.156C138.403 131.732 138.241 132.248 137.917 132.704C137.605 133.16 137.149 133.52 136.549 133.784C135.961 134.036 135.271 134.162 134.479 134.162ZM139.974 129.014C139.974 127.982 140.184 127.082 140.604 126.314C141.024 125.534 141.606 124.934 142.35 124.514C143.094 124.082 143.946 123.866 144.906 123.866C146.142 123.866 147.162 124.178 147.966 124.802C148.782 125.414 149.328 126.278 149.604 127.394H146.886C146.742 126.962 146.496 126.626 146.148 126.386C145.812 126.134 145.392 126.008 144.888 126.008C144.168 126.008 143.598 126.272 143.178 126.8C142.758 127.316 142.548 128.054 142.548 129.014C142.548 129.962 142.758 130.7 143.178 131.228C143.598 131.744 144.168 132.002 144.888 132.002C145.908 132.002 146.574 131.546 146.886 130.634H149.604C149.328 131.714 148.782 132.572 147.966 133.208C147.15 133.844 146.13 134.162 144.906 134.162C143.946 134.162 143.094 133.952 142.35 133.532C141.606 133.1 141.024 132.5 140.604 131.732C140.184 130.952 139.974 130.046 139.974 129.014ZM154.12 125.576C154.444 125.048 154.864 124.634 155.38 124.334C155.908 124.034 156.508 123.884 157.18 123.884V126.53H156.514C155.722 126.53 155.122 126.716 154.714 127.088C154.318 127.46 154.12 128.108 154.12 129.032V134H151.6V124.028H154.12V125.576ZM160.305 122.84C159.861 122.84 159.489 122.702 159.189 122.426C158.901 122.138 158.757 121.784 158.757 121.364C158.757 120.944 158.901 120.596 159.189 120.32C159.489 120.032 159.861 119.888 160.305 119.888C160.749 119.888 161.115 120.032 161.403 120.32C161.703 120.596 161.853 120.944 161.853 121.364C161.853 121.784 161.703 122.138 161.403 122.426C161.115 122.702 160.749 122.84 160.305 122.84ZM161.547 124.028V134H159.027V124.028H161.547ZM166.707 125.468C167.031 125.012 167.475 124.634 168.039 124.334C168.615 124.022 169.269 123.866 170.001 123.866C170.853 123.866 171.621 124.076 172.305 124.496C173.001 124.916 173.547 125.516 173.943 126.296C174.351 127.064 174.555 127.958 174.555 128.978C174.555 129.998 174.351 130.904 173.943 131.696C173.547 132.476 173.001 133.082 172.305 133.514C171.621 133.946 170.853 134.162 170.001 134.162C169.269 134.162 168.621 134.012 168.057 133.712C167.505 133.412 167.055 133.034 166.707 132.578V138.752H164.187V124.028H166.707V125.468ZM171.981 128.978C171.981 128.378 171.855 127.862 171.603 127.43C171.363 126.986 171.039 126.65 170.631 126.422C170.235 126.194 169.803 126.08 169.335 126.08C168.879 126.08 168.447 126.2 168.039 126.44C167.643 126.668 167.319 127.004 167.067 127.448C166.827 127.892 166.707 128.414 166.707 129.014C166.707 129.614 166.827 130.136 167.067 130.58C167.319 131.024 167.643 131.366 168.039 131.606C168.447 131.834 168.879 131.948 169.335 131.948C169.803 131.948 170.235 131.828 170.631 131.588C171.039 131.348 171.363 131.006 171.603 130.562C171.855 130.118 171.981 129.59 171.981 128.978ZM179.47 126.098V130.922C179.47 131.258 179.548 131.504 179.704 131.66C179.872 131.804 180.148 131.876 180.532 131.876H181.702V134H180.118C177.994 134 176.932 132.968 176.932 130.904V126.098H175.744V124.028H176.932V121.562H179.47V124.028H181.702V126.098H179.47ZM184.943 122.84C184.499 122.84 184.127 122.702 183.827 122.426C183.539 122.138 183.395 121.784 183.395 121.364C183.395 120.944 183.539 120.596 183.827 120.32C184.127 120.032 184.499 119.888 184.943 119.888C185.387 119.888 185.753 120.032 186.041 120.32C186.341 120.596 186.491 120.944 186.491 121.364C186.491 121.784 186.341 122.138 186.041 122.426C185.753 122.702 185.387 122.84 184.943 122.84ZM186.185 124.028V134H183.665V124.028H186.185ZM193.252 134.162C192.292 134.162 191.428 133.952 190.66 133.532C189.892 133.1 189.286 132.494 188.842 131.714C188.41 130.934 188.194 130.034 188.194 129.014C188.194 127.994 188.416 127.094 188.86 126.314C189.316 125.534 189.934 124.934 190.714 124.514C191.494 124.082 192.364 123.866 193.324 123.866C194.284 123.866 195.154 124.082 195.934 124.514C196.714 124.934 197.326 125.534 197.77 126.314C198.226 127.094 198.454 127.994 198.454 129.014C198.454 130.034 198.22 130.934 197.752 131.714C197.296 132.494 196.672 133.1 195.88 133.532C195.1 133.952 194.224 134.162 193.252 134.162ZM193.252 131.966C193.708 131.966 194.134 131.858 194.53 131.642C194.938 131.414 195.262 131.078 195.502 130.634C195.742 130.19 195.862 129.65 195.862 129.014C195.862 128.066 195.61 127.34 195.106 126.836C194.614 126.32 194.008 126.062 193.288 126.062C192.568 126.062 191.962 126.32 191.47 126.836C190.99 127.34 190.75 128.066 190.75 129.014C190.75 129.962 190.984 130.694 191.452 131.21C191.932 131.714 192.532 131.966 193.252 131.966ZM205.979 123.884C207.167 123.884 208.127 124.262 208.859 125.018C209.591 125.762 209.957 126.806 209.957 128.15V134H207.437V128.492C207.437 127.7 207.239 127.094 206.843 126.674C206.447 126.242 205.907 126.026 205.223 126.026C204.527 126.026 203.975 126.242 203.567 126.674C203.171 127.094 202.973 127.7 202.973 128.492V134H200.453V124.028H202.973V125.27C203.309 124.838 203.735 124.502 204.251 124.262C204.779 124.01 205.355 123.884 205.979 123.884Z" fill="white"/>
<rect x="16" y="24" width="56" height="56" rx="28" fill="#B7B5FF"/>
<path d="M43.5 58.9997V55.4997H44.5V58.9997V59.4997H45H46C46.1326 59.4997 46.2598 59.5524 46.3536 59.6461C46.4473 59.7399 46.5 59.8671 46.5 59.9997V60.4997H47H53.5V61.4997H47H46.5V61.9997C46.5 62.1323 46.4473 62.2595 46.3536 62.3532C46.2598 62.447 46.1326 62.4997 46 62.4997H42C41.8674 62.4997 41.7402 62.447 41.6464 62.3532C41.5527 62.2595 41.5 62.1323 41.5 61.9997V61.4997H41H34.5V60.4997H41H41.5V59.9997C41.5 59.8671 41.5527 59.7399 41.6464 59.6461C41.7402 59.5524 41.8674 59.4997 42 59.4997H43H43.5V58.9997ZM34.5 50.9997C34.5 48.5575 35.4226 46.33 36.9392 44.646L37.6423 45.3491C36.3054 46.8468 35.5 48.8341 35.5 50.9997C35.5 53.1748 36.3055 55.1541 37.6423 56.6503L36.9392 57.3533C35.4226 55.6693 34.5 53.4419 34.5 50.9997ZM51.0608 57.3533L50.3577 56.6503C51.6945 55.1541 52.5 53.1748 52.5 50.9997C52.5 48.8341 51.6946 46.8468 50.3577 45.3491L51.0608 44.646C52.5774 46.33 53.5 48.5575 53.5 50.9997C53.5 53.4419 52.5774 55.6693 51.0608 57.3533ZM38.5 50.9997C38.5 49.6663 38.9771 48.4399 39.7759 47.4827L40.4826 48.1894C39.8698 48.9565 39.5 49.9334 39.5 50.9997C39.5 52.0659 39.8698 53.0429 40.4826 53.81L39.7759 54.5167C38.9771 53.5595 38.5 52.3331 38.5 50.9997ZM48.5 50.9997C48.5 49.9334 48.1302 48.9565 47.5174 48.1894L48.2241 47.4827C49.0229 48.4399 49.5 49.6663 49.5 50.9997C49.5 52.3331 49.0229 53.5595 48.2241 54.5167L47.5174 53.81C48.1302 53.0429 48.5 52.0659 48.5 50.9997ZM42.9393 49.939C43.2206 49.6577 43.6022 49.4997 44 49.4997C44.3978 49.4997 44.7794 49.6577 45.0607 49.939C45.342 50.2203 45.5 50.6019 45.5 50.9997C45.5 51.3975 45.342 51.779 45.0607 52.0603C44.7794 52.3417 44.3978 52.4997 44 52.4997C43.6022 52.4997 43.2206 52.3417 42.9393 52.0603C42.658 51.779 42.5 51.3975 42.5 50.9997C42.5 50.6019 42.658 50.2203 42.9393 49.939Z" fill="#C0BEFE" stroke="white"/>
<circle cx="512.849" cy="66.8483" r="61.771" transform="rotate(140.194 512.849 66.8483)" stroke="url(#paint0_linear_10344_53717)" stroke-width="24"/>
</g>
<defs>
<linearGradient id="paint0_linear_10344_53717" x1="625.109" y1="-152.326" x2="512.848" y2="140.619" gradientUnits="userSpaceOnUse">
<stop stop-color="white" stop-opacity="0.32"/>
<stop offset="1" stop-color="white" stop-opacity="0"/>
</linearGradient>
<clipPath id="clip0_10344_53717">
<rect width="513" height="154" rx="16" fill="white"/>
</clipPath>
</defs>
</svg>
