<svg width="513" height="154" viewBox="0 0 513 154" fill="none" xmlns="http://www.w3.org/2000/svg">
<g clip-path="url(#clip0_10344_53723)">
<rect width="513" height="154" rx="16" fill="#EDB525"/>
<path d="M19.726 121.436V129.212C19.726 130.064 19.948 130.718 20.392 131.174C20.836 131.618 21.46 131.84 22.264 131.84C23.08 131.84 23.71 131.618 24.154 131.174C24.598 130.718 24.82 130.064 24.82 129.212V121.436H27.358V129.194C27.358 130.262 27.124 131.168 26.656 131.912C26.2 132.644 25.582 133.196 24.802 133.568C24.034 133.94 23.176 134.126 22.228 134.126C21.292 134.126 20.44 133.94 19.672 133.568C18.916 133.196 18.316 132.644 17.872 131.912C17.428 131.168 17.206 130.262 17.206 129.194V121.436H19.726ZM32.8768 126.098V130.922C32.8768 131.258 32.9548 131.504 33.1108 131.66C33.2788 131.804 33.5548 131.876 33.9388 131.876H35.1088V134H33.5248C31.4008 134 30.3388 132.968 30.3388 130.904V126.098H29.1508V124.028H30.3388V121.562H32.8768V124.028H35.1088V126.098H32.8768ZM38.3493 122.84C37.9053 122.84 37.5333 122.702 37.2333 122.426C36.9453 122.138 36.8013 121.784 36.8013 121.364C36.8013 120.944 36.9453 120.596 37.2333 120.32C37.5333 120.032 37.9053 119.888 38.3493 119.888C38.7933 119.888 39.1593 120.032 39.4473 120.32C39.7473 120.596 39.8973 120.944 39.8973 121.364C39.8973 121.784 39.7473 122.138 39.4473 122.426C39.1593 122.702 38.7933 122.84 38.3493 122.84ZM39.5913 124.028V134H37.0713V124.028H39.5913ZM44.7511 120.68V134H42.2311V120.68H44.7511ZM48.6688 122.84C48.2248 122.84 47.8528 122.702 47.5528 122.426C47.2648 122.138 47.1208 121.784 47.1208 121.364C47.1208 120.944 47.2648 120.596 47.5528 120.32C47.8528 120.032 48.2248 119.888 48.6688 119.888C49.1128 119.888 49.4788 120.032 49.7668 120.32C50.0668 120.596 50.2168 120.944 50.2168 121.364C50.2168 121.784 50.0668 122.138 49.7668 122.426C49.4788 122.702 49.1128 122.84 48.6688 122.84ZM49.9108 124.028V134H47.3908V124.028H49.9108ZM55.4846 126.098V130.922C55.4846 131.258 55.5626 131.504 55.7186 131.66C55.8866 131.804 56.1626 131.876 56.5466 131.876H57.7166V134H56.1326C54.0086 134 52.9466 132.968 52.9466 130.904V126.098H51.7586V124.028H52.9466V121.562H55.4846V124.028H57.7166V126.098H55.4846ZM69.2191 124.028L63.0451 138.716H60.3631L62.5231 133.748L58.5271 124.028H61.3531L63.9271 130.994L66.5371 124.028H69.2191Z" fill="white"/>
<rect x="16" y="24" width="56" height="56" rx="28" fill="#FAD168"/>
<path d="M46.7488 56.7677L46.5 56.9122V57.2V59C46.5 59.1326 46.4473 59.2598 46.3536 59.3536C46.2598 59.4473 46.1326 59.5 46 59.5H42C41.8674 59.5 41.7402 59.4473 41.6464 59.3536C41.5527 59.2598 41.5 59.1326 41.5 59V57.2V56.9122L41.2512 56.7677C39.6081 55.8131 38.5 54.0338 38.5 52C38.5 50.5413 39.0795 49.1424 40.1109 48.1109C41.1424 47.0795 42.5413 46.5 44 46.5C45.4587 46.5 46.8576 47.0795 47.8891 48.1109C48.9205 49.1424 49.5 50.5413 49.5 52C49.5 54.0338 48.3919 55.8131 46.7488 56.7677ZM42.5 58V58.5H43H45H45.5V58V56.2408C47.2526 55.6257 48.5 53.9551 48.5 52C48.5 50.8065 48.0259 49.6619 47.182 48.818C46.3381 47.9741 45.1935 47.5 44 47.5C42.8065 47.5 41.6619 47.9741 40.818 48.818C39.9741 49.6619 39.5 50.8065 39.5 52C39.5 53.9551 40.7474 55.6257 42.5 56.2408V58ZM52.5 51.5H54.5V52.5H52.5V51.5ZM33.5 51.5H35.5V52.5H33.5V51.5ZM44.5 41.5V43.5H43.5V41.5H44.5ZM36.2067 44.9279L36.9204 44.2092L38.3425 45.6379L37.6304 46.345L36.2067 44.9279ZM50.3708 46.3437L49.6563 45.6292L51.0708 44.2079L51.7921 44.9292L50.3708 46.3437ZM45.5 61.5V62C45.5 62.1326 45.4473 62.2598 45.3536 62.3536C45.2598 62.4473 45.1326 62.5 45 62.5H43C42.8674 62.5 42.7402 62.4473 42.6464 62.3536C42.5527 62.2598 42.5 62.1326 42.5 62V61.5H45.5Z" fill="black" stroke="white"/>
<circle cx="512.848" cy="66.8485" r="61.771" transform="rotate(-21.5124 512.848 66.8485)" stroke="url(#paint0_linear_10344_53723)" stroke-width="24"/>
</g>
<defs>
<linearGradient id="paint0_linear_10344_53723" x1="625.108" y1="-152.326" x2="512.848" y2="140.619" gradientUnits="userSpaceOnUse">
<stop stop-color="white" stop-opacity="0.32"/>
<stop offset="1" stop-color="white" stop-opacity="0"/>
</linearGradient>
<clipPath id="clip0_10344_53723">
<rect width="513" height="154" rx="16" fill="white"/>
</clipPath>
</defs>
</svg>
