<svg width="60" height="60" viewBox="0 0 60 60" fill="none" xmlns="http://www.w3.org/2000/svg">
<rect width="60" height="60" rx="30" fill="#FFFDF3"/>
<path d="M27.3586 24.8524H24.2148V44.843H27.3586V24.8524Z" fill="#FEC93E"/>
<path d="M27.8981 28.1171H23.6767C23.3655 28.1171 23.1133 27.8648 23.1133 27.5536V25.6401H28.4616V27.5536C28.4616 27.8649 28.2093 28.1171 27.8981 28.1171Z" fill="#F7A738"/>
<path d="M28.4616 44.1013H23.1133V42.1878C23.1133 41.8767 23.3655 41.6244 23.6767 41.6244H27.8981C28.2093 41.6244 28.4616 41.8767 28.4616 42.1878V44.1013Z" fill="#F7A738"/>
<path d="M35.7844 24.8524H32.6406V44.843H35.7844V24.8524Z" fill="#FEC93E"/>
<path d="M36.3239 28.1171H32.1025C31.7913 28.1171 31.5391 27.8648 31.5391 27.5536V25.6401H36.8873V27.5536C36.8873 27.8649 36.6351 28.1171 36.3239 28.1171Z" fill="#F7A738"/>
<path d="M36.8873 44.1013H31.5391V42.1878C31.5391 41.8767 31.7913 41.6244 32.1025 41.6244H36.3239C36.6351 41.6244 36.8873 41.8767 36.8873 42.1878V44.1013Z" fill="#F7A738"/>
<path d="M44.2062 24.8524H41.0625V44.843H44.2062V24.8524Z" fill="#FEC93E"/>
<path d="M44.7458 28.1171H40.5244C40.2132 28.1171 39.9609 27.8648 39.9609 27.5536V25.6401H45.3092V27.5536C45.3092 27.8649 45.0569 28.1171 44.7458 28.1171Z" fill="#F7A738"/>
<path d="M45.3092 44.1013H39.9609V42.1878C39.9609 41.8767 40.2132 41.6244 40.5244 41.6244H44.7458C45.0569 41.6244 45.3092 41.8767 45.3092 42.1878V44.1013Z" fill="#F7A738"/>
<path d="M18.9367 24.8524H15.793V44.843H18.9367V24.8524Z" fill="#FEC93E"/>
<path d="M19.4763 28.1171H15.2548C14.9437 28.1171 14.6914 27.8648 14.6914 27.5536V25.6401H20.0397V27.5536C20.0397 27.8649 19.7875 28.1171 19.4763 28.1171Z" fill="#F7A738"/>
<path d="M20.0397 44.1013H14.6914V42.1878C14.6914 41.8767 14.9437 41.6244 15.2548 41.6244H19.4762C19.7874 41.6244 20.0397 41.8767 20.0397 42.1878V44.1013Z" fill="#F7A738"/>
<path d="M47.5862 25.6402H12.4141C12.1098 25.6402 11.8633 25.3935 11.8633 25.0894V22.7365C11.8633 22.4323 12.1099 22.1857 12.4141 22.1857H47.5861C47.8903 22.1857 48.1369 22.4324 48.1369 22.7365V25.0894C48.137 25.3935 47.8904 25.6402 47.5862 25.6402Z" fill="#FEC93E"/>
<path d="M47.5872 22.1857H43.7852V25.6402H47.5872C47.8914 25.6402 48.138 25.3936 48.138 25.0894V22.7365C48.138 22.4323 47.8914 22.1857 47.5872 22.1857Z" fill="#EFB635"/>
<path d="M48.479 46.4976H11.5195V44.9437C11.5195 44.4784 11.8966 44.1013 12.3619 44.1013H47.6367C48.102 44.1013 48.4791 44.4784 48.4791 44.9437V46.4976H48.479Z" fill="#FEC93E"/>
<path d="M47.6355 44.1013H44.125V46.4976H48.4778V44.9437C48.4779 44.4784 48.1008 44.1013 47.6355 44.1013Z" fill="#EFB635"/>
<path d="M49.7105 48.8938H10.2894C10.1295 48.8938 10 48.7642 10 48.6044V47.3399C10 46.8747 10.3771 46.4976 10.8423 46.4976H49.1577C49.6229 46.4976 50 46.8747 50 47.3399V48.6044C49.9999 48.7643 49.8703 48.8938 49.7105 48.8938Z" fill="#F7A738"/>
<path d="M49.1584 46.4976H45.668V48.8938H49.7112C49.8711 48.8938 50.0006 48.7642 50.0006 48.6043V47.3398C50.0007 46.8747 49.6236 46.4976 49.1584 46.4976Z" fill="#E8932E"/>
<path d="M30.0215 11.1748L10.2254 21.5592C10.1156 21.6168 10.0469 21.7304 10.0469 21.8543V22.9177C10.0469 23.1018 10.1961 23.251 10.3802 23.251H49.6207C49.8048 23.251 49.954 23.1018 49.954 22.9177V21.8514C49.954 21.729 49.8869 21.6164 49.7792 21.5582L30.5852 11.1783C30.4096 11.0834 30.1983 11.0821 30.0215 11.1748Z" fill="#F7A738"/>
<path d="M49.7799 21.5583L30.5859 11.1784C30.4103 11.0835 30.199 11.0821 30.0222 11.1748L26.5898 12.9753L45.5913 23.251H49.6214C49.8054 23.251 49.9546 23.1018 49.9546 22.9177V21.8514C49.9546 21.7291 49.8875 21.6165 49.7799 21.5583Z" fill="#E8932E"/>
</svg>
