<svg width="60" height="60" viewBox="0 0 60 60" fill="none" xmlns="http://www.w3.org/2000/svg">
<rect width="60" height="60" rx="30" fill="#FFFDF3"/>
<g clip-path="url(#clip0_10837_60533)">
<path d="M46.1721 16.618C45.8243 15.9468 45.2451 15.4244 44.5416 15.1477C39.8541 13.3297 35.2447 11.5945 30.751 10.1141C30.2946 9.96182 29.8011 9.96182 29.3447 10.1141C24.8518 11.5906 20.2432 13.3227 15.5565 15.1383C14.9388 15.3839 14.4155 15.8202 14.0627 16.3836C14.0885 16.3875 13.0987 19.4773 12.9307 26.3055C12.8268 33.125 13.6768 35.1711 13.6487 35.1734C14.108 36.6727 14.969 38.1992 16.2033 39.7508C17.5822 41.4836 19.4455 43.2734 21.6955 45.0336C25.4221 47.9578 28.9088 49.7055 29.0549 49.7672C29.3647 49.9209 29.7059 50.0008 30.0518 50.0008C30.3976 50.0008 30.7388 49.9209 31.0487 49.7672C31.1955 49.7055 34.6862 47.9523 38.4104 45.0289C40.6612 43.268 42.5252 41.4781 43.9049 39.7461C45.2268 38.0844 46.1205 36.4539 46.5526 34.8523C46.5354 34.8523 47.1604 32.3438 47.0737 26.6C46.9635 20.8594 46.1635 16.6211 46.1721 16.618Z" fill="#2AD352"/>
<path d="M30.0518 9.99994C29.8129 9.99986 29.5755 10.0381 29.3487 10.1132C24.8557 11.5898 20.2471 13.3218 15.5604 15.1374C14.9411 15.3826 14.4164 15.8192 14.0627 16.3835C14.0885 16.3874 13.0987 19.4773 12.9307 26.3054C12.8268 33.1249 13.6768 35.171 13.6487 35.1734C14.108 36.6726 14.969 38.1992 16.2033 39.7507C16.5617 40.2012 16.9523 40.6557 17.3752 41.114C18.0362 41.1739 18.7052 41.2044 19.3822 41.2054C31.4049 41.2054 41.1518 31.4585 41.1518 19.4359C41.1533 17.442 40.8812 15.4573 40.3432 13.5374C37.0979 12.3109 33.8963 11.1499 30.7518 10.114C30.526 10.039 30.2897 10.0005 30.0518 9.99994Z" fill="#74DA7F"/>
<path d="M39.8428 26.118C36.5357 29.5235 33.1365 33.0891 29.8053 36.6086C29.5349 36.8957 29.2086 37.1244 28.8465 37.2806C28.4844 37.4369 28.0942 37.5174 27.6998 37.5172H27.6865C27.2918 37.5127 26.9019 37.4296 26.5398 37.2726C26.1776 37.1157 25.8503 36.8881 25.5771 36.6031C23.7935 34.7571 21.9974 32.9149 20.2131 31.1078C19.0717 29.9547 19.1068 28.1391 20.2865 27.0117C21.4662 25.8844 23.3256 25.8781 24.4537 27.036C25.5141 28.1219 26.5784 29.2156 27.6467 30.3172C30.2935 27.5406 32.9506 24.7422 35.5373 22.0235C36.6365 20.8664 38.474 20.8805 39.6701 22.0235C40.8662 23.1664 40.9506 24.9766 39.8428 26.118Z" fill="white"/>
</g>
<defs>
<clipPath id="clip0_10837_60533">
<rect width="40" height="40" fill="white" transform="translate(10 10)"/>
</clipPath>
</defs>
</svg>
