<svg width="80" height="80" viewBox="0 0 80 80" fill="none" xmlns="http://www.w3.org/2000/svg">
<g clip-path="url(#clip0_12166_59867)">
<path d="M29.8498 52.1794C29.6934 52.1794 29.5376 52.1703 29.3831 52.1519C27.9828 51.9847 26.8685 51.1213 26.2456 49.721C25.979 49.1216 26.2488 48.4195 26.8482 48.1531C27.4473 47.8869 28.1495 48.1564 28.4162 48.7556C28.6931 49.3783 29.1131 49.7275 29.6648 49.7931C30.3128 49.87 31.0809 49.5422 31.4892 49.0119C31.8637 48.5256 31.999 47.843 31.8425 47.2305C31.7425 46.8394 31.4782 46.3092 30.7873 46.0056C28.7292 45.1008 26.3849 45.9678 23.6704 46.9711C18.754 48.7889 12.6349 51.0513 5.83204 42.9626L3.01468 39.6128C2.44718 38.9383 2.17718 38.0829 2.25406 37.2047C2.33093 36.3265 2.74578 35.5314 3.42172 34.9657C5.25532 33.4314 7.72658 32.8929 10.0322 33.5259L11.4153 33.9056C12.151 34.1073 12.9388 33.935 13.5227 33.4437L17.2754 30.2873C17.7774 29.8654 18.5266 29.9298 18.9488 30.4318C19.371 30.9339 19.3063 31.6829 18.8044 32.1053L15.0516 35.2617C13.8699 36.2554 12.2755 36.6043 10.7864 36.1961L9.40346 35.8164C7.84892 35.3897 6.18267 35.7526 4.9461 36.7873C4.7575 36.9451 4.64188 37.1668 4.62047 37.4118C4.59891 37.6568 4.67422 37.8954 4.8325 38.0837L7.64986 41.4336C13.3775 48.2436 17.9769 46.5431 22.8465 44.743C25.7763 43.6597 28.8059 42.5395 31.7431 43.8306C32.9651 44.3678 33.8178 45.3663 34.1437 46.642C34.482 47.9658 34.1932 49.3933 33.3711 50.4611C32.5532 51.5235 31.1834 52.1794 29.8498 52.1794Z" fill="#A55E14"/>
<path d="M52.1064 33.4236C51.4824 33.4237 50.856 33.2948 50.2746 33.0354C49.072 32.4989 48.2315 31.4903 47.9081 30.1953C47.1304 27.0828 48.7451 24.2851 50.3067 21.5798C52.902 17.0835 55.3532 12.8363 49.6059 6.04283L46.7787 2.7011C46.6198 2.51344 46.3974 2.39906 46.1523 2.37891C45.9074 2.35797 45.669 2.43531 45.4818 2.59469C44.2537 3.63891 43.6151 5.22033 43.7737 6.82471L43.9148 8.2519C44.0665 9.78847 43.4535 11.3013 42.2748 12.2985L38.5312 15.4657C38.0304 15.8897 37.281 15.8269 36.8572 15.326C36.4335 14.8252 36.496 14.0758 36.9968 13.6522L40.7404 10.485C41.3229 9.99238 41.6257 9.24487 41.5507 8.4855L41.4096 7.0583C41.1744 4.67892 42.1215 2.33391 43.9429 0.784996C44.6145 0.214056 45.4684 -0.0611014 46.3466 0.0113989C47.2252 0.0835867 48.0226 0.493901 48.592 1.16687L51.4192 4.50876C58.2454 12.5774 54.9842 18.2274 52.3639 22.7674C50.9171 25.2738 49.6678 27.4387 50.2126 29.6198C50.3954 30.352 50.8735 30.7018 51.2423 30.8662C51.8198 31.1239 52.5154 31.1054 53.0579 30.8182C53.6493 30.5053 54.1025 29.8043 54.1354 29.1517C54.1634 28.597 53.8901 28.124 53.3231 27.746C52.7773 27.3821 52.6296 26.6448 52.9934 26.099C53.3571 25.5532 54.0947 25.4057 54.6404 25.7693C55.9159 26.6193 56.579 27.8632 56.5079 29.2717C56.4331 30.7515 55.4934 32.217 54.1693 32.9178C53.5332 33.2542 52.8214 33.4236 52.1064 33.4236Z" fill="#A55E14"/>
<path d="M53.955 71.9751L46.4836 72.512L39.4568 79.7264C39.2865 79.9012 39.0526 79.9999 38.8084 79.9999H13.7623C12.898 79.9999 12.5255 78.9042 13.2106 78.3773L36.1457 60.7424L43.52 48.4509C44.7561 46.3906 47.614 46.0726 49.2728 47.8108L63.1099 58.4113C65.2013 60.0135 65.3308 63.1188 63.3802 64.8897L57.5642 70.1694C56.5511 71.1016 55.2977 71.7285 53.955 71.9751Z" fill="#BA7211"/>
<path d="M63.11 58.4114L59.727 55.8197C60.0907 57.2686 59.6822 58.8817 58.4714 59.981L52.6554 65.2607C51.6423 66.1927 50.3888 66.8196 49.046 67.0662L41.5746 67.603L29.5 80H38.8083C39.0525 80 39.2863 79.9014 39.4568 79.7264L46.4837 72.512L53.9551 71.9751C55.2979 71.7285 56.5512 71.1016 57.5645 70.1696L63.3804 64.8899C65.3311 63.119 65.2015 60.0136 63.11 58.4114Z" fill="#392816"/>
<path d="M52.5788 52.3789L53.975 53.8808C53.1889 53.9647 52.3834 53.6978 51.8134 53.0847L50.543 51.7181C51.2733 51.5838 52.0453 51.8052 52.5788 52.3789Z" fill="#E8D06B"/>
<path d="M70.5657 65.2323L61.6947 72.6932L38.3076 40.7063L42.9115 36.8341L70.5657 65.2323Z" fill="#0E141C"/>
<path d="M10.1572 27.6175L17.8002 36.7049C23.2201 43.1491 31.7587 46.3157 40.8027 45.2352L46.1652 44.5946L47.7155 39.4211C50.33 30.6961 48.6739 21.7412 43.2539 15.297L35.6109 6.20959L10.1572 27.6175Z" fill="#C8662F"/>
<path d="M43.2534 15.2971L35.6104 6.20972L30.1504 10.8019L38.2089 20.3416C43.6287 26.7859 45.285 35.7408 42.6704 44.4658L42.5006 45.0324L46.1647 44.5947L47.715 39.4212C50.3294 30.6964 48.6733 21.7415 43.2534 15.2971Z" fill="#0E141C"/>
<path d="M38.0161 7.17181L10.6918 30.1528C10.2939 30.4875 9.69979 30.4363 9.3651 30.0383L7.63603 27.9824C7.30134 27.5844 7.35259 26.9903 7.75056 26.6556L35.0749 3.6746C35.4729 3.33992 36.0669 3.39117 36.4016 3.78914L38.1307 5.84508C38.4655 6.24305 38.4143 6.83696 38.0161 7.17181Z" fill="#FFB125"/>
<path d="M38.131 5.84508L36.402 3.78914C36.0673 3.39117 35.4732 3.33992 35.0753 3.6746L30.248 7.73446L33.1893 11.2317L38.0165 7.17181C38.4146 6.83696 38.4659 6.24305 38.131 5.84508Z" fill="#A55E14"/>
<path d="M29.5463 24.5453L34.4367 26.6885C34.4993 26.716 34.5717 26.7109 34.6298 26.6748L39.1678 23.8614C39.3144 23.7706 39.5014 23.8871 39.4844 24.0587L38.9572 29.372C38.9504 29.4401 38.9776 29.5073 39.0298 29.5514L43.1078 32.9978C43.2395 33.109 43.1864 33.3231 43.018 33.36L37.8018 34.5005C37.735 34.5151 37.6795 34.5617 37.6537 34.6251L35.6361 39.5686C35.5709 39.7283 35.3509 39.7439 35.2639 39.595L32.5673 34.9865C32.5328 34.9275 32.4712 34.8892 32.4029 34.8842L27.0779 34.493C26.9059 34.4803 26.8231 34.2759 26.9377 34.1472L30.4873 30.1586C30.5328 30.1075 30.5503 30.0372 30.5339 29.9706L29.2604 24.7853C29.2196 24.6181 29.3884 24.476 29.5463 24.5453Z" fill="white"/>
<path d="M77.2069 64.591L60.5439 78.6055C59.8206 79.2139 58.7254 79.037 58.2304 78.2319L55.4763 73.7526C55.0749 73.1 55.212 72.2517 55.7984 71.7586L71.2745 58.7424C71.8609 58.2493 72.72 58.2596 73.2944 58.7669L77.2353 62.2481C77.9438 62.8735 77.9303 63.9826 77.2069 64.591Z" fill="#FFB125"/>
<path d="M77.2361 62.2478L73.2951 58.7667C72.7209 58.2595 71.8617 58.249 71.2753 58.7421L66.7598 62.5399L73.0451 68.0918L77.2076 64.591C77.9311 63.9826 77.9445 62.8735 77.2361 62.2478Z" fill="#A55E14"/>
<path d="M60.351 64.6436C61.4796 65.8594 63.3802 65.9297 64.5956 64.8007L68.3546 61.3085C69.5693 60.18 69.6396 58.2807 68.5115 57.0655C67.3829 55.8497 65.4823 55.7794 64.267 56.9085L60.5079 60.4007C59.2932 61.5291 59.2229 63.4285 60.351 64.6436Z" fill="#392816"/>
<path d="M60.5079 60.4005L64.267 56.9083C65.4823 55.7793 67.3829 55.8496 68.5115 57.0654C69.1659 57.7704 69.4162 58.7055 69.2745 59.5869C68.1311 58.6126 66.4139 58.6271 65.2862 59.6746L61.5271 63.1668C61.0171 63.6406 60.7098 64.2504 60.6071 64.8882C60.5182 64.8124 60.4323 64.7313 60.3509 64.6437C59.2229 63.4285 59.2932 61.5291 60.5079 60.4005Z" fill="#BA7211"/>
<path d="M57.3397 59.2247C58.4853 60.4588 60.4147 60.5302 61.6483 59.3841L65.341 55.9536C66.5739 54.8082 66.6453 52.88 65.5002 51.6466C64.3545 50.4125 62.4252 50.3411 61.1916 51.4872L57.4989 54.9177C56.2659 56.0632 56.1945 57.9911 57.3397 59.2247Z" fill="#392816"/>
<path d="M57.4989 54.9176L61.1916 51.4871C62.4253 50.341 64.3545 50.4124 65.5002 51.6465C66.1564 52.3535 66.4124 53.2885 66.2799 54.1738C65.1192 53.1637 63.3595 53.1715 62.2069 54.2423L58.5142 57.6727C57.988 58.1616 57.6741 58.7934 57.5753 59.4526C57.4937 59.3817 57.4148 59.3059 57.3397 59.2248C56.1945 57.9912 56.2659 56.0632 57.4989 54.9176Z" fill="#BA7211"/>
<path d="M53.1707 54.7958C54.3163 56.0299 56.2457 56.1013 57.4793 54.9552L61.172 51.5247C62.4049 50.3792 62.4763 48.4511 61.3312 47.2176C60.1855 45.9836 58.2562 45.9122 57.0226 47.0583L53.3299 50.4887C52.0969 51.6344 52.0257 53.5623 53.1707 54.7958Z" fill="#392816"/>
<path d="M53.33 50.4887L57.0227 47.0583C58.2564 45.9122 60.1857 45.9836 61.3313 47.2176C61.4104 47.3028 61.483 47.3915 61.5505 47.4828C60.8805 47.5298 60.2216 47.7969 59.6911 48.2897L55.9985 51.7202C54.8505 52.7866 54.71 54.5311 55.62 55.762C54.7316 55.8244 53.8239 55.4994 53.1708 54.7958C52.0256 53.5623 52.0969 51.6344 53.33 50.4887Z" fill="#BA7211"/>
<path d="M49.157 50.2012C50.3026 51.4353 52.232 51.5067 53.4656 50.3606L57.1583 46.9301C58.3913 45.7846 58.4627 43.8565 57.3175 42.623C56.1719 41.389 54.2425 41.3176 53.0089 42.4637L49.3162 45.8941C48.0832 47.0396 48.012 48.9677 49.157 50.2012Z" fill="#392816"/>
<path d="M49.3162 45.8941L53.0089 42.4637C54.2426 41.3176 56.1719 41.389 57.3175 42.623C57.9731 43.3293 58.2292 44.2632 58.0977 45.1476C56.937 44.1355 55.1759 44.1427 54.0225 45.2143L50.3298 48.6448C49.8028 49.1345 49.4887 49.7671 49.3904 50.4273C49.3097 50.3568 49.2315 50.2817 49.157 50.2013C48.012 48.9677 48.0832 47.0396 49.3162 45.8941Z" fill="#BA7211"/>
<path d="M56.2123 52.5341L55.5275 53.1703C54.4501 54.1712 52.7875 54.133 51.8131 53.085L50.089 51.2305C49.2451 50.3226 47.8034 50.2944 46.8759 51.1673C47.3949 59.1983 36.1455 60.7428 36.1455 60.7428L40.9269 48.9819C41.2218 48.1045 41.7319 47.3097 42.4101 46.6714L45.8059 43.4754C47.4568 41.9217 50.0228 41.971 51.5262 43.5859L56.3978 48.8184C57.3745 49.867 57.2914 51.5316 56.2123 52.5341Z" fill="#BA7211"/>
</g>
<defs>
<clipPath id="clip0_12166_59867">
<rect width="80" height="80" fill="white"/>
</clipPath>
</defs>
</svg>
