<svg width="186" height="186" viewBox="0 0 186 186" fill="none" xmlns="http://www.w3.org/2000/svg">
<rect width="186" height="186" rx="93" fill="#EFEFEF"/>
<g clip-path="url(#clip0_11185_49471)">
<path d="M147 67.5001C147.001 55.423 137.211 45.632 125.134 45.632C113.058 45.632 103.267 55.4221 103.268 67.4992C103.268 79.5753 113.058 89.3654 125.135 89.3644C130.943 89.3959 136.523 87.1024 140.63 82.9956C144.738 78.8879 147.031 73.3082 147 67.5001Z" fill="#B6C3CF"/>
<path d="M133.008 63.9322C132.36 64.5798 131.31 64.5798 130.663 63.9322L126.793 60.0622V78.9383C126.793 79.8542 126.051 80.5962 125.135 80.5962C124.219 80.5962 123.477 79.8542 123.477 78.9383V60.0622L119.61 63.9313C118.962 64.5789 117.912 64.5789 117.264 63.9313C116.618 63.2836 116.618 62.2336 117.264 61.586L123.962 54.8859C124.273 54.5751 124.695 54.4002 125.136 54.4002C125.575 54.4002 125.997 54.5751 126.308 54.8859L133.008 61.586C133.32 61.8968 133.494 62.3187 133.494 62.7591C133.494 63.1994 133.319 63.6213 133.008 63.9322Z" fill="#353E4A"/>
<path d="M79.8796 106.135C79.8787 107.725 79.3162 109.263 78.2902 110.477C77.2567 111.703 75.8311 112.533 74.2546 112.824L64.248 114.702L66.1567 104.859C66.6803 102.369 68.5204 100.361 70.9555 99.625C73.3914 98.8876 76.0355 99.538 77.8516 101.321C79.1487 102.587 79.8796 104.323 79.8796 106.135Z" fill="#353E4A"/>
<path d="M62.055 104.859L63.9636 114.703L53.957 112.824C50.7162 112.24 48.3524 109.429 48.332 106.136C48.332 104.323 49.0629 102.588 50.36 101.321C52.1363 99.5873 54.6971 98.9221 57.0933 99.5706C59.6172 100.249 61.5387 102.297 62.055 104.859Z" fill="#353E4A"/>
<path d="M64.1055 114.791H143.211V130.659C143.211 135.891 138.969 140.133 133.737 140.133H64.1055V114.791Z" fill="#353E4A"/>
<path d="M143.211 79.8018V114.791H64.1055V61.6196H104.072C101.196 71.9333 106.211 82.8132 115.923 87.3253C125.634 91.8363 137.183 88.6519 143.211 79.8018ZM78.2901 110.477C80.5669 107.782 80.3763 103.786 77.8515 101.321C76.0354 99.5383 73.3913 98.8879 70.9554 99.6253C68.5203 100.362 66.6802 102.369 66.1566 104.859L64.2479 114.703L74.2545 112.825C75.831 112.533 77.2566 111.703 78.2901 110.477Z" fill="#212A36"/>
<path d="M64.1052 114.791V140.133H48.4737C43.2419 140.133 39 135.891 39 130.659V114.791H64.1052Z" fill="#353E4A"/>
<path d="M64.1052 61.6196V114.791H39V71.0933C39 65.8606 43.2419 61.6196 48.4737 61.6196H64.1052ZM63.9627 114.703L62.0541 104.859C61.5379 102.297 59.6163 100.249 57.0925 99.5707C54.6963 98.9222 52.1354 99.5873 50.3591 101.321C49.0621 102.588 48.3312 104.323 48.3312 106.136C48.3515 109.429 50.7153 112.24 53.9562 112.825L63.9627 114.703Z" fill="#353E4A"/>
<path d="M79.5578 111.545C82.3934 108.188 82.1556 103.211 79.0138 100.139C76.7619 97.9285 73.4823 97.1236 70.4634 98.0423C67.4446 98.9601 65.1678 101.454 64.5285 104.544L64.1057 106.728L63.682 104.543C63.0464 101.363 60.6632 98.8167 57.5315 97.972C54.5655 97.1662 51.3949 97.9905 49.1977 100.139C47.5805 101.714 46.6701 103.878 46.6738 106.136C46.697 110.226 49.6279 113.72 53.6514 114.454L60.7631 115.789L52.2757 124.275C51.6281 124.923 51.6281 125.973 52.2757 126.621C52.9233 127.268 53.9724 127.268 54.6201 126.621L64.1057 117.135L76.3151 129.344C76.9627 129.992 78.0118 129.992 78.6595 129.344C79.3071 128.697 79.3071 127.647 78.6595 127L67.4483 115.789L74.5591 114.455C76.5112 114.09 78.2774 113.062 79.5578 111.545ZM49.9896 106.136C49.9887 104.767 50.541 103.457 51.5217 102.503C52.8798 101.18 54.8356 100.674 56.6656 101.172C58.576 101.687 60.0322 103.235 60.4273 105.174L61.8715 112.623L54.262 111.194C51.8076 110.755 50.0127 108.63 49.9896 106.136ZM66.34 112.623L67.7842 105.175C68.1922 103.284 69.5956 101.764 71.4478 101.209C73.3009 100.653 75.3085 101.149 76.6898 102.503C78.5965 104.361 78.7418 107.378 77.021 109.411C76.2337 110.341 75.1485 110.972 73.9495 111.194L66.34 112.623Z" fill="#B6C3CF"/>
</g>
<defs>
<clipPath id="clip0_11185_49471">
<rect width="108" height="108" fill="white" transform="translate(39 39)"/>
</clipPath>
</defs>
</svg>
