<svg width="85" height="36" viewBox="0 0 85 36" fill="none" xmlns="http://www.w3.org/2000/svg">
<path d="M2.47546 31.9496L0.75 30.3571V34.5C0.75 35.0523 1.19772 35.5 1.75 35.5H83.75C84.3023 35.5 84.75 35.0523 84.75 34.5V18.5714L83.4239 22.9775C83.3635 23.1779 83.2418 23.3543 83.0759 23.482L81.9711 24.3316C81.4042 24.7677 80.576 24.4848 80.3943 23.793L78.7027 17.3531C78.5872 16.9136 78.1899 16.6071 77.7355 16.6071H77.0243C76.5622 16.6071 76.1602 16.2905 76.0521 15.8412L75.3405 12.8859C75.1487 12.0896 74.088 11.9263 73.6656 12.628C73.4999 12.9031 73.2022 13.0714 72.881 13.0714H69.3231C69.0283 13.0714 68.7485 12.9413 68.5584 12.7159L67.9486 11.9922C67.4614 11.4141 66.5337 11.5648 66.2546 12.2674L64.8981 15.6816C64.5393 16.5848 63.2333 16.4971 62.9984 15.5541L60.9914 7.49666C60.9399 7.29001 60.8238 7.10519 60.66 6.96912L58.4554 5.13795C58.2153 4.9385 57.8958 4.86262 57.5916 4.9328L55.436 5.43015C54.986 5.53399 54.5234 5.31612 54.3168 4.90304L53.0006 2.27112C52.6337 1.53738 51.588 1.53329 51.2153 2.26414L49.4567 5.71318C49.1556 6.30355 48.3053 6.28337 48.0326 5.67938C47.7493 5.05177 46.8546 5.06174 46.5853 5.69551L45.486 8.28246C45.1258 9.13012 43.9083 9.08139 43.617 8.20766L42.0829 3.60633C41.7708 2.67006 40.435 2.70401 40.1708 3.65492L38.4129 9.98198C38.2927 10.4148 37.8986 10.7143 37.4494 10.7143H36.9717C36.5279 10.7143 36.1371 11.0068 36.0121 11.4327L32.5821 23.1209C32.5501 23.23 32.4998 23.3328 32.4332 23.4249L28.7511 28.5223C28.3677 29.0531 27.5861 29.0783 27.1693 28.5734L26.1986 27.3976C25.9165 27.0559 25.4432 26.9406 25.0356 27.1142L22.559 28.1691C22.2335 28.3078 22.0055 28.6081 21.9594 28.9589L21.5805 31.8445C21.5151 32.3422 21.0909 32.7143 20.589 32.7143H18.9217C18.5646 32.7143 18.2345 32.5238 18.0559 32.2146L15.7632 28.2473C15.3878 27.5977 14.4573 27.5775 14.0541 28.2101L11.4178 32.3462C11.054 32.9171 10.2399 32.969 9.80641 32.449L7.25029 29.3822C6.83233 28.8807 6.05376 28.9077 5.6715 29.4369L3.9643 31.8003C3.61317 32.2864 2.91613 32.3563 2.47546 31.9496Z" fill="url(#paint0_linear_11074_10922)"/>
<path d="M0.75 30.3571L2.47546 31.9496C2.91613 32.3563 3.61317 32.2864 3.9643 31.8003L5.6715 29.4369C6.05376 28.9077 6.83233 28.8807 7.25029 29.3822L9.80641 32.449C10.2399 32.969 11.054 32.9171 11.4178 32.3462L14.0541 28.2101C14.4573 27.5775 15.3878 27.5977 15.7632 28.2473L18.0559 32.2146C18.2345 32.5238 18.5646 32.7143 18.9217 32.7143H20.589C21.0909 32.7143 21.5151 32.3422 21.5805 31.8445L21.9594 28.9589C22.0055 28.6081 22.2335 28.3078 22.559 28.1691L25.0356 27.1142C25.4432 26.9406 25.9165 27.0559 26.1986 27.3976L27.1693 28.5734C27.5861 29.0783 28.3677 29.0531 28.7511 28.5223L32.4332 23.4249C32.4998 23.3328 32.5501 23.23 32.5821 23.1209L36.0121 11.4327C36.1371 11.0068 36.5279 10.7143 36.9717 10.7143H37.4494C37.8986 10.7143 38.2927 10.4148 38.4129 9.98198L40.1708 3.65492C40.435 2.70401 41.7708 2.67006 42.0829 3.60633L43.617 8.20766C43.9083 9.08139 45.1258 9.13012 45.486 8.28246L46.5853 5.69551C46.8546 5.06174 47.7493 5.05177 48.0326 5.67938V5.67938C48.3053 6.28337 49.1556 6.30355 49.4567 5.71318L51.2153 2.26414C51.588 1.53329 52.6337 1.53738 53.0006 2.27112L54.3168 4.90304C54.5234 5.31612 54.986 5.53399 55.436 5.43015L57.5916 4.9328C57.8958 4.86262 58.2153 4.9385 58.4554 5.13795L60.66 6.96912C60.8238 7.10519 60.9399 7.29001 60.9914 7.49666L62.9984 15.5541C63.2333 16.4971 64.5393 16.5848 64.8981 15.6816L66.2546 12.2674C66.5337 11.5648 67.4614 11.4141 67.9486 11.9922L68.5584 12.7159C68.7485 12.9413 69.0283 13.0714 69.3231 13.0714H72.881C73.2022 13.0714 73.4999 12.9031 73.6656 12.628V12.628C74.088 11.9263 75.1487 12.0896 75.3405 12.8859L76.0521 15.8412C76.1602 16.2905 76.5622 16.6071 77.0243 16.6071H77.7355C78.1899 16.6071 78.5872 16.9136 78.7027 17.3531L80.3943 23.793C80.576 24.4848 81.4042 24.7677 81.9711 24.3316L83.0302 23.5171C83.2241 23.368 83.3565 23.1531 83.4027 22.913L84.25 18.5" stroke="#40BF6A" stroke-linecap="round"/>
<defs>
<linearGradient id="paint0_linear_11074_10922" x1="42.75" y1="0.5" x2="42.75" y2="35.5" gradientUnits="userSpaceOnUse">
<stop stop-color="#40BF6A" stop-opacity="0.2"/>
<stop offset="1" stop-color="#40BF6A" stop-opacity="0"/>
</linearGradient>
</defs>
</svg>
