<svg xmlns="http://www.w3.org/2000/svg" width="80" height="80" viewBox="0 0 80 80" fill="none">
  <g clip-path="url(#clip0_12010_57471)">
    <path d="M66.1903 51.9557C66.1917 51.3517 66.0248 50.7601 65.7076 50.2457L62.6325 45.2953C62.2492 44.534 62.0506 43.6929 62.0532 42.8407V27.5892C62.0532 17.6882 54.0277 9.6626 44.1266 9.6626H35.8527C25.9517 9.6626 17.9261 17.6882 17.9261 27.5892V42.8407C17.9289 43.6929 17.7303 44.5342 17.3469 45.2953L14.2717 50.2457C13.9545 50.7601 13.7877 51.3517 13.7891 51.9557C13.7959 53.7277 15.2302 55.1618 17.002 55.1687H62.977C64.7492 55.1618 66.1834 53.7276 66.1903 51.9557Z" fill="#88B337"/>
    <path d="M44.1257 9.66254L51.0205 0.00976562H28.957L35.8518 9.66254V12.4205H44.1257V9.66254Z" fill="#88B337"/>
    <path d="M65.7081 50.2457L62.633 45.2952C62.2497 44.534 62.0511 43.6929 62.0538 42.8407V27.5892C62.0635 23.5956 60.7383 19.7125 58.2893 16.5574C54.6074 36.8421 41.6451 48.5358 29.4688 55.1686H62.9778C64.7594 55.1755 66.2102 53.7372 66.217 51.9543C66.2199 51.3502 66.053 50.7586 65.7358 50.2457H65.7081Z" fill="#6B962A"/>
    <path d="M46.8831 30.3471V29.4646C46.8762 26.9093 44.805 24.8382 42.2497 24.8312H41.3672V22.0732H38.6092V24.8312H37.7267C35.1674 24.8229 33.0864 26.8899 33.0782 29.4493C33.0713 31.3923 34.2778 33.1326 36.0995 33.8082L38.6092 34.7458V39.9997H37.7267C36.6911 39.9997 35.8513 39.1599 35.8513 38.1243V37.2418H33.0933V38.1243C33.1002 40.6796 35.1714 42.7507 37.7267 42.7577H42.2498C44.8092 42.766 46.8901 40.699 46.8984 38.1396C46.9053 36.1966 45.6987 34.4563 43.877 33.7807L41.3673 32.843V27.5892H42.2498C43.2855 27.5892 44.1253 28.429 44.1253 29.4646V30.3471H46.8831ZM42.9117 36.3594C43.6398 36.6421 44.1211 37.3427 44.1251 38.1246C44.1251 39.1602 43.2853 40 42.2497 40H41.3672V35.7804L42.9117 36.3594ZM38.6094 31.8088L37.0649 31.2296C36.3367 30.947 35.8555 30.2463 35.8514 29.4645C35.8514 28.4288 36.6913 27.589 37.7269 27.589H38.6094V31.8088Z" fill="white"/>
    <path d="M67.5706 13.7994C67.1017 10.9697 64.8844 8.7524 62.0547 8.28349C64.8844 7.81459 67.1017 5.59725 67.5706 2.76758C68.0395 5.59725 70.2568 7.81459 73.0865 8.28349C70.2568 8.7524 68.0395 10.9699 67.5706 13.7994Z" fill="#FDB62F"/>
    <path d="M5.51592 41.3788C5.04701 38.5493 2.82968 36.3318 0 35.8631C2.82968 35.3942 5.04701 33.1768 5.51592 30.3472C5.98482 33.1768 8.20216 35.3942 11.0318 35.8631C8.20216 36.3318 5.98466 38.5493 5.51592 41.3788Z" fill="#FDB62F"/>
    <path d="M79.3871 48.1222C78.2549 46.2164 75.8224 45.5422 73.8711 46.5915L54.3036 54.9481C53.9589 55.0942 53.5879 55.1701 53.2142 55.1687H28.958C27.4343 55.1687 26.2001 53.9345 26.2001 52.4107C26.2001 50.887 27.4343 49.6528 28.958 49.6528H39.9899C44.5599 49.6528 48.2637 45.9489 48.2637 41.3789H25.3176C21.5143 41.3817 17.9181 43.1123 15.5407 46.0812L6.89453 56.5476L16.6301 74.3914L54.0968 65.3868C55.7157 65.013 57.2823 64.4394 58.7578 63.6768L78.0633 53.7895C79.9842 52.5831 80.5744 50.0554 79.3871 48.1222Z" fill="#FEC9A3"/>
    <path d="M13.5273 68.7102L16.63 74.3916L54.0967 65.3869C55.7156 65.0132 57.2822 64.4396 58.7576 63.6769L69.1965 58.3127C51.8489 63.6218 28.8201 66.9313 13.5273 68.7102Z" fill="#F7BB8F"/>
    <path d="M0 55.1686V79.9901H17.9266L22.0635 75.8532L5.51592 51.0317L0 55.1686Z" fill="#FFCC00"/>
    <path d="M0 79.9902H17.9266L22.0635 75.8533L19.0298 71.3027C12.8962 73.8344 6.51982 75.7333 0 76.9704V79.9902Z" fill="#EDB525"/>
    <path d="M12.4103 75.8575C13.9335 75.8575 15.1683 74.6227 15.1683 73.0995C15.1683 71.5763 13.9335 70.3416 12.4103 70.3416C10.8871 70.3416 9.65234 71.5763 9.65234 73.0995C9.65234 74.6227 10.8871 75.8575 12.4103 75.8575Z" fill="#D9D9D9"/>
  </g>
  <defs>
    <clipPath id="clip0_12010_57471">
      <rect width="80" height="80" fill="white"/>
    </clipPath>
  </defs>
</svg>