<svg width="140" height="139" viewBox="0 0 140 139" fill="none" xmlns="http://www.w3.org/2000/svg">
<g clip-path="url(#clip0_4702_66259)">
<path d="M139.5 106.307H0.5V106.377H139.5V106.307Z" fill="#EBEBEB"/>
<path d="M125.573 110.78H116.365V110.85H125.573V110.78Z" fill="#EBEBEB"/>
<path d="M112.865 110.78H93.1797V110.85H112.865V110.78Z" fill="#EBEBEB"/>
<path d="M82.3231 108.2H76.9883V108.27H82.3231V108.2Z" fill="#EBEBEB"/>
<path d="M24.6166 108.667H15.084V108.737H24.6166V108.667Z" fill="#EBEBEB"/>
<path d="M44.4231 108.667H27.0898V108.737H44.4231V108.667Z" fill="#EBEBEB"/>
<path d="M63.0886 109.841H52.8555V109.91H63.0886V109.841Z" fill="#EBEBEB"/>
<path d="M66.3867 93.9084H12.7076C12.2871 93.9077 11.8841 93.7401 11.587 93.4425C11.2899 93.1449 11.123 92.7416 11.123 92.3211V16.8635C11.1267 16.4454 11.2952 16.0456 11.5919 15.751C11.8886 15.4564 12.2895 15.2908 12.7076 15.29H66.3867C66.8077 15.29 67.2114 15.4573 67.5091 15.755C67.8068 16.0527 67.9741 16.4564 67.9741 16.8774V92.3211C67.9741 92.7421 67.8068 93.1458 67.5091 93.4435C67.2114 93.7412 66.8077 93.9084 66.3867 93.9084ZM12.7076 15.3456C12.3056 15.3464 11.9202 15.5066 11.6361 15.7912C11.3521 16.0758 11.1925 16.4614 11.1925 16.8635V92.3211C11.1925 92.7232 11.3521 93.1088 11.6361 93.3934C11.9202 93.678 12.3056 93.8382 12.7076 93.8389H66.3867C66.789 93.8382 67.1747 93.6781 67.4592 93.3936C67.7437 93.1091 67.9038 92.7234 67.9045 92.3211V16.8635C67.9038 16.4612 67.7437 16.0755 67.4592 15.791C67.1747 15.5065 66.789 15.3464 66.3867 15.3456H12.7076Z" fill="#EBEBEB"/>
<path d="M126.521 93.9084H72.8393C72.4186 93.9077 72.0152 93.7402 71.7177 93.4427C71.4202 93.1452 71.2527 92.7418 71.252 92.3211V16.8635C71.2563 16.4452 71.4254 16.0454 71.7226 15.7508C72.0197 15.4563 72.4209 15.2907 72.8393 15.29H126.521C126.939 15.2915 127.339 15.4575 127.635 15.752C127.931 16.0465 128.099 16.4459 128.103 16.8635V92.3211C128.103 92.7411 127.936 93.144 127.64 93.4416C127.343 93.7391 126.941 93.907 126.521 93.9084ZM72.8393 15.3456C72.437 15.3464 72.0513 15.5065 71.7668 15.791C71.4823 16.0755 71.3222 16.4612 71.3215 16.8635V92.3211C71.3222 92.7234 71.4823 93.1091 71.7668 93.3936C72.0513 93.6781 72.437 93.8382 72.8393 93.8389H126.521C126.923 93.8382 127.309 93.6781 127.594 93.3936C127.878 93.1091 128.038 92.7234 128.039 92.3211V16.8635C128.038 16.4612 127.878 16.0755 127.594 15.791C127.309 15.5065 126.923 15.3464 126.521 15.3456H72.8393Z" fill="#EBEBEB"/>
<path d="M21.584 53.7151L59.3086 53.7151L59.3086 21.0306L21.584 21.0306L21.584 53.7151Z" fill="#E6E6E6"/>
<path d="M20.7402 53.7151L58.4648 53.7151L58.4648 21.0306L20.7402 21.0306L20.7402 53.7151Z" fill="#F5F5F5"/>
<path d="M56.9609 52.5475V22.1982L22.2471 22.1982V52.5475H56.9609Z" fill="#FAFAFA"/>
<path d="M43.0386 52.5475L49.3297 22.1982H36.1692L29.8809 52.5475H43.0386Z" fill="white"/>
<path d="M22.8809 52.5504L22.8809 22.2012H22.247L22.247 52.5504H22.8809Z" fill="#E6E6E6"/>
<path d="M21.3646 47.1072L57.8438 47.1072V45.5393L21.3646 45.5393V47.1072Z" fill="#F5F5F5"/>
<path d="M57.5558 104.653H63.5801V78.5294H57.5558V104.653Z" fill="#F0F0F0"/>
<path d="M18.2174 106.307H62.4277V104.653H18.2174V106.307Z" fill="#F0F0F0"/>
<path d="M57.5576 78.5266H17.0586V104.65H57.5576V78.5266Z" fill="#F5F5F5"/>
<path d="M55.1905 81.7432H19.4258V90.3111H55.1905V81.7432Z" fill="#F0F0F0"/>
<path d="M55.1905 92.8687H19.4258V101.437H55.1905V92.8687Z" fill="#F0F0F0"/>
<path d="M27.6686 86.6137H46.9479C47.1033 86.613 47.252 86.5509 47.3619 86.4411C47.4717 86.3312 47.5338 86.1825 47.5345 86.0271C47.5338 85.8715 47.4718 85.7224 47.3621 85.6121C47.2523 85.5019 47.1035 85.4392 46.9479 85.4377H27.6686C27.513 85.4392 27.3642 85.5019 27.2545 85.6121C27.1447 85.7224 27.0828 85.8715 27.082 86.0271C27.0828 86.1825 27.1448 86.3312 27.2546 86.4411C27.3645 86.5509 27.5133 86.613 27.6686 86.6137Z" fill="#F5F5F5"/>
<path d="M27.6686 97.7392H46.9479C47.1033 97.7384 47.252 97.6764 47.3619 97.5666C47.4717 97.4567 47.5338 97.3079 47.5345 97.1526C47.5345 96.9968 47.4728 96.8473 47.3629 96.7368C47.2529 96.6264 47.1037 96.564 46.9479 96.5632H27.6686C27.5128 96.564 27.3636 96.6264 27.2537 96.7368C27.1437 96.8473 27.082 96.9968 27.082 97.1526C27.0828 97.3079 27.1448 97.4567 27.2546 97.5666C27.3645 97.6764 27.5133 97.7384 27.6686 97.7392Z" fill="#F5F5F5"/>
<path d="M120.49 38.1139C123.921 37.1687 125.094 30.9442 116.426 28.4033C118.338 34.6639 114.51 39.7541 120.49 38.1139Z" fill="#EBEBEB"/>
<path d="M121.25 40.8159C123.955 37.8941 121.397 31.2833 111.656 33.9855C117.166 38.806 116.538 45.9117 121.25 40.8159Z" fill="#E0E0E0"/>
<path d="M118.58 41.5666C116.317 39.3259 119.559 31.528 127.031 35.142C122.798 39.198 122.542 45.4725 118.58 41.5666Z" fill="#FAFAFA"/>
<path d="M116.323 45.9312H122.909L123.406 41.4749H115.828L116.323 45.9312Z" fill="#E6E6E6"/>
<path d="M115.754 42.2727H123.482C123.613 42.2727 123.738 42.2209 123.83 42.1286C123.922 42.0363 123.974 41.9111 123.974 41.7806C123.974 41.6501 123.922 41.525 123.83 41.4327C123.738 41.3404 123.613 41.2886 123.482 41.2886H115.754C115.623 41.2886 115.498 41.3404 115.406 41.4327C115.314 41.525 115.262 41.6501 115.262 41.7806C115.262 41.9111 115.314 42.0363 115.406 42.1286C115.498 42.2209 115.623 42.2727 115.754 42.2727Z" fill="#E6E6E6"/>
<path d="M60.9114 98.7595V91.2118H67.197V83.6669H73.4853V76.1192H79.7709V68.5715H86.0593V61.0266H92.3449V53.4789H98.6332V45.9312H104.922H139.499V106.307H60.9114H54.623V98.7595H60.9114Z" fill="#FAFAFA"/>
<path d="M95.4907 98.7595V91.2118H101.779V83.6669H108.065V76.1192H114.353V68.5715H120.639V61.0266H126.927V53.4789H133.212V45.9312H139.501V53.4789V106.307H95.4907H89.2051V98.7595H95.4907Z" fill="#E0E0E0"/>
<path d="M89.2041 98.7595H54.2539V101.022H89.2041V98.7595Z" fill="#EBEBEB"/>
<path d="M95.4931 91.2119H60.543V93.4748H95.4931V91.2119Z" fill="#EBEBEB"/>
<path d="M101.778 83.667H66.8281V85.9299H101.778V83.667Z" fill="#EBEBEB"/>
<path d="M108.067 76.1191H73.1172V78.3821H108.067V76.1191Z" fill="#EBEBEB"/>
<path d="M114.353 68.5715H79.4023V70.8345H114.353V68.5715Z" fill="#EBEBEB"/>
<path d="M120.64 61.0266H85.6895V63.2895H120.64V61.0266Z" fill="#EBEBEB"/>
<path d="M126.927 53.479H91.9766V55.7419H126.927V53.479Z" fill="#EBEBEB"/>
<path d="M133.214 45.9312H98.2637V48.1941H133.214V45.9312Z" fill="#EBEBEB"/>
<path d="M69.9991 118.862C99.768 118.862 123.901 117.453 123.901 115.715C123.901 113.977 99.768 112.568 69.9991 112.568C40.2301 112.568 16.0977 113.977 16.0977 115.715C16.0977 117.453 40.2301 118.862 69.9991 118.862Z" fill="#F5F5F5"/>
<path d="M93.5477 44.099C93.4976 44.933 93.4003 45.6975 93.2919 46.4898C93.1835 47.2821 93.0361 48.0577 92.8693 48.8361C92.5442 50.4115 92.0742 51.9536 91.4654 53.4426L91.2125 53.9986L91.1513 54.1376L91.1291 54.2098L91.0846 54.2988C90.9996 54.4733 90.8921 54.6359 90.7649 54.7825C90.6133 54.953 90.4326 55.0952 90.2311 55.2023C90.0334 55.306 89.8187 55.3738 89.5973 55.4025C89.2572 55.4388 88.9133 55.4028 88.5881 55.2968C88.1275 55.1396 87.6928 54.9147 87.2982 54.6296C86.9531 54.3863 86.6235 54.1217 86.3113 53.8373C85.1413 52.7524 84.0884 51.5476 83.1699 50.2428L84.0901 49.4616C84.6461 49.9759 85.2021 50.4958 85.7581 50.9878C86.3109 51.4798 86.888 51.9437 87.4873 52.3778C87.7693 52.5796 88.0626 52.7652 88.3657 52.9338C88.6101 53.082 88.874 53.1953 89.1497 53.2702C89.2442 53.2897 89.3109 53.2702 89.2804 53.2702C89.2148 53.2775 89.1534 53.3058 89.1052 53.3508C89.0885 53.3508 89.0885 53.3508 89.1052 53.3508L89.1942 53.1201L89.3888 52.6141C89.871 51.2211 90.2474 49.7937 90.5147 48.344C90.662 47.6157 90.7649 46.8734 90.8761 46.1367C90.9873 45.4 91.0651 44.6411 91.1291 43.9377L93.5477 44.099Z" fill="#FFC3BD"/>
<path d="M91.8621 41.0384C90.8252 41.3025 90.0996 45.567 90.0996 45.567L92.9547 47.513C92.9547 47.513 95.693 43.2123 94.9007 42.0725C94.0667 40.8799 93.3745 40.6547 91.8621 41.0384Z" fill="#FFCC00"/>
<path d="M91.8621 41.0384C90.8252 41.3025 90.0996 45.567 90.0996 45.567L92.9547 47.513C92.9547 47.513 95.693 43.2123 94.9007 42.0725C94.0667 40.8799 93.3745 40.6547 91.8621 41.0384Z" fill="#FFCC00"/>
<path opacity="0.4" d="M91.8621 41.0384C90.8252 41.3025 90.0996 45.567 90.0996 45.567L92.9547 47.513C92.9547 47.513 95.693 43.2123 94.9007 42.0725C94.0667 40.8799 93.3745 40.6547 91.8621 41.0384Z" fill="black"/>
<path opacity="0.3" d="M91.9552 41.9919L91.1602 46.287L92.7642 47.3768L91.9552 41.9919Z" fill="black"/>
<path d="M84.1379 49.2865L82.7896 47.1404L82.0195 49.5784C82.0195 49.5784 83.1315 50.746 84.1407 50.468L84.1379 49.2865Z" fill="#FFC3BD"/>
<path d="M80.7877 46.4314L80.2539 48.5053L82.0081 49.5784L82.7781 47.1403L80.7877 46.4314Z" fill="#FFC3BD"/>
<path d="M97.4679 112.798H94.9547L94.7852 106.977H97.3011L97.4679 112.798Z" fill="#FFC3BD"/>
<path d="M119.649 101.122L117.734 102.751L113.35 98.8372L115.265 97.2109L119.649 101.122Z" fill="#FFC3BD"/>
<path d="M117.208 102.557L119.067 100.427C119.099 100.391 119.143 100.367 119.191 100.36C119.239 100.354 119.288 100.365 119.329 100.391L121.222 101.617C121.269 101.65 121.308 101.692 121.337 101.74C121.366 101.789 121.385 101.844 121.392 101.9C121.399 101.956 121.394 102.014 121.377 102.068C121.36 102.122 121.332 102.172 121.294 102.215C120.632 102.946 120.277 103.266 119.459 104.2C118.959 104.775 118.283 105.671 117.588 106.463C116.893 107.255 116.07 106.616 116.29 106.221C117.266 104.458 117.032 103.841 117.049 102.974C117.052 102.821 117.108 102.673 117.208 102.557Z" fill="#263238"/>
<path d="M94.8676 112.509H97.692C97.7406 112.509 97.7878 112.526 97.8246 112.558C97.8614 112.589 97.8855 112.634 97.8922 112.682L98.2147 114.906C98.2238 114.964 98.2197 115.024 98.2028 115.081C98.186 115.139 98.1567 115.191 98.1171 115.235C98.0775 115.28 98.0286 115.315 97.9738 115.338C97.9191 115.361 97.8599 115.372 97.8005 115.37C96.8163 115.353 96.341 115.295 95.0983 115.295C94.3338 115.295 92.7548 115.375 91.6984 115.375C90.642 115.375 90.5864 114.33 91.0284 114.238C92.9966 113.813 93.7722 113.229 94.4367 112.671C94.5561 112.567 94.7092 112.509 94.8676 112.509Z" fill="#263238"/>
<path opacity="0.2" d="M94.7871 106.98L94.8733 109.98H97.3864L97.3002 106.98H94.7871Z" fill="black"/>
<path opacity="0.2" d="M115.268 97.2109L113.35 98.8372L115.613 100.856L117.528 99.2264L115.268 97.2109Z" fill="black"/>
<path d="M91.8637 41.0382C91.8637 41.0382 90.6655 41.4608 93.0646 56.2115H103.273C103.103 52.0554 103.098 49.4922 105.083 40.966C103.653 40.6713 102.205 40.4799 100.749 40.3933C99.2048 40.2833 97.6552 40.2833 96.1115 40.3933C94.121 40.5879 91.8637 41.0382 91.8637 41.0382Z" fill="#FFCC00"/>
<path opacity="0.4" d="M91.8637 41.0382C91.8637 41.0382 90.6655 41.4608 93.0646 56.2115H103.273C103.103 52.0554 103.098 49.4922 105.083 40.966C103.653 40.6713 102.205 40.4799 100.749 40.3933C99.2048 40.2833 97.6552 40.2833 96.1115 40.3933C94.121 40.5879 91.8637 41.0382 91.8637 41.0382Z" fill="black"/>
<path d="M100.748 40.3933C99.2045 40.2833 97.6549 40.2833 96.1112 40.3933C95.861 40.4155 95.6052 40.4433 95.3523 40.4739C95.2476 40.6319 95.1806 40.8118 95.1565 40.9998C95.1324 41.1878 95.1518 41.3788 95.2133 41.5581C95.5385 42.3671 96.7117 42.4616 97.5679 42.4616C100.729 42.4616 101.263 40.6157 101.285 40.5378L101.315 40.4266C101.137 40.4155 100.937 40.4016 100.748 40.3933Z" fill="white"/>
<path d="M100.302 35.1753C100.008 36.6654 99.7186 39.3981 100.761 40.3934C100.761 40.3934 100.352 41.9085 97.5808 41.9085C94.5228 41.9085 96.1241 40.3961 96.1241 40.3961C97.7921 39.9986 97.7448 38.7643 97.4557 37.6161L100.302 35.1753Z" fill="#FFC3BD"/>
<path opacity="0.2" d="M99.1261 36.165L97.4414 37.6023C97.5139 37.8755 97.5623 38.1546 97.586 38.4363C98.2198 38.3446 99.0927 37.6468 99.1622 36.9824C99.2012 36.71 99.189 36.4328 99.1261 36.165Z" fill="black"/>
<path d="M98.5533 27.0632C98.2948 26.1875 98.0779 24.8086 99.6347 24.1859C99.0259 23.4409 98.8786 22.0398 99.6347 21.2085C100.391 20.3773 101.525 20.6831 101.525 20.6831C101.525 20.6831 101.859 18.6509 104.33 19.0151C106.802 19.3793 105.701 21.0056 105.701 21.0056C105.701 21.0056 109.073 20.3384 109.298 23.5076C109.523 26.6768 107.588 26.2876 107.588 26.2876C107.588 26.2876 109.092 27.5497 108.258 28.9369C107.424 30.3242 105.498 29.846 105.498 29.846C105.498 29.846 104.591 32.298 102.456 30.9024C100.321 29.5068 98.5533 27.0632 98.5533 27.0632Z" fill="#263238"/>
<path d="M93.5473 28.912C92.7133 29.9906 93.0803 31.211 93.8253 31.692C95.6184 32.8373 98.2122 28.0335 97.5366 27.458C96.8611 26.8826 94.3813 27.8306 93.5473 28.912Z" fill="#263238"/>
<path d="M101.079 26.3431C99.9007 25.8677 98.7053 26.3654 98.3328 27.0826C97.4237 28.8312 101.552 31.981 102.747 29.7959C103.456 28.4976 102.294 26.8324 101.079 26.3431Z" fill="#FFCC00"/>
<path d="M100.582 31.6919C100.668 34.1939 100.757 35.2392 99.6254 36.632C97.9268 38.7253 94.8438 38.2861 94.0154 35.8675C93.2703 33.6908 93.2564 29.9795 95.5889 28.7618C96.1016 28.4906 96.6751 28.355 97.255 28.3678C97.8349 28.3806 98.4019 28.5414 98.9021 28.835C99.4024 29.1286 99.8193 29.5451 100.113 30.0452C100.407 30.5452 100.568 31.1121 100.582 31.6919Z" fill="#FFC3BD"/>
<path d="M100.206 33.0013C99.0941 32.587 98.8161 31.2888 98.9941 30.7773C98.4381 30.755 97.2232 30.5549 96.7701 29.8654C95.9027 30.4214 94.0707 30.9774 93.8733 30.0517C93.6759 29.1259 96.4392 26.7463 98.5298 26.5628C101.015 26.3459 103.467 28.7868 102.836 31.1248C102.205 33.4627 100.206 33.0013 100.206 33.0013Z" fill="#263238"/>
<path d="M93.0758 56.2114C93.0758 56.2114 91.0937 75.5741 91.2577 83.2414C91.4301 91.2144 94.3518 109.398 94.3518 109.398H97.749C97.749 109.398 97.2125 91.6787 97.5127 83.8502C97.8407 75.3128 100.551 56.2114 100.551 56.2114H93.0758Z" fill="#263238"/>
<path d="M98.0312 109.521H94.0447L93.75 108.25L98.2175 108.095L98.0312 109.521Z" fill="#FFCC00"/>
<path opacity="0.2" d="M97.4681 61.0292C94.9661 66.0721 96.9649 75.2739 97.8517 78.6989C98.3048 73.5559 99.0721 67.2703 99.6698 62.6555C99.2917 60.0479 98.6357 58.7023 97.4681 61.0292Z" fill="black"/>
<path d="M95.7598 56.2116C95.7598 56.2116 98.0727 76.3416 99.8186 82.8051C101.892 90.4779 114.772 100.806 114.772 100.806L117.385 98.5816C117.385 98.5816 108.05 87.3615 106.463 83.3194C103.08 74.7014 105.976 61.8356 103.271 56.2061L95.7598 56.2116Z" fill="#263238"/>
<path d="M117.803 98.4675L114.562 101.22L113.35 100.494L117.016 97.083L117.803 98.4675Z" fill="#FFCC00"/>
<path d="M96.8807 32.7373C96.9001 32.9403 96.8084 33.1126 96.6777 33.1265C96.5471 33.1404 96.422 32.9847 96.3997 32.7846C96.3775 32.5844 96.472 32.4065 96.6055 32.3954C96.7389 32.3843 96.8612 32.526 96.8807 32.7373Z" fill="#263238"/>
<path d="M94.6009 32.9568C94.6204 33.1569 94.5287 33.3321 94.3952 33.346C94.2618 33.3599 94.1422 33.2042 94.1172 33.0013C94.0922 32.7983 94.1895 32.626 94.3202 32.6148C94.4508 32.6037 94.5815 32.7538 94.6009 32.9568Z" fill="#263238"/>
<path d="M94.3843 32.6204L93.8867 32.5259C93.8867 32.5259 94.187 32.8817 94.3843 32.6204Z" fill="#263238"/>
<path d="M95.2355 33.2458C95.1002 33.7231 94.9 34.1796 94.6406 34.6025C94.7509 34.6659 94.8736 34.7047 95.0003 34.7162C95.127 34.7278 95.2546 34.7117 95.3745 34.6692L95.2355 33.2458Z" fill="#ED847E"/>
<path d="M96.4944 35.3336C96.3842 35.3638 96.2717 35.3843 96.158 35.3948C96.1503 35.3956 96.1426 35.3948 96.1352 35.3926C96.1278 35.3903 96.121 35.3866 96.115 35.3817C96.1091 35.3768 96.1042 35.3708 96.1006 35.3639C96.097 35.3571 96.0948 35.3497 96.0941 35.342C96.0925 35.3262 96.0971 35.3104 96.107 35.2979C96.1168 35.2855 96.1311 35.2773 96.1469 35.2753C96.3985 35.2567 96.6423 35.1794 96.8586 35.0496C97.0749 34.9197 97.2577 34.7408 97.3923 34.5274C97.3955 34.5201 97.4002 34.5135 97.4062 34.5081C97.4122 34.5028 97.4192 34.4988 97.4269 34.4964C97.4345 34.494 97.4426 34.4933 97.4506 34.4944C97.4585 34.4954 97.4662 34.4982 97.4729 34.5024C97.4867 34.5101 97.4969 34.5227 97.5016 34.5377C97.5062 34.5527 97.5049 34.569 97.498 34.583C97.2737 34.9542 96.9137 35.2234 96.4944 35.3336Z" fill="#263238"/>
<path d="M101.165 33.4182C101.104 33.8966 100.857 34.3314 100.476 34.6275C99.9671 35.0167 99.4778 34.6275 99.4195 34.0187C99.3694 33.4627 99.5696 32.6287 100.176 32.4675C100.308 32.4405 100.445 32.4461 100.574 32.4837C100.704 32.5213 100.823 32.5897 100.92 32.6832C101.017 32.7768 101.09 32.8925 101.133 33.0205C101.176 33.1485 101.187 33.285 101.165 33.4182Z" fill="#FFC3BD"/>
<path d="M97.1246 31.3083C97.1091 31.3122 97.0931 31.313 97.0773 31.3106C97.0616 31.3082 97.0464 31.3027 97.0328 31.2944C96.9068 31.214 96.7635 31.1645 96.6147 31.15C96.4659 31.1355 96.3158 31.1564 96.1766 31.211C96.1477 31.2239 96.115 31.2253 96.085 31.2149C96.0551 31.2046 96.0302 31.1833 96.0154 31.1554C96.0019 31.127 96.0002 31.0944 96.0106 31.0648C96.0211 31.0351 96.0427 31.0107 96.071 30.9969C96.246 30.9246 96.4359 30.8955 96.6246 30.9119C96.8133 30.9284 96.9952 30.99 97.1552 31.0915C97.1684 31.0994 97.1798 31.11 97.189 31.1224C97.1981 31.1349 97.2046 31.149 97.2082 31.164C97.2118 31.179 97.2125 31.1945 97.21 31.2098C97.2076 31.225 97.2022 31.2396 97.1941 31.2527C97.1787 31.2793 97.1539 31.2992 97.1246 31.3083Z" fill="#263238"/>
<path d="M93.4836 32.0006C93.4549 32.0115 93.4233 32.0115 93.3946 32.0006C93.3676 31.9848 93.3477 31.9593 93.3389 31.9293C93.3301 31.8994 93.3332 31.8672 93.3474 31.8393C93.4322 31.6701 93.5566 31.5239 93.71 31.4131C93.8634 31.3022 94.0413 31.2301 94.2286 31.2027C94.2442 31.2012 94.2599 31.2028 94.2748 31.2075C94.2897 31.2121 94.3036 31.2197 94.3155 31.2298C94.3274 31.24 94.3372 31.2524 94.3443 31.2663C94.3513 31.2803 94.3555 31.2955 94.3565 31.3111C94.3588 31.3424 94.3487 31.3733 94.3285 31.3973C94.3082 31.4212 94.2793 31.4362 94.2481 31.439C94.1006 31.4638 93.961 31.5231 93.8408 31.6119C93.7205 31.7008 93.6229 31.8168 93.5559 31.9505C93.548 31.9635 93.5375 31.9746 93.525 31.9832C93.5126 31.9918 93.4985 31.9977 93.4836 32.0006Z" fill="#263238"/>
<path d="M106.124 43.6765C106.691 45.0632 107.18 46.4804 107.589 47.9216C108.023 49.3753 108.332 50.8633 108.512 52.3696C108.56 52.7532 108.573 53.1563 108.59 53.5539V53.779C108.59 53.8597 108.576 53.9431 108.565 54.0153C108.542 54.1543 108.51 54.2917 108.471 54.4268C108.398 54.658 108.305 54.8822 108.193 55.0968C107.807 55.8095 107.335 56.4716 106.786 57.0678C105.771 58.1825 104.654 59.1998 103.45 60.1063L102.646 59.2139C103.572 58.1325 104.506 57.0233 105.299 55.8779C105.681 55.3582 106.008 54.799 106.272 54.2099C106.317 54.0959 106.354 53.9789 106.383 53.8597C106.39 53.8193 106.395 53.7784 106.397 53.7373C106.398 53.7253 106.398 53.7132 106.397 53.7012V53.6623C106.361 53.3342 106.336 53.0062 106.274 52.6698C106.035 51.2965 105.702 49.9413 105.276 48.6138C104.851 47.2683 104.376 45.9033 103.886 44.6023L106.124 43.6765Z" fill="#FFC3BD"/>
<path d="M105.082 40.9659C106.105 41.2773 107.334 44.7996 107.334 44.7996L103.361 47.6352C103.361 47.6352 101.913 44.6967 102.344 43.3734C102.805 41.9973 103.917 40.6101 105.082 40.9659Z" fill="#FFCC00"/>
<path opacity="0.4" d="M105.082 40.9659C106.105 41.2773 107.334 44.7996 107.334 44.7996L103.361 47.6352C103.361 47.6352 101.913 44.6967 102.344 43.3734C102.805 41.9973 103.917 40.6101 105.082 40.9659Z" fill="black"/>
<path d="M116.521 103.769C116.47 103.768 116.419 103.755 116.374 103.731C116.328 103.707 116.288 103.674 116.257 103.633C116.232 103.607 116.214 103.575 116.205 103.539C116.197 103.504 116.197 103.467 116.207 103.433C116.302 103.127 117.175 102.877 117.275 102.849C117.286 102.845 117.298 102.845 117.309 102.848C117.32 102.852 117.329 102.859 117.336 102.868C117.342 102.878 117.345 102.889 117.345 102.9C117.345 102.912 117.342 102.923 117.336 102.932C117.18 103.23 116.872 103.73 116.555 103.766L116.521 103.769ZM117.166 103.004C116.822 103.116 116.371 103.308 116.332 103.469C116.328 103.484 116.328 103.5 116.333 103.515C116.337 103.531 116.346 103.544 116.357 103.555C116.38 103.587 116.41 103.612 116.445 103.629C116.48 103.645 116.519 103.653 116.558 103.649C116.719 103.63 116.944 103.391 117.166 103.004Z" fill="#FFCC00"/>
<path d="M116.89 103.016C116.63 103.042 116.37 102.969 116.162 102.81C116.133 102.773 116.117 102.728 116.117 102.681C116.117 102.634 116.133 102.588 116.162 102.551C116.187 102.513 116.22 102.48 116.259 102.456C116.298 102.432 116.342 102.417 116.387 102.412C116.749 102.368 117.296 102.84 117.319 102.86C117.327 102.866 117.333 102.875 117.336 102.885C117.34 102.895 117.34 102.905 117.338 102.916C117.337 102.926 117.333 102.937 117.326 102.945C117.319 102.953 117.31 102.96 117.299 102.963C117.166 103.001 117.029 103.018 116.89 103.016ZM116.448 102.529H116.41C116.381 102.532 116.354 102.542 116.329 102.557C116.305 102.571 116.284 102.592 116.268 102.615C116.226 102.679 116.24 102.713 116.268 102.735C116.376 102.877 116.871 102.929 117.171 102.874C116.966 102.696 116.716 102.577 116.448 102.529Z" fill="#FFCC00"/>
<path d="M93.9236 112.948C93.7088 112.968 93.4938 112.913 93.3148 112.793C93.2765 112.758 93.2469 112.715 93.2281 112.666C93.2093 112.618 93.2018 112.566 93.2064 112.515C93.2086 112.482 93.2193 112.45 93.2373 112.422C93.2553 112.394 93.28 112.372 93.3092 112.356C93.6178 112.187 94.6186 112.698 94.7326 112.759C94.7432 112.765 94.7518 112.774 94.7572 112.785C94.7627 112.796 94.7647 112.808 94.7632 112.821C94.7616 112.833 94.7562 112.844 94.7477 112.853C94.7392 112.862 94.7281 112.868 94.7159 112.871C94.4547 112.921 94.1895 112.947 93.9236 112.948ZM93.476 112.429C93.4377 112.426 93.3993 112.434 93.3648 112.451C93.3529 112.457 93.3429 112.466 93.336 112.477C93.3291 112.488 93.3256 112.502 93.3259 112.515C93.3213 112.55 93.3253 112.585 93.3374 112.618C93.3495 112.651 93.3694 112.68 93.3954 112.704C93.5483 112.843 93.9514 112.865 94.5074 112.773C94.1858 112.6 93.837 112.484 93.476 112.429Z" fill="#FFCC00"/>
<path d="M94.7048 112.868H94.6798C94.3796 112.732 93.7874 112.19 93.8458 111.906C93.8458 111.839 93.9042 111.753 94.0682 111.737C94.1275 111.73 94.1873 111.736 94.2442 111.754C94.3011 111.772 94.3538 111.801 94.399 111.839C94.7132 112.103 94.7716 112.779 94.7743 112.81C94.7752 112.82 94.7733 112.83 94.7689 112.839C94.7645 112.849 94.7578 112.857 94.7493 112.862C94.7428 112.867 94.7354 112.869 94.7277 112.87C94.72 112.871 94.7122 112.87 94.7048 112.868ZM94.1044 111.848H94.071C93.9598 111.848 93.9542 111.903 93.9515 111.917C93.9237 112.087 94.3268 112.515 94.6326 112.698C94.6076 112.413 94.495 112.142 94.3101 111.923C94.2538 111.871 94.1807 111.841 94.1044 111.839V111.848Z" fill="#FFCC00"/>
<path d="M103.424 55.5999L103.685 56.5145C103.722 56.584 103.638 56.6563 103.519 56.6563H93.013C92.9212 56.6563 92.8434 56.6118 92.8378 56.5534L92.7461 55.6416C92.7461 55.5776 92.8184 55.5248 92.9212 55.5248H103.26C103.292 55.5222 103.323 55.5277 103.352 55.5408C103.381 55.554 103.406 55.5743 103.424 55.5999Z" fill="#FFCC00"/>
<path opacity="0.3" d="M103.424 55.5999L103.685 56.5145C103.722 56.584 103.638 56.6563 103.519 56.6563H93.013C92.9212 56.6563 92.8434 56.6118 92.8378 56.5534L92.7461 55.6416C92.7461 55.5776 92.8184 55.5248 92.9212 55.5248H103.26C103.292 55.5222 103.323 55.5277 103.352 55.5408C103.381 55.554 103.406 55.5743 103.424 55.5999Z" fill="white"/>
<path d="M102.038 56.7676H102.316C102.368 56.7676 102.41 56.7398 102.407 56.7036L102.277 55.5166C102.277 55.4832 102.227 55.4526 102.171 55.4526H101.893C101.837 55.4526 101.796 55.4832 101.801 55.5166L101.929 56.7036C101.935 56.7398 101.971 56.7676 102.038 56.7676Z" fill="#263238"/>
<path d="M93.7931 56.7676H94.0711C94.1267 56.7676 94.1684 56.7398 94.1656 56.7036L94.0349 55.5166C94.0349 55.4832 93.9821 55.4526 93.9293 55.4526H93.6513C93.5957 55.4526 93.554 55.4832 93.5568 55.5166L93.6874 56.7036C93.6902 56.7398 93.7375 56.7676 93.7931 56.7676Z" fill="#263238"/>
<path d="M97.9157 56.7676H98.1937C98.2493 56.7676 98.291 56.7398 98.2882 56.7036L98.1575 55.5166C98.1575 55.4832 98.1075 55.4526 98.0519 55.4526H97.7739C97.7183 55.4526 97.6766 55.4832 97.6821 55.5166L97.8017 56.712C97.8017 56.7398 97.8601 56.7676 97.9157 56.7676Z" fill="#263238"/>
<path d="M96.6675 32.4009L96.1699 32.3064C96.1699 32.3064 96.4535 32.6622 96.6675 32.4009Z" fill="#263238"/>
<path opacity="0.2" d="M87.464 67.8014C82.7541 69.6311 77.6074 70.0232 72.6746 68.928C67.7419 67.8328 63.2447 65.2994 59.7517 61.6484C56.2587 57.9973 53.9268 53.3924 53.0509 48.4161C52.175 43.4397 52.7943 38.3154 54.8307 33.691C56.867 29.0667 60.2289 25.15 64.4912 22.4363C68.7535 19.7225 73.7247 18.3336 78.7764 18.4452C83.828 18.5568 88.7331 20.1638 92.8714 23.063C97.0097 25.9623 100.195 30.0235 102.026 34.7333C103.241 37.8606 103.829 41.1969 103.755 44.5514C103.681 47.9059 102.947 51.213 101.595 54.2838C100.243 57.3546 98.2988 60.1289 95.8741 62.4483C93.4495 64.7677 90.5917 66.5866 87.464 67.8014Z" fill="#FFCC00"/>
<path opacity="0.1" d="M82.8416 18.8621L62.8034 64.3707C62.4948 64.1372 62.189 63.8953 61.8888 63.6507C59.952 62.0485 58.2654 60.1661 56.8848 58.0657L74.193 18.7565C77.0606 18.2946 79.9862 18.3304 82.8416 18.8621Z" fill="white"/>
<path opacity="0.1" d="M97.0858 26.7574L78.2458 69.5444C74.3325 69.5485 70.4706 68.6525 66.959 66.9256L87.531 20.2021C91.1755 21.6275 94.4443 23.8701 97.0858 26.7574Z" fill="white"/>
<path d="M57.1796 26.7769C60.5838 22.6172 65.1452 19.5604 70.2867 17.9931C75.4283 16.4257 80.9191 16.4182 86.0649 17.9715C91.2108 19.5248 95.7804 22.5691 99.1961 26.7194C102.612 30.8698 104.72 35.9398 105.254 41.2884C105.788 46.6369 104.724 52.0237 102.197 56.7676C99.6699 61.5116 95.7926 65.3995 91.0556 67.9399C86.3186 70.4802 80.9348 71.5588 75.5848 71.0393C70.2348 70.5199 65.159 68.4256 60.9993 65.0214C55.4218 60.456 51.8861 53.8621 51.1698 46.6901C50.4535 39.5181 52.6152 32.3552 57.1796 26.7769ZM97.5229 59.7922C100.648 55.9724 102.57 51.3118 103.046 46.3997C103.522 41.4876 102.531 36.5446 100.198 32.1958C97.8651 27.8469 94.2949 24.2875 89.9391 21.9676C85.5832 19.6477 80.6372 18.6716 75.7266 19.1626C70.8159 19.6535 66.1612 21.5896 62.3508 24.726C58.5405 27.8624 55.7457 32.0582 54.3199 36.7828C52.8941 41.5075 52.9014 46.5489 54.3406 51.2695C55.7799 55.9901 58.5867 60.1778 62.406 63.3033C64.9422 65.3788 67.8625 66.9344 71 67.8812C74.1374 68.8281 77.4307 69.1476 80.6917 68.8215C83.9527 68.4955 87.1175 67.5303 90.0054 65.981C92.8933 64.4317 95.4478 62.3288 97.5229 59.7922Z" fill="#FFCC00"/>
<path d="M99.9218 59.6975C102.599 61.296 105.145 63.053 107.647 64.8656C110.149 66.6781 112.587 68.5657 114.987 70.5034C117.386 72.4411 119.74 74.4343 122.012 76.5277C123.15 77.5729 124.262 78.646 125.348 79.7469C126.437 80.8589 127.508 81.9709 128.517 83.1774C128.75 83.4568 128.879 83.8086 128.88 84.1725C128.882 84.5363 128.757 84.8894 128.527 85.1711C128.297 85.4528 127.975 85.6454 127.618 85.7158C127.261 85.7863 126.891 85.7301 126.571 85.5571C125.181 84.8065 123.88 83.9781 122.582 83.1301C121.283 82.2822 120.016 81.3982 118.765 80.4892C116.263 78.6766 113.841 76.7667 111.47 74.7957C109.099 72.8247 106.763 70.8092 104.492 68.7131C102.221 66.617 99.9941 64.4708 97.898 62.1634C97.6362 61.878 97.4861 61.5078 97.4752 61.1207C97.4644 60.7336 97.5934 60.3556 97.8386 60.0559C98.0839 59.7563 98.429 59.5551 98.8106 59.4893C99.1922 59.4234 99.5847 59.4974 99.9162 59.6975H99.9218Z" fill="#FFCC00"/>
<path d="M102.914 58.936L100.229 59.3447L102.149 61.0294C102.149 61.0294 103.667 60.4734 103.817 59.4448L102.914 58.936Z" fill="#FFC3BD"/>
<path d="M98.7773 60.8874L100.465 62.2107L102.525 60.8652L100.229 59.3501L98.7773 60.8874Z" fill="#FFC3BD"/>
<path d="M86.0798 63.8149C86.3251 63.1453 86.7674 62.5657 87.3485 62.1523C87.9296 61.7389 88.6222 61.5112 89.3352 61.4992H111.589C111.974 61.4848 112.357 61.555 112.711 61.7048C113.066 61.8546 113.383 62.0803 113.641 62.3661C113.898 62.6519 114.09 62.9907 114.202 63.3588C114.315 63.7268 114.345 64.115 114.291 64.496L108.542 112.732C108.42 113.553 108.01 114.304 107.385 114.85C106.76 115.397 105.961 115.703 105.131 115.715H34.5192C34.1359 115.729 33.7542 115.66 33.4007 115.511C33.0473 115.362 32.7307 115.138 32.4734 114.853C32.2161 114.569 32.0242 114.231 31.9113 113.865C31.7983 113.498 31.7671 113.112 31.8198 112.732L36.6403 72.2049C36.7623 71.3838 37.1725 70.6328 37.7974 70.0863C38.4223 69.5398 39.2213 69.2334 40.0514 69.222H78.4765C80.1416 69.1936 81.759 68.6619 83.1162 67.6968C84.4733 66.7317 85.5065 65.3784 86.0798 63.8149Z" fill="#FFCC00"/>
<path d="M33.0898 113.494H106.874L111.077 63.8484H37.296L33.0898 113.494Z" fill="#F0F0F0"/>
<path d="M33.0898 113.494H106.874L109.915 63.8484H37.296L33.0898 113.494Z" fill="#E0E0E0"/>
<path d="M33.0898 113.493H106.874L109.409 62.272H35.628L33.0898 113.493Z" fill="#F0F0F0"/>
<path d="M33.0898 113.493H106.874L107.877 62.272H35.628L33.0898 113.493Z" fill="#E0E0E0"/>
<path d="M33.0898 113.494H106.874L107.313 60.8821H33.5319L33.0898 113.494Z" fill="#F0F0F0"/>
<path d="M33.0916 113.494H106.876L105.361 61.8774H32.0547L33.0916 113.494Z" fill="#E0E0E0"/>
<path d="M33.0902 113.493H106.874L104.684 62.272H30.9023L33.0902 113.493Z" fill="#F0F0F0"/>
<path d="M33.0916 113.494H106.876L103.387 63.0449H29.6055L33.0916 113.494Z" fill="#E0E0E0"/>
<path d="M33.0909 113.494H106.875L102.83 63.4758H29.0488L33.0909 113.494Z" fill="#F0F0F0"/>
<path d="M70.0398 66.9481C70.0439 66.6256 70.1129 66.3072 70.2426 66.0118C70.3724 65.7165 70.5602 65.4503 70.7949 65.229C71.0297 65.0078 71.3065 64.836 71.609 64.7239C71.9115 64.6119 72.2335 64.5619 72.5557 64.5768H94.8096C95.6712 64.6099 96.4974 64.9281 97.1586 65.4816C97.8197 66.0351 98.2784 66.7924 98.4625 67.6348L107.256 112.671C107.584 114.358 106.483 115.729 104.795 115.729H34.1833C32.4931 115.729 30.8473 114.358 30.5276 112.671L23.2746 75.5439C22.9466 73.8564 24.0475 72.4859 25.7349 72.4859H64.1629C67.4989 72.4859 69.9258 70.1896 70.0398 66.9481Z" fill="#FFCC00"/>
<path opacity="0.2" d="M70.0398 66.9481C70.0439 66.6256 70.1129 66.3072 70.2426 66.0118C70.3724 65.7165 70.5602 65.4503 70.7949 65.229C71.0297 65.0078 71.3065 64.836 71.609 64.7239C71.9115 64.6119 72.2335 64.5619 72.5557 64.5768H94.8096C95.6712 64.6099 96.4974 64.9281 97.1586 65.4816C97.8197 66.0351 98.2784 66.7924 98.4625 67.6348L107.256 112.671C107.584 114.358 106.483 115.729 104.795 115.729H34.1833C32.4931 115.729 30.8473 114.358 30.5276 112.671L23.2746 75.5439C22.9466 73.8564 24.0475 72.4859 25.7349 72.4859H64.1629C67.4989 72.4859 69.9258 70.1896 70.0398 66.9481Z" fill="black"/>
</g>
<defs>
<clipPath id="clip0_4702_66259">
<rect width="139" height="139" fill="white" transform="translate(0.5)"/>
</clipPath>
</defs>
</svg>
