<svg width="1072" height="153" viewBox="0 0 1072 153" fill="none" xmlns="http://www.w3.org/2000/svg">
<g clip-path="url(#clip0_11171_48144)">
<rect width="1072" height="153" rx="8" fill="#FFCC00"/>
<circle cx="203.5" cy="-0.5" r="92.5" fill="#FFF6DE" fill-opacity="0.2"/>
<circle cx="203.5" cy="-0.5" r="132.5" fill="#FFF6DE" fill-opacity="0.2"/>
<circle cx="203.5" cy="-0.5" r="196.5" fill="#FFF6DE" fill-opacity="0.2"/>
<path d="M168.44 22.536V45H162.968V35.752H154.456V45H148.984V22.536H154.456V31.336H162.968V22.536H168.44ZM180.668 45.256C178.919 45.256 177.34 44.8827 175.932 44.136C174.546 43.3893 173.447 42.3227 172.636 40.936C171.847 39.5493 171.452 37.928 171.452 36.072C171.452 34.2373 171.858 32.6267 172.668 31.24C173.479 29.832 174.588 28.7547 175.996 28.008C177.404 27.2613 178.983 26.888 180.732 26.888C182.482 26.888 184.06 27.2613 185.468 28.008C186.876 28.7547 187.986 29.832 188.796 31.24C189.607 32.6267 190.012 34.2373 190.012 36.072C190.012 37.9067 189.596 39.528 188.764 40.936C187.954 42.3227 186.834 43.3893 185.404 44.136C183.996 44.8827 182.418 45.256 180.668 45.256ZM180.668 40.52C181.714 40.52 182.599 40.136 183.324 39.368C184.071 38.6 184.444 37.5013 184.444 36.072C184.444 34.6427 184.082 33.544 183.356 32.776C182.652 32.008 181.778 31.624 180.732 31.624C179.666 31.624 178.78 32.008 178.076 32.776C177.372 33.5227 177.02 34.6213 177.02 36.072C177.02 37.5013 177.362 38.6 178.044 39.368C178.748 40.136 179.623 40.52 180.668 40.52ZM218.697 27.144L213.865 45H207.817L205.001 33.416L202.089 45H196.073L191.209 27.144H196.681L199.209 39.912L202.217 27.144H208.009L211.049 39.848L213.545 27.144H218.697ZM237.817 40.36V45H235.033C233.049 45 231.503 44.52 230.393 43.56C229.284 42.5787 228.729 40.9893 228.729 38.792V31.688H226.553V27.144H228.729V22.792H234.201V27.144H237.785V31.688H234.201V38.856C234.201 39.3893 234.329 39.7733 234.585 40.008C234.841 40.2427 235.268 40.36 235.865 40.36H237.817ZM249.143 45.256C247.394 45.256 245.815 44.8827 244.407 44.136C243.021 43.3893 241.922 42.3227 241.111 40.936C240.322 39.5493 239.927 37.928 239.927 36.072C239.927 34.2373 240.333 32.6267 241.143 31.24C241.954 29.832 243.063 28.7547 244.471 28.008C245.879 27.2613 247.458 26.888 249.207 26.888C250.957 26.888 252.535 27.2613 253.943 28.008C255.351 28.7547 256.461 29.832 257.271 31.24C258.082 32.6267 258.487 34.2373 258.487 36.072C258.487 37.9067 258.071 39.528 257.239 40.936C256.429 42.3227 255.309 43.3893 253.879 44.136C252.471 44.8827 250.893 45.256 249.143 45.256ZM249.143 40.52C250.189 40.52 251.074 40.136 251.799 39.368C252.546 38.6 252.919 37.5013 252.919 36.072C252.919 34.6427 252.557 33.544 251.831 32.776C251.127 32.008 250.253 31.624 249.207 31.624C248.141 31.624 247.255 32.008 246.551 32.776C245.847 33.5227 245.495 34.6213 245.495 36.072C245.495 37.5013 245.837 38.6 246.519 39.368C247.223 40.136 248.098 40.52 249.143 40.52ZM282.456 41.032H274.072L272.728 45H267L275.128 22.536H281.464L289.592 45H283.8L282.456 41.032ZM281.048 36.808L278.264 28.584L275.512 36.808H281.048ZM291.127 36.04C291.127 34.2053 291.469 32.5947 292.151 31.208C292.855 29.8213 293.805 28.7547 294.999 28.008C296.194 27.2613 297.527 26.888 298.999 26.888C300.173 26.888 301.239 27.1333 302.199 27.624C303.181 28.1147 303.949 28.776 304.503 29.608V21.32H309.975V45H304.503V42.44C303.991 43.2933 303.255 43.976 302.295 44.488C301.357 45 300.258 45.256 298.999 45.256C297.527 45.256 296.194 44.8827 294.999 44.136C293.805 43.368 292.855 42.2907 292.151 40.904C291.469 39.496 291.127 37.8747 291.127 36.04ZM304.503 36.072C304.503 34.7067 304.119 33.6293 303.351 32.84C302.605 32.0507 301.687 31.656 300.599 31.656C299.511 31.656 298.583 32.0507 297.815 32.84C297.069 33.608 296.695 34.6747 296.695 36.04C296.695 37.4053 297.069 38.4933 297.815 39.304C298.583 40.0933 299.511 40.488 300.599 40.488C301.687 40.488 302.605 40.0933 303.351 39.304C304.119 38.5147 304.503 37.4373 304.503 36.072ZM312.996 36.04C312.996 34.2053 313.337 32.5947 314.02 31.208C314.724 29.8213 315.673 28.7547 316.868 28.008C318.063 27.2613 319.396 26.888 320.868 26.888C322.041 26.888 323.108 27.1333 324.068 27.624C325.049 28.1147 325.817 28.776 326.372 29.608V21.32H331.844V45H326.372V42.44C325.86 43.2933 325.124 43.976 324.164 44.488C323.225 45 322.127 45.256 320.868 45.256C319.396 45.256 318.063 44.8827 316.868 44.136C315.673 43.368 314.724 42.2907 314.02 40.904C313.337 39.496 312.996 37.8747 312.996 36.04ZM326.372 36.072C326.372 34.7067 325.988 33.6293 325.22 32.84C324.473 32.0507 323.556 31.656 322.468 31.656C321.38 31.656 320.452 32.0507 319.684 32.84C318.937 33.608 318.564 34.6747 318.564 36.04C318.564 37.4053 318.937 38.4933 319.684 39.304C320.452 40.0933 321.38 40.488 322.468 40.488C323.556 40.488 324.473 40.0933 325.22 39.304C325.988 38.5147 326.372 37.4373 326.372 36.072ZM356.484 33.48C357.785 33.7573 358.831 34.408 359.62 35.432C360.409 36.4347 360.804 37.5867 360.804 38.888C360.804 40.7653 360.143 42.2587 358.82 43.368C357.519 44.456 355.695 45 353.348 45H342.884V22.536H352.996C355.279 22.536 357.06 23.0587 358.34 24.104C359.641 25.1493 360.292 26.568 360.292 28.36C360.292 29.6827 359.94 30.7813 359.236 31.656C358.553 32.5307 357.636 33.1387 356.484 33.48ZM348.356 31.624H351.94C352.836 31.624 353.519 31.432 353.988 31.048C354.479 30.6427 354.724 30.056 354.724 29.288C354.724 28.52 354.479 27.9333 353.988 27.528C353.519 27.1227 352.836 26.92 351.94 26.92H348.356V31.624ZM352.388 40.584C353.305 40.584 354.009 40.3813 354.5 39.976C355.012 39.5493 355.268 38.9413 355.268 38.152C355.268 37.3627 355.001 36.744 354.468 36.296C353.956 35.848 353.241 35.624 352.324 35.624H348.356V40.584H352.388ZM363.04 36.04C363.04 34.2053 363.381 32.5947 364.064 31.208C364.768 29.8213 365.717 28.7547 366.912 28.008C368.106 27.2613 369.44 26.888 370.912 26.888C372.17 26.888 373.269 27.144 374.208 27.656C375.168 28.168 375.904 28.84 376.416 29.672V27.144H381.888V45H376.416V42.472C375.882 43.304 375.136 43.976 374.176 44.488C373.237 45 372.138 45.256 370.88 45.256C369.429 45.256 368.106 44.8827 366.912 44.136C365.717 43.368 364.768 42.2907 364.064 40.904C363.381 39.496 363.04 37.8747 363.04 36.04ZM376.416 36.072C376.416 34.7067 376.032 33.6293 375.264 32.84C374.517 32.0507 373.6 31.656 372.512 31.656C371.424 31.656 370.496 32.0507 369.728 32.84C368.981 33.608 368.608 34.6747 368.608 36.04C368.608 37.4053 368.981 38.4933 369.728 39.304C370.496 40.0933 371.424 40.488 372.512 40.488C373.6 40.488 374.517 40.0933 375.264 39.304C376.032 38.5147 376.416 37.4373 376.416 36.072ZM396.876 26.952C398.967 26.952 400.631 27.6347 401.868 29C403.127 30.344 403.756 32.2 403.756 34.568V45H398.316V35.304C398.316 34.1093 398.007 33.1813 397.388 32.52C396.77 31.8587 395.938 31.528 394.892 31.528C393.847 31.528 393.015 31.8587 392.396 32.52C391.778 33.1813 391.468 34.1093 391.468 35.304V45H385.996V27.144H391.468V29.512C392.023 28.7227 392.77 28.104 393.708 27.656C394.647 27.1867 395.703 26.952 396.876 26.952ZM418.621 45L413.181 37.512V45H407.709V21.32H413.181V34.408L418.589 27.144H425.341L417.917 36.104L425.405 45H418.621ZM448.555 41.032H440.171L438.827 45H433.099L441.227 22.536H447.563L455.691 45H449.899L448.555 41.032ZM447.147 36.808L444.363 28.584L441.611 36.808H447.147ZM457.227 36.072C457.227 34.216 457.601 32.5947 458.347 31.208C459.115 29.8213 460.171 28.7547 461.515 28.008C462.881 27.2613 464.438 26.888 466.187 26.888C468.427 26.888 470.294 27.4747 471.787 28.648C473.302 29.8213 474.294 31.4747 474.763 33.608H468.939C468.449 32.2427 467.499 31.56 466.091 31.56C465.089 31.56 464.289 31.9547 463.691 32.744C463.094 33.512 462.795 34.6213 462.795 36.072C462.795 37.5227 463.094 38.6427 463.691 39.432C464.289 40.2 465.089 40.584 466.091 40.584C467.499 40.584 468.449 39.9013 468.939 38.536H474.763C474.294 40.6267 473.302 42.2693 471.787 43.464C470.273 44.6587 468.406 45.256 466.187 45.256C464.438 45.256 462.881 44.8827 461.515 44.136C460.171 43.3893 459.115 42.3227 458.347 40.936C457.601 39.5493 457.227 37.928 457.227 36.072ZM476.752 36.072C476.752 34.216 477.126 32.5947 477.872 31.208C478.64 29.8213 479.696 28.7547 481.04 28.008C482.406 27.2613 483.963 26.888 485.712 26.888C487.952 26.888 489.819 27.4747 491.312 28.648C492.827 29.8213 493.819 31.4747 494.288 33.608H488.464C487.974 32.2427 487.024 31.56 485.616 31.56C484.614 31.56 483.814 31.9547 483.216 32.744C482.619 33.512 482.32 34.6213 482.32 36.072C482.32 37.5227 482.619 38.6427 483.216 39.432C483.814 40.2 484.614 40.584 485.616 40.584C487.024 40.584 487.974 39.9013 488.464 38.536H494.288C493.819 40.6267 492.827 42.2693 491.312 43.464C489.798 44.6587 487.931 45.256 485.712 45.256C483.963 45.256 482.406 44.8827 481.04 44.136C479.696 43.3893 478.64 42.3227 477.872 40.936C477.126 39.5493 476.752 37.928 476.752 36.072ZM505.493 45.256C503.744 45.256 502.165 44.8827 500.757 44.136C499.371 43.3893 498.272 42.3227 497.461 40.936C496.672 39.5493 496.277 37.928 496.277 36.072C496.277 34.2373 496.683 32.6267 497.493 31.24C498.304 29.832 499.413 28.7547 500.821 28.008C502.229 27.2613 503.808 26.888 505.557 26.888C507.307 26.888 508.885 27.2613 510.293 28.008C511.701 28.7547 512.811 29.832 513.621 31.24C514.432 32.6267 514.837 34.2373 514.837 36.072C514.837 37.9067 514.421 39.528 513.589 40.936C512.779 42.3227 511.659 43.3893 510.229 44.136C508.821 44.8827 507.243 45.256 505.493 45.256ZM505.493 40.52C506.539 40.52 507.424 40.136 508.149 39.368C508.896 38.6 509.269 37.5013 509.269 36.072C509.269 34.6427 508.907 33.544 508.181 32.776C507.477 32.008 506.603 31.624 505.557 31.624C504.491 31.624 503.605 32.008 502.901 32.776C502.197 33.5227 501.845 34.6213 501.845 36.072C501.845 37.5013 502.187 38.6 502.869 39.368C503.573 40.136 504.448 40.52 505.493 40.52ZM535.522 27.144V45H530.05V42.568C529.496 43.3573 528.738 43.9973 527.778 44.488C526.84 44.9573 525.794 45.192 524.642 45.192C523.277 45.192 522.072 44.8933 521.026 44.296C519.981 43.6773 519.17 42.792 518.594 41.64C518.018 40.488 517.73 39.1333 517.73 37.576V27.144H523.17V36.84C523.17 38.0347 523.48 38.9627 524.098 39.624C524.717 40.2853 525.549 40.616 526.594 40.616C527.661 40.616 528.504 40.2853 529.122 39.624C529.741 38.9627 530.05 38.0347 530.05 36.84V27.144H535.522ZM550.483 26.952C552.573 26.952 554.237 27.6347 555.475 29C556.733 30.344 557.363 32.2 557.363 34.568V45H551.923V35.304C551.923 34.1093 551.613 33.1813 550.995 32.52C550.376 31.8587 549.544 31.528 548.499 31.528C547.453 31.528 546.621 31.8587 546.003 32.52C545.384 33.1813 545.075 34.1093 545.075 35.304V45H539.603V27.144H545.075V29.512C545.629 28.7227 546.376 28.104 547.315 27.656C548.253 27.1867 549.309 26.952 550.483 26.952ZM571.267 40.36V45H568.483C566.499 45 564.953 44.52 563.843 43.56C562.734 42.5787 562.179 40.9893 562.179 38.792V31.688H560.003V27.144H562.179V22.792H567.651V27.144H571.235V31.688H567.651V38.856C567.651 39.3893 567.779 39.7733 568.035 40.008C568.291 40.2427 568.718 40.36 569.315 40.36H571.267ZM151.736 73.288C150.776 73.288 149.987 73.0107 149.368 72.456C148.771 71.88 148.472 71.176 148.472 70.344C148.472 69.4907 148.771 68.7867 149.368 68.232C149.987 67.656 150.776 67.368 151.736 67.368C152.675 67.368 153.443 67.656 154.04 68.232C154.659 68.7867 154.968 69.4907 154.968 70.344C154.968 71.176 154.659 71.88 154.04 72.456C153.443 73.0107 152.675 73.288 151.736 73.288ZM154.456 75.144V93H148.984V75.144H154.456ZM169.451 74.952C171.542 74.952 173.206 75.6347 174.444 77C175.702 78.344 176.332 80.2 176.332 82.568V93H170.892V83.304C170.892 82.1093 170.582 81.1813 169.964 80.52C169.345 79.8587 168.513 79.528 167.467 79.528C166.422 79.528 165.59 79.8587 164.972 80.52C164.353 81.1813 164.043 82.1093 164.043 83.304V93H158.571V75.144H164.043V77.512C164.598 76.7227 165.345 76.104 166.283 75.656C167.222 75.1867 168.278 74.952 169.451 74.952ZM195.343 93.224C193.701 93.224 192.229 92.9573 190.927 92.424C189.626 91.8907 188.581 91.1013 187.791 90.056C187.023 89.0107 186.618 87.752 186.575 86.28H192.399C192.485 87.112 192.773 87.752 193.263 88.2C193.754 88.6267 194.394 88.84 195.183 88.84C195.994 88.84 196.634 88.6587 197.103 88.296C197.573 87.912 197.807 87.3893 197.807 86.728C197.807 86.1733 197.615 85.7147 197.231 85.352C196.869 84.9893 196.41 84.6907 195.855 84.456C195.322 84.2213 194.554 83.9547 193.551 83.656C192.101 83.208 190.917 82.76 189.999 82.312C189.082 81.864 188.293 81.2027 187.631 80.328C186.97 79.4533 186.639 78.312 186.639 76.904C186.639 74.8133 187.397 73.1813 188.911 72.008C190.426 70.8133 192.399 70.216 194.831 70.216C197.306 70.216 199.301 70.8133 200.815 72.008C202.33 73.1813 203.141 74.824 203.247 76.936H197.327C197.285 76.2107 197.018 75.6453 196.527 75.24C196.037 74.8133 195.407 74.6 194.639 74.6C193.978 74.6 193.445 74.7813 193.039 75.144C192.634 75.4853 192.431 75.9867 192.431 76.648C192.431 77.3733 192.773 77.9387 193.455 78.344C194.138 78.7493 195.205 79.1867 196.655 79.656C198.106 80.1467 199.279 80.616 200.175 81.064C201.093 81.512 201.882 82.1627 202.543 83.016C203.205 83.8693 203.535 84.968 203.535 86.312C203.535 87.592 203.205 88.7547 202.543 89.8C201.903 90.8453 200.965 91.6773 199.727 92.296C198.49 92.9147 197.029 93.224 195.343 93.224ZM209.805 73.288C208.845 73.288 208.055 73.0107 207.437 72.456C206.839 71.88 206.541 71.176 206.541 70.344C206.541 69.4907 206.839 68.7867 207.437 68.232C208.055 67.656 208.845 67.368 209.805 67.368C210.743 67.368 211.511 67.656 212.109 68.232C212.727 68.7867 213.037 69.4907 213.037 70.344C213.037 71.176 212.727 71.88 212.109 72.456C211.511 73.0107 210.743 73.288 209.805 73.288ZM212.525 75.144V93H207.053V75.144H212.525ZM239.424 74.952C241.643 74.952 243.403 75.624 244.704 76.968C246.027 78.312 246.688 80.1787 246.688 82.568V93H241.248V83.304C241.248 82.152 240.939 81.2667 240.32 80.648C239.723 80.008 238.891 79.688 237.824 79.688C236.758 79.688 235.915 80.008 235.296 80.648C234.699 81.2667 234.4 82.152 234.4 83.304V93H228.96V83.304C228.96 82.152 228.651 81.2667 228.032 80.648C227.435 80.008 226.603 79.688 225.536 79.688C224.47 79.688 223.627 80.008 223.008 80.648C222.411 81.2667 222.112 82.152 222.112 83.304V93H216.64V75.144H222.112V77.384C222.667 76.6373 223.392 76.0507 224.288 75.624C225.184 75.176 226.198 74.952 227.328 74.952C228.672 74.952 229.867 75.24 230.912 75.816C231.979 76.392 232.811 77.2133 233.408 78.28C234.027 77.2987 234.87 76.4987 235.936 75.88C237.003 75.2613 238.166 74.952 239.424 74.952ZM256.137 77.672C256.671 76.84 257.407 76.168 258.345 75.656C259.284 75.144 260.383 74.888 261.641 74.888C263.113 74.888 264.447 75.2613 265.641 76.008C266.836 76.7547 267.775 77.8213 268.457 79.208C269.161 80.5947 269.513 82.2053 269.513 84.04C269.513 85.8747 269.161 87.496 268.457 88.904C267.775 90.2907 266.836 91.368 265.641 92.136C264.447 92.8827 263.113 93.256 261.641 93.256C260.404 93.256 259.305 93 258.345 92.488C257.407 91.976 256.671 91.3147 256.137 90.504V101.512H250.665V75.144H256.137V77.672ZM263.945 84.04C263.945 82.6747 263.561 81.608 262.793 80.84C262.047 80.0507 261.119 79.656 260.009 79.656C258.921 79.656 257.993 80.0507 257.225 80.84C256.479 81.6293 256.105 82.7067 256.105 84.072C256.105 85.4373 256.479 86.5147 257.225 87.304C257.993 88.0933 258.921 88.488 260.009 88.488C261.097 88.488 262.025 88.0933 262.793 87.304C263.561 86.4933 263.945 85.4053 263.945 84.04ZM278.006 69.32V93H272.534V69.32H278.006ZM298.953 83.784C298.953 84.296 298.921 84.8293 298.857 85.384H286.473C286.559 86.4933 286.911 87.3467 287.529 87.944C288.169 88.52 288.948 88.808 289.865 88.808C291.231 88.808 292.18 88.232 292.713 87.08H298.537C298.239 88.2533 297.695 89.3093 296.905 90.248C296.137 91.1867 295.167 91.9227 293.993 92.456C292.82 92.9893 291.508 93.256 290.057 93.256C288.308 93.256 286.751 92.8827 285.385 92.136C284.02 91.3893 282.953 90.3227 282.185 88.936C281.417 87.5493 281.033 85.928 281.033 84.072C281.033 82.216 281.407 80.5947 282.153 79.208C282.921 77.8213 283.988 76.7547 285.353 76.008C286.719 75.2613 288.287 74.888 290.057 74.888C291.785 74.888 293.321 75.2507 294.665 75.976C296.009 76.7013 297.055 77.736 297.801 79.08C298.569 80.424 298.953 81.992 298.953 83.784ZM293.353 82.344C293.353 81.4053 293.033 80.6587 292.393 80.104C291.753 79.5493 290.953 79.272 289.993 79.272C289.076 79.272 288.297 79.5387 287.657 80.072C287.039 80.6053 286.655 81.3627 286.505 82.344H293.353ZM317.05 93.224C315.407 93.224 313.935 92.9573 312.634 92.424C311.332 91.8907 310.287 91.1013 309.498 90.056C308.73 89.0107 308.324 87.752 308.282 86.28H314.106C314.191 87.112 314.479 87.752 314.97 88.2C315.46 88.6267 316.1 88.84 316.89 88.84C317.7 88.84 318.34 88.6587 318.81 88.296C319.279 87.912 319.514 87.3893 319.514 86.728C319.514 86.1733 319.322 85.7147 318.938 85.352C318.575 84.9893 318.116 84.6907 317.562 84.456C317.028 84.2213 316.26 83.9547 315.258 83.656C313.807 83.208 312.623 82.76 311.706 82.312C310.788 81.864 309.999 81.2027 309.338 80.328C308.676 79.4533 308.346 78.312 308.346 76.904C308.346 74.8133 309.103 73.1813 310.618 72.008C312.132 70.8133 314.106 70.216 316.538 70.216C319.012 70.216 321.007 70.8133 322.522 72.008C324.036 73.1813 324.847 74.824 324.954 76.936H319.034C318.991 76.2107 318.724 75.6453 318.234 75.24C317.743 74.8133 317.114 74.6 316.345 74.6C315.684 74.6 315.151 74.7813 314.746 75.144C314.34 75.4853 314.138 75.9867 314.138 76.648C314.138 77.3733 314.479 77.9387 315.161 78.344C315.844 78.7493 316.911 79.1867 318.362 79.656C319.812 80.1467 320.986 80.616 321.882 81.064C322.799 81.512 323.588 82.1627 324.25 83.016C324.911 83.8693 325.242 84.968 325.242 86.312C325.242 87.592 324.911 88.7547 324.25 89.8C323.61 90.8453 322.671 91.6773 321.434 92.296C320.196 92.9147 318.735 93.224 317.05 93.224ZM338.711 88.36V93H335.927C333.943 93 332.396 92.52 331.287 91.56C330.178 90.5787 329.623 88.9893 329.623 86.792V79.688H327.447V75.144H329.623V70.792H335.095V75.144H338.679V79.688H335.095V86.856C335.095 87.3893 335.223 87.7733 335.479 88.008C335.735 88.2427 336.162 88.36 336.759 88.36H338.711ZM358.741 83.784C358.741 84.296 358.709 84.8293 358.645 85.384H346.261C346.346 86.4933 346.698 87.3467 347.317 87.944C347.957 88.52 348.736 88.808 349.653 88.808C351.018 88.808 351.968 88.232 352.501 87.08H358.325C358.026 88.2533 357.482 89.3093 356.693 90.248C355.925 91.1867 354.954 91.9227 353.781 92.456C352.608 92.9893 351.296 93.256 349.845 93.256C348.096 93.256 346.538 92.8827 345.173 92.136C343.808 91.3893 342.741 90.3227 341.973 88.936C341.205 87.5493 340.821 85.928 340.821 84.072C340.821 82.216 341.194 80.5947 341.941 79.208C342.709 77.8213 343.776 76.7547 345.141 76.008C346.506 75.2613 348.074 74.888 349.845 74.888C351.573 74.888 353.109 75.2507 354.453 75.976C355.797 76.7013 356.842 77.736 357.589 79.08C358.357 80.424 358.741 81.992 358.741 83.784ZM353.141 82.344C353.141 81.4053 352.821 80.6587 352.181 80.104C351.541 79.5493 350.741 79.272 349.781 79.272C348.864 79.272 348.085 79.5387 347.445 80.072C346.826 80.6053 346.442 81.3627 346.293 82.344H353.141ZM367.25 77.672C367.783 76.84 368.519 76.168 369.458 75.656C370.396 75.144 371.495 74.888 372.754 74.888C374.226 74.888 375.559 75.2613 376.754 76.008C377.948 76.7547 378.887 77.8213 379.57 79.208C380.274 80.5947 380.626 82.2053 380.626 84.04C380.626 85.8747 380.274 87.496 379.57 88.904C378.887 90.2907 377.948 91.368 376.754 92.136C375.559 92.8827 374.226 93.256 372.754 93.256C371.516 93.256 370.418 93 369.458 92.488C368.519 91.976 367.783 91.3147 367.25 90.504V101.512H361.778V75.144H367.25V77.672ZM375.058 84.04C375.058 82.6747 374.674 81.608 373.906 80.84C373.159 80.0507 372.231 79.656 371.122 79.656C370.034 79.656 369.106 80.0507 368.338 80.84C367.591 81.6293 367.218 82.7067 367.218 84.072C367.218 85.4373 367.591 86.5147 368.338 87.304C369.106 88.0933 370.034 88.488 371.122 88.488C372.21 88.488 373.138 88.0933 373.906 87.304C374.674 86.4933 375.058 85.4053 375.058 84.04ZM390.911 93.256C389.353 93.256 387.967 92.9893 386.751 92.456C385.535 91.9227 384.575 91.1973 383.871 90.28C383.167 89.3413 382.772 88.296 382.687 87.144H388.095C388.159 87.7627 388.447 88.264 388.959 88.648C389.471 89.032 390.1 89.224 390.847 89.224C391.529 89.224 392.052 89.096 392.415 88.84C392.799 88.5627 392.991 88.2107 392.991 87.784C392.991 87.272 392.724 86.8987 392.191 86.664C391.657 86.408 390.793 86.1307 389.599 85.832C388.319 85.5333 387.252 85.224 386.399 84.904C385.545 84.5627 384.809 84.04 384.191 83.336C383.572 82.6107 383.263 81.64 383.263 80.424C383.263 79.4 383.54 78.472 384.095 77.64C384.671 76.7867 385.503 76.1147 386.591 75.624C387.7 75.1333 389.012 74.888 390.527 74.888C392.767 74.888 394.527 75.4427 395.807 76.552C397.108 77.6613 397.855 79.1333 398.047 80.968H392.991C392.905 80.3493 392.628 79.8587 392.159 79.496C391.711 79.1333 391.113 78.952 390.367 78.952C389.727 78.952 389.236 79.08 388.895 79.336C388.553 79.5707 388.383 79.9013 388.383 80.328C388.383 80.84 388.649 81.224 389.183 81.48C389.737 81.736 390.591 81.992 391.743 82.248C393.065 82.5893 394.143 82.9307 394.975 83.272C395.807 83.592 396.532 84.1253 397.151 84.872C397.791 85.5973 398.121 86.5787 398.143 87.816C398.143 88.8613 397.844 89.8 397.247 90.632C396.671 91.4427 395.828 92.0827 394.719 92.552C393.631 93.0213 392.361 93.256 390.911 93.256Z" fill="#151E2B"/>
<path d="M154.296 127.168C153.176 127.168 152.168 126.976 151.272 126.592C150.376 126.192 149.672 125.632 149.16 124.912C148.648 124.192 148.392 123.352 148.392 122.392H151.32C151.384 123.112 151.664 123.704 152.16 124.168C152.672 124.632 153.384 124.864 154.296 124.864C155.24 124.864 155.976 124.64 156.504 124.192C157.032 123.728 157.296 123.136 157.296 122.416C157.296 121.856 157.128 121.4 156.792 121.048C156.472 120.696 156.064 120.424 155.568 120.232C155.088 120.04 154.416 119.832 153.552 119.608C152.464 119.32 151.576 119.032 150.888 118.744C150.216 118.44 149.64 117.976 149.16 117.352C148.68 116.728 148.44 115.896 148.44 114.856C148.44 113.896 148.68 113.056 149.16 112.336C149.64 111.616 150.312 111.064 151.176 110.68C152.04 110.296 153.04 110.104 154.176 110.104C155.792 110.104 157.112 110.512 158.136 111.328C159.176 112.128 159.752 113.232 159.864 114.64H156.84C156.792 114.032 156.504 113.512 155.976 113.08C155.448 112.648 154.752 112.432 153.888 112.432C153.104 112.432 152.464 112.632 151.968 113.032C151.472 113.432 151.224 114.008 151.224 114.76C151.224 115.272 151.376 115.696 151.68 116.032C152 116.352 152.4 116.608 152.88 116.8C153.36 116.992 154.016 117.2 154.848 117.424C155.952 117.728 156.848 118.032 157.536 118.336C158.24 118.64 158.832 119.112 159.312 119.752C159.808 120.376 160.056 121.216 160.056 122.272C160.056 123.12 159.824 123.92 159.36 124.672C158.912 125.424 158.248 126.032 157.368 126.496C156.504 126.944 155.48 127.168 154.296 127.168ZM175.554 120.064C175.554 120.56 175.522 121.008 175.458 121.408H165.354C165.434 122.464 165.826 123.312 166.53 123.952C167.234 124.592 168.098 124.912 169.122 124.912C170.594 124.912 171.634 124.296 172.242 123.064H175.194C174.794 124.28 174.066 125.28 173.01 126.064C171.97 126.832 170.674 127.216 169.122 127.216C167.858 127.216 166.722 126.936 165.714 126.376C164.722 125.8 163.938 125 163.362 123.976C162.802 122.936 162.522 121.736 162.522 120.376C162.522 119.016 162.794 117.824 163.338 116.8C163.898 115.76 164.674 114.96 165.666 114.4C166.674 113.84 167.826 113.56 169.122 113.56C170.37 113.56 171.482 113.832 172.458 114.376C173.434 114.92 174.194 115.688 174.738 116.68C175.282 117.656 175.554 118.784 175.554 120.064ZM172.698 119.2C172.682 118.192 172.322 117.384 171.618 116.776C170.914 116.168 170.042 115.864 169.002 115.864C168.058 115.864 167.25 116.168 166.578 116.776C165.906 117.368 165.506 118.176 165.378 119.2H172.698ZM181.589 116.008V123.328C181.589 123.824 181.701 124.184 181.925 124.408C182.165 124.616 182.565 124.72 183.125 124.72H184.805V127H182.645C181.413 127 180.469 126.712 179.813 126.136C179.157 125.56 178.829 124.624 178.829 123.328V116.008H177.269V113.776H178.829V110.488H181.589V113.776H184.805V116.008H181.589ZM205.837 113.776V127H203.101V125.44C202.669 125.984 202.101 126.416 201.397 126.736C200.709 127.04 199.973 127.192 199.189 127.192C198.149 127.192 197.213 126.976 196.381 126.544C195.565 126.112 194.917 125.472 194.437 124.624C193.973 123.776 193.741 122.752 193.741 121.552V113.776H196.453V121.144C196.453 122.328 196.749 123.24 197.341 123.88C197.933 124.504 198.741 124.816 199.765 124.816C200.789 124.816 201.597 124.504 202.189 123.88C202.797 123.24 203.101 122.328 203.101 121.144V113.776H205.837ZM212.333 115.72C212.797 115.112 213.429 114.6 214.229 114.184C215.029 113.768 215.933 113.56 216.941 113.56C218.093 113.56 219.141 113.848 220.085 114.424C221.045 114.984 221.797 115.776 222.341 116.8C222.885 117.824 223.157 119 223.157 120.328C223.157 121.656 222.885 122.848 222.341 123.904C221.797 124.944 221.045 125.76 220.085 126.352C219.141 126.928 218.093 127.216 216.941 127.216C215.933 127.216 215.037 127.016 214.253 126.616C213.469 126.2 212.829 125.688 212.333 125.08V133.288H209.597V113.776H212.333V115.72ZM220.373 120.328C220.373 119.416 220.181 118.632 219.797 117.976C219.429 117.304 218.933 116.8 218.309 116.464C217.701 116.112 217.045 115.936 216.341 115.936C215.653 115.936 214.997 116.112 214.373 116.464C213.765 116.816 213.269 117.328 212.885 118C212.517 118.672 212.333 119.464 212.333 120.376C212.333 121.288 212.517 122.088 212.885 122.776C213.269 123.448 213.765 123.96 214.373 124.312C214.997 124.664 215.653 124.84 216.341 124.84C217.045 124.84 217.701 124.664 218.309 124.312C218.933 123.944 219.429 123.416 219.797 122.728C220.181 122.04 220.373 121.24 220.373 120.328ZM244.301 113.776L236.189 133.216H233.357L236.045 126.784L230.837 113.776H233.885L237.605 123.856L241.469 113.776H244.301ZM252.252 127.216C251.004 127.216 249.876 126.936 248.868 126.376C247.86 125.8 247.068 125 246.492 123.976C245.916 122.936 245.628 121.736 245.628 120.376C245.628 119.032 245.924 117.84 246.516 116.8C247.108 115.76 247.916 114.96 248.94 114.4C249.964 113.84 251.108 113.56 252.372 113.56C253.636 113.56 254.78 113.84 255.804 114.4C256.828 114.96 257.636 115.76 258.228 116.8C258.82 117.84 259.116 119.032 259.116 120.376C259.116 121.72 258.812 122.912 258.204 123.952C257.596 124.992 256.764 125.8 255.708 126.376C254.668 126.936 253.516 127.216 252.252 127.216ZM252.252 124.84C252.956 124.84 253.612 124.672 254.22 124.336C254.844 124 255.348 123.496 255.732 122.824C256.116 122.152 256.308 121.336 256.308 120.376C256.308 119.416 256.124 118.608 255.756 117.952C255.388 117.28 254.9 116.776 254.292 116.44C253.684 116.104 253.028 115.936 252.324 115.936C251.62 115.936 250.964 116.104 250.356 116.44C249.764 116.776 249.292 117.28 248.94 117.952C248.588 118.608 248.412 119.416 248.412 120.376C248.412 121.8 248.772 122.904 249.492 123.688C250.228 124.456 251.148 124.84 252.252 124.84ZM273.946 113.776V127H271.21V125.44C270.778 125.984 270.21 126.416 269.506 126.736C268.818 127.04 268.082 127.192 267.298 127.192C266.258 127.192 265.322 126.976 264.49 126.544C263.674 126.112 263.026 125.472 262.546 124.624C262.082 123.776 261.85 122.752 261.85 121.552V113.776H264.562V121.144C264.562 122.328 264.858 123.24 265.45 123.88C266.042 124.504 266.85 124.816 267.874 124.816C268.898 124.816 269.706 124.504 270.298 123.88C270.906 123.24 271.21 122.328 271.21 121.144V113.776H273.946ZM280.442 115.696C280.842 115.024 281.37 114.504 282.026 114.136C282.698 113.752 283.49 113.56 284.402 113.56V116.392H283.706C282.634 116.392 281.818 116.664 281.258 117.208C280.714 117.752 280.442 118.696 280.442 120.04V127H277.706V113.776H280.442V115.696ZM292.54 120.328C292.54 119 292.812 117.824 293.356 116.8C293.916 115.776 294.668 114.984 295.612 114.424C296.572 113.848 297.628 113.56 298.78 113.56C299.82 113.56 300.724 113.768 301.492 114.184C302.276 114.584 302.9 115.088 303.364 115.696V113.776H306.124V127H303.364V125.032C302.9 125.656 302.268 126.176 301.468 126.592C300.668 127.008 299.756 127.216 298.732 127.216C297.596 127.216 296.556 126.928 295.612 126.352C294.668 125.76 293.916 124.944 293.356 123.904C292.812 122.848 292.54 121.656 292.54 120.328ZM303.364 120.376C303.364 119.464 303.172 118.672 302.788 118C302.42 117.328 301.932 116.816 301.324 116.464C300.716 116.112 300.06 115.936 299.356 115.936C298.652 115.936 297.996 116.112 297.388 116.464C296.78 116.8 296.284 117.304 295.9 117.976C295.532 118.632 295.348 119.416 295.348 120.328C295.348 121.24 295.532 122.04 295.9 122.728C296.284 123.416 296.78 123.944 297.388 124.312C298.012 124.664 298.668 124.84 299.356 124.84C300.06 124.84 300.716 124.664 301.324 124.312C301.932 123.96 302.42 123.448 302.788 122.776C303.172 122.088 303.364 121.288 303.364 120.376ZM308.955 120.376C308.955 119.016 309.227 117.824 309.771 116.8C310.331 115.76 311.099 114.96 312.075 114.4C313.051 113.84 314.171 113.56 315.435 113.56C317.035 113.56 318.355 113.944 319.395 114.712C320.451 115.464 321.163 116.544 321.531 117.952H318.579C318.339 117.296 317.955 116.784 317.427 116.416C316.899 116.048 316.235 115.864 315.435 115.864C314.315 115.864 313.419 116.264 312.747 117.064C312.091 117.848 311.763 118.952 311.763 120.376C311.763 121.8 312.091 122.912 312.747 123.712C313.419 124.512 314.315 124.912 315.435 124.912C317.019 124.912 318.067 124.216 318.579 122.824H321.531C321.147 124.168 320.427 125.24 319.371 126.04C318.315 126.824 317.003 127.216 315.435 127.216C314.171 127.216 313.051 126.936 312.075 126.376C311.099 125.8 310.331 125 309.771 123.976C309.227 122.936 308.955 121.736 308.955 120.376ZM323.496 120.376C323.496 119.016 323.768 117.824 324.312 116.8C324.872 115.76 325.64 114.96 326.616 114.4C327.592 113.84 328.712 113.56 329.976 113.56C331.576 113.56 332.896 113.944 333.936 114.712C334.992 115.464 335.704 116.544 336.072 117.952H333.12C332.88 117.296 332.496 116.784 331.968 116.416C331.44 116.048 330.776 115.864 329.976 115.864C328.856 115.864 327.96 116.264 327.288 117.064C326.632 117.848 326.304 118.952 326.304 120.376C326.304 121.8 326.632 122.912 327.288 123.712C327.96 124.512 328.856 124.912 329.976 124.912C331.56 124.912 332.608 124.216 333.12 122.824H336.072C335.688 124.168 334.968 125.24 333.912 126.04C332.856 126.824 331.544 127.216 329.976 127.216C328.712 127.216 327.592 126.936 326.616 126.376C325.64 125.8 324.872 125 324.312 123.976C323.768 122.936 323.496 121.736 323.496 120.376ZM344.684 127.216C343.436 127.216 342.308 126.936 341.3 126.376C340.292 125.8 339.5 125 338.924 123.976C338.348 122.936 338.06 121.736 338.06 120.376C338.06 119.032 338.356 117.84 338.948 116.8C339.54 115.76 340.348 114.96 341.372 114.4C342.396 113.84 343.54 113.56 344.804 113.56C346.068 113.56 347.212 113.84 348.236 114.4C349.26 114.96 350.068 115.76 350.66 116.8C351.252 117.84 351.548 119.032 351.548 120.376C351.548 121.72 351.244 122.912 350.636 123.952C350.028 124.992 349.196 125.8 348.14 126.376C347.1 126.936 345.948 127.216 344.684 127.216ZM344.684 124.84C345.388 124.84 346.044 124.672 346.652 124.336C347.276 124 347.78 123.496 348.164 122.824C348.548 122.152 348.74 121.336 348.74 120.376C348.74 119.416 348.556 118.608 348.188 117.952C347.82 117.28 347.332 116.776 346.724 116.44C346.116 116.104 345.46 115.936 344.756 115.936C344.052 115.936 343.396 116.104 342.788 116.44C342.196 116.776 341.724 117.28 341.372 117.952C341.02 118.608 340.844 119.416 340.844 120.376C340.844 121.8 341.204 122.904 341.924 123.688C342.66 124.456 343.58 124.84 344.684 124.84ZM366.379 113.776V127H363.643V125.44C363.211 125.984 362.643 126.416 361.939 126.736C361.251 127.04 360.515 127.192 359.731 127.192C358.691 127.192 357.755 126.976 356.923 126.544C356.107 126.112 355.459 125.472 354.979 124.624C354.515 123.776 354.283 122.752 354.283 121.552V113.776H356.995V121.144C356.995 122.328 357.291 123.24 357.883 123.88C358.475 124.504 359.283 124.816 360.307 124.816C361.331 124.816 362.139 124.504 362.731 123.88C363.339 123.24 363.643 122.328 363.643 121.144V113.776H366.379ZM376.811 113.56C377.851 113.56 378.779 113.776 379.595 114.208C380.427 114.64 381.075 115.28 381.539 116.128C382.003 116.976 382.235 118 382.235 119.2V127H379.523V119.608C379.523 118.424 379.227 117.52 378.635 116.896C378.043 116.256 377.235 115.936 376.211 115.936C375.187 115.936 374.371 116.256 373.763 116.896C373.171 117.52 372.875 118.424 372.875 119.608V127H370.139V113.776H372.875V115.288C373.323 114.744 373.891 114.32 374.579 114.016C375.283 113.712 376.027 113.56 376.811 113.56ZM389.067 116.008V123.328C389.067 123.824 389.179 124.184 389.403 124.408C389.643 124.616 390.043 124.72 390.603 124.72H392.283V127H390.123C388.891 127 387.947 126.712 387.291 126.136C386.635 125.56 386.307 124.624 386.307 123.328V116.008H384.747V113.776H386.307V110.488H389.067V113.776H392.283V116.008H389.067ZM404.075 109.24V127H401.339V109.24H404.075ZM409.209 112.024C408.713 112.024 408.297 111.856 407.961 111.52C407.625 111.184 407.457 110.768 407.457 110.272C407.457 109.776 407.625 109.36 407.961 109.024C408.297 108.688 408.713 108.52 409.209 108.52C409.689 108.52 410.097 108.688 410.433 109.024C410.769 109.36 410.937 109.776 410.937 110.272C410.937 110.768 410.769 111.184 410.433 111.52C410.097 111.856 409.689 112.024 409.209 112.024ZM410.553 113.776V127H407.817V113.776H410.553ZM419.527 120.4L425.623 127H421.927L417.031 121.312V127H414.295V109.24H417.031V119.56L421.831 113.776H425.623L419.527 120.4ZM439.854 120.064C439.854 120.56 439.822 121.008 439.758 121.408H429.654C429.734 122.464 430.126 123.312 430.83 123.952C431.534 124.592 432.398 124.912 433.422 124.912C434.894 124.912 435.934 124.296 436.542 123.064H439.494C439.094 124.28 438.366 125.28 437.31 126.064C436.27 126.832 434.974 127.216 433.422 127.216C432.158 127.216 431.022 126.936 430.014 126.376C429.022 125.8 428.238 125 427.662 123.976C427.102 122.936 426.822 121.736 426.822 120.376C426.822 119.016 427.094 117.824 427.638 116.8C428.198 115.76 428.974 114.96 429.966 114.4C430.974 113.84 432.126 113.56 433.422 113.56C434.67 113.56 435.782 113.832 436.758 114.376C437.734 114.92 438.494 115.688 439.038 116.68C439.582 117.656 439.854 118.784 439.854 120.064ZM436.998 119.2C436.982 118.192 436.622 117.384 435.918 116.776C435.214 116.168 434.342 115.864 433.302 115.864C432.358 115.864 431.55 116.168 430.878 116.776C430.206 117.368 429.806 118.176 429.678 119.2H436.998ZM448.169 120.328C448.169 119 448.441 117.824 448.985 116.8C449.545 115.776 450.297 114.984 451.241 114.424C452.201 113.848 453.257 113.56 454.409 113.56C455.449 113.56 456.353 113.768 457.121 114.184C457.905 114.584 458.529 115.088 458.993 115.696V113.776H461.753V127H458.993V125.032C458.529 125.656 457.897 126.176 457.097 126.592C456.297 127.008 455.385 127.216 454.361 127.216C453.225 127.216 452.185 126.928 451.241 126.352C450.297 125.76 449.545 124.944 448.985 123.904C448.441 122.848 448.169 121.656 448.169 120.328ZM458.993 120.376C458.993 119.464 458.801 118.672 458.417 118C458.049 117.328 457.561 116.816 456.953 116.464C456.345 116.112 455.689 115.936 454.985 115.936C454.281 115.936 453.625 116.112 453.017 116.464C452.409 116.8 451.913 117.304 451.529 117.976C451.161 118.632 450.977 119.416 450.977 120.328C450.977 121.24 451.161 122.04 451.529 122.728C451.913 123.416 452.409 123.944 453.017 124.312C453.641 124.664 454.297 124.84 454.985 124.84C455.689 124.84 456.345 124.664 456.953 124.312C457.561 123.96 458.049 123.448 458.417 122.776C458.801 122.088 458.993 121.288 458.993 120.376ZM474.617 115.72C475.081 115.112 475.713 114.6 476.513 114.184C477.313 113.768 478.217 113.56 479.225 113.56C480.377 113.56 481.425 113.848 482.369 114.424C483.329 114.984 484.081 115.776 484.625 116.8C485.169 117.824 485.441 119 485.441 120.328C485.441 121.656 485.169 122.848 484.625 123.904C484.081 124.944 483.329 125.76 482.369 126.352C481.425 126.928 480.377 127.216 479.225 127.216C478.217 127.216 477.321 127.016 476.537 126.616C475.753 126.2 475.113 125.688 474.617 125.08V133.288H471.881V113.776H474.617V115.72ZM482.657 120.328C482.657 119.416 482.465 118.632 482.081 117.976C481.713 117.304 481.217 116.8 480.593 116.464C479.985 116.112 479.329 115.936 478.625 115.936C477.937 115.936 477.281 116.112 476.657 116.464C476.049 116.816 475.553 117.328 475.169 118C474.801 118.672 474.617 119.464 474.617 120.376C474.617 121.288 474.801 122.088 475.169 122.776C475.553 123.448 476.049 123.96 476.657 124.312C477.281 124.664 477.937 124.84 478.625 124.84C479.329 124.84 479.985 124.664 480.593 124.312C481.217 123.944 481.713 123.416 482.081 122.728C482.465 122.04 482.657 121.24 482.657 120.328ZM491.033 115.696C491.433 115.024 491.961 114.504 492.617 114.136C493.289 113.752 494.081 113.56 494.993 113.56V116.392H494.297C493.225 116.392 492.409 116.664 491.849 117.208C491.305 117.752 491.033 118.696 491.033 120.04V127H488.297V113.776H491.033V115.696ZM503.394 127.216C502.146 127.216 501.018 126.936 500.01 126.376C499.002 125.8 498.21 125 497.634 123.976C497.058 122.936 496.77 121.736 496.77 120.376C496.77 119.032 497.066 117.84 497.658 116.8C498.25 115.76 499.058 114.96 500.082 114.4C501.106 113.84 502.25 113.56 503.514 113.56C504.778 113.56 505.922 113.84 506.946 114.4C507.97 114.96 508.778 115.76 509.37 116.8C509.962 117.84 510.258 119.032 510.258 120.376C510.258 121.72 509.954 122.912 509.346 123.952C508.738 124.992 507.906 125.8 506.85 126.376C505.81 126.936 504.658 127.216 503.394 127.216ZM503.394 124.84C504.098 124.84 504.754 124.672 505.362 124.336C505.986 124 506.49 123.496 506.874 122.824C507.258 122.152 507.45 121.336 507.45 120.376C507.45 119.416 507.266 118.608 506.898 117.952C506.53 117.28 506.042 116.776 505.434 116.44C504.826 116.104 504.17 115.936 503.466 115.936C502.762 115.936 502.106 116.104 501.498 116.44C500.906 116.776 500.434 117.28 500.082 117.952C499.73 118.608 499.554 119.416 499.554 120.376C499.554 121.8 499.914 122.904 500.634 123.688C501.37 124.456 502.29 124.84 503.394 124.84Z" fill="#353E4A"/>
<path d="M110.245 92.1385C108.86 92.5167 107.292 92.3993 105.935 92.1385C105.417 92.0368 105.242 92.0342 104.856 92.1881C104.447 92.3693 104.023 92.5356 103.586 92.6862C102.886 92.8999 102.142 93.0466 101.377 93.1217C99.3872 93.3069 96.8081 92.9626 96.227 92.2115C95.407 93.3434 92.4935 93.2547 91.4069 93.1843C90.5121 93.1315 89.6614 92.9054 88.9631 92.5349C88.6316 92.3656 88.36 92.1511 88.1671 91.9064C86.5392 93.2104 82.7978 93.4712 80.1549 93.0278C78.7499 92.7931 76.7638 92.2063 76.2066 91.437C76.0235 91.716 75.5379 92.0368 74.3956 92.042C74.0622 92.0381 73.7324 91.9966 73.4204 91.9195C72.8028 92.0155 72.1747 92.08 71.5418 92.1124C70.8691 92.1307 69.074 92.1829 68.8711 91.6691C68.6919 91.2127 70.2641 90.8632 70.9248 90.8867C70.8094 90.5399 71.291 90.1043 72.1189 89.9478C72.9128 89.8183 73.7447 89.8282 74.5309 89.9765C74.5946 89.3115 74.6981 88.6726 76.0195 88.3231C77.2494 88.0127 79.0882 88.1562 79.9997 88.6856C79.9658 88.1263 80.1421 87.5702 80.5131 87.0661C81.0743 86.2524 82.2246 85.8064 83.5819 85.3735C85.9421 84.6224 90.3044 85.024 91.4149 86.4454C92.4537 85.663 94.0418 85.5534 95.8608 85.809C97.7593 86.0698 99.8728 87.2382 99.8171 88.3231C101.513 88.0805 103.053 88.803 103.367 89.6271C104.199 89.4041 105.122 89.3749 105.983 89.5443C106.844 89.7138 107.59 90.0716 108.096 90.5581C108.199 90.6337 108.367 90.7015 108.892 90.7302C109.452 90.7345 110.006 90.8016 110.532 90.9284C111.575 91.231 111.344 91.836 110.245 92.1385Z" fill="#353E4A"/>
<path d="M69.7066 85.3578C69.0694 85.203 68.3961 85.1218 67.7165 85.1178C67.0757 85.0839 66.8727 85.0005 66.7533 84.9118C66.1401 84.3344 65.2451 83.911 64.2155 83.7114C63.186 83.5118 62.0835 83.548 61.0895 83.8139C60.7154 82.8124 58.8606 81.9413 56.8227 82.2334C56.8904 80.9295 54.351 79.529 52.0704 79.2108C49.8813 78.9057 47.9708 79.0335 46.721 79.9776C45.3996 78.2667 40.1696 77.779 37.3237 78.6892C35.6919 79.2108 34.3107 79.7324 33.6341 80.7234C33.1808 81.3285 32.9647 81.998 33.0052 82.6716C31.9027 82.0326 29.6857 81.8605 28.229 82.2334C26.6369 82.6377 26.5135 83.4227 26.4379 84.2233C25.4923 84.0443 24.4911 84.0326 23.5363 84.1894C22.5373 84.3824 21.9443 84.8988 22.0955 85.316C21.2995 85.2873 19.4128 85.7072 19.6278 86.2575C19.8746 86.873 22.0159 86.8104 22.8358 86.7791C23.5961 86.7398 24.3505 86.6622 25.0926 86.547C25.4678 86.6406 25.8653 86.6901 26.2668 86.693C27.6439 86.693 28.225 86.3018 28.4439 85.9654C29.1166 86.8912 31.5047 87.598 33.1923 87.8797C36.3765 88.4012 40.8661 88.0883 42.8244 86.5313C43.0451 86.8279 43.3615 87.0896 43.7518 87.2981C44.5915 87.7432 45.6136 88.0155 46.6891 88.0805C47.9947 88.1613 51.4972 88.2708 52.4843 86.9121C53.1848 87.8145 56.3013 88.2161 58.6735 88.0074C59.592 87.9178 60.4861 87.7421 61.3283 87.4859C61.854 87.3057 62.363 87.1054 62.8527 86.886C63.3224 86.7035 63.5333 86.7061 64.1543 86.8286C65.7822 87.1494 67.6728 87.2798 69.3285 86.8286C70.6738 86.4531 70.9524 85.7255 69.7066 85.3578Z" fill="#E0E0E0"/>
<path d="M677.734 133.774C678.316 133.633 678.932 133.559 679.553 133.555C680.138 133.524 680.325 133.448 680.44 133.365C681.003 132.833 681.826 132.444 682.772 132.26C683.719 132.076 684.733 132.11 685.646 132.356C685.993 131.432 687.696 130.632 689.575 130.9C689.511 129.701 691.848 128.412 693.953 128.12C695.971 127.839 697.726 127.956 698.873 128.824C700.102 127.26 704.926 126.806 707.537 127.64C709.038 128.118 710.324 128.611 710.933 129.51C711.343 130.068 711.537 130.683 711.498 131.302C712.513 130.715 714.551 130.556 715.908 130.9C717.373 131.271 717.5 131.996 717.556 132.726C718.425 132.561 719.345 132.55 720.222 132.695C721.146 132.872 721.675 133.347 721.552 133.738C722.28 133.709 724.019 134.098 723.82 134.601C723.594 135.17 721.607 135.123 720.867 135.094C720.167 135.057 719.473 134.985 718.789 134.88C718.444 134.965 718.079 135.01 717.711 135.013C716.445 135.013 715.912 134.653 715.721 134.345C715.104 135.196 712.907 135.845 711.343 136.106C708.417 136.596 704.282 136.296 702.479 134.864C702.267 135.135 701.97 135.372 701.607 135.561C700.834 135.97 699.894 136.219 698.904 136.278C697.71 136.351 694.478 136.453 693.571 135.201C692.93 136.033 690.06 136.414 687.879 136.21C687.034 136.126 686.211 135.962 685.435 135.725C684.952 135.559 684.482 135.376 684.03 135.175C683.601 135.005 683.41 135.008 682.836 135.12C681.336 135.417 679.6 135.537 678.06 135.12C676.846 134.784 676.591 134.111 677.734 133.774Z" fill="#E0E0E0"/>
<path d="M831.634 92.1385C830.249 92.5167 828.681 92.3993 827.324 92.1385C826.806 92.0368 826.631 92.0342 826.245 92.1881C825.836 92.3693 825.412 92.5356 824.975 92.6862C824.275 92.8999 823.531 93.0466 822.766 93.1217C820.776 93.3069 818.197 92.9626 817.616 92.2115C816.796 93.3434 813.882 93.2547 812.796 93.1843C811.901 93.1315 811.05 92.9054 810.352 92.5349C810.02 92.3656 809.749 92.1511 809.556 91.9064C807.928 93.2104 804.187 93.4712 801.544 93.0278C800.139 92.7931 798.153 92.2063 797.595 91.437C797.412 91.716 796.927 92.0368 795.784 92.042C795.451 92.0381 795.121 91.9966 794.809 91.9195C794.192 92.0155 793.564 92.08 792.931 92.1124C792.258 92.1307 790.463 92.1829 790.26 91.6691C790.081 91.2127 791.653 90.8632 792.314 90.8867C792.198 90.5399 792.68 90.1043 793.508 89.9478C794.302 89.8183 795.134 89.8282 795.92 89.9765C795.983 89.3115 796.087 88.6726 797.408 88.3231C798.638 88.0127 800.477 88.1562 801.389 88.6856C801.355 88.1263 801.531 87.5702 801.902 87.0661C802.463 86.2524 803.614 85.8064 804.971 85.3735C807.331 84.6224 811.693 85.024 812.804 86.4454C813.843 85.663 815.431 85.5534 817.25 85.809C819.148 86.0698 821.262 87.2382 821.206 88.3231C822.902 88.0805 824.442 88.803 824.756 89.6271C825.588 89.4041 826.511 89.3749 827.372 89.5443C828.233 89.7138 828.978 90.0716 829.485 90.5581C829.588 90.6337 829.755 90.7015 830.281 90.7302C830.841 90.7345 831.395 90.8016 831.921 90.9284C832.964 91.231 832.733 91.836 831.634 92.1385Z" fill="#353E4A"/>
<path d="M791.096 85.3578C790.459 85.203 789.785 85.1218 789.106 85.1178C788.465 85.0839 788.262 85.0005 788.142 84.9118C787.529 84.3344 786.634 83.911 785.605 83.7114C784.575 83.5118 783.473 83.548 782.479 83.8139C782.105 82.8124 780.25 81.9413 778.212 82.2334C778.28 80.9295 775.74 79.529 773.46 79.2108C771.27 78.9057 769.36 79.0335 768.11 79.9776C766.789 78.2667 761.559 77.779 758.713 78.6892C757.081 79.2108 755.7 79.7324 755.023 80.7234C754.57 81.3285 754.354 81.998 754.394 82.6716C753.292 82.0326 751.075 81.8605 749.618 82.2334C748.026 82.6377 747.903 83.4227 747.827 84.2233C746.881 84.0443 745.88 84.0326 744.925 84.1894C743.926 84.3824 743.333 84.8988 743.485 85.316C742.689 85.2873 740.802 85.7072 741.017 86.2575C741.264 86.873 743.405 86.8104 744.225 86.7791C744.985 86.7398 745.74 86.6622 746.482 86.547C746.857 86.6406 747.254 86.6901 747.656 86.693C749.033 86.693 749.614 86.3018 749.833 85.9654C750.506 86.8912 752.894 87.598 754.581 87.8797C757.766 88.4012 762.255 88.0883 764.214 86.5313C764.434 86.8279 764.751 87.0896 765.141 87.2981C765.981 87.7432 767.003 88.0155 768.078 88.0805C769.384 88.1613 772.886 88.2708 773.873 86.9121C774.574 87.8145 777.69 88.2161 780.063 88.0074C780.981 87.9178 781.875 87.7421 782.717 87.4859C783.243 87.3057 783.752 87.1054 784.242 86.886C784.712 86.7035 784.923 86.7061 785.543 86.8286C787.171 87.1494 789.062 87.2798 790.718 86.8286C792.063 86.4531 792.342 85.7255 791.096 85.3578Z" fill="#E0E0E0"/>
<rect x="915" y="55" width="117" height="44" rx="22" fill="#0E141C"/>
<path d="M934.024 81.028H937.784V82.5H932.2V71.38H934.024V81.028ZM947.539 77.876C947.539 78.2067 947.518 78.5053 947.475 78.772H940.739C940.793 79.476 941.054 80.0413 941.523 80.468C941.993 80.8947 942.569 81.108 943.251 81.108C944.233 81.108 944.926 80.6973 945.331 79.876H947.299C947.033 80.6867 946.547 81.3533 945.843 81.876C945.15 82.388 944.286 82.644 943.251 82.644C942.409 82.644 941.651 82.4573 940.979 82.084C940.318 81.7 939.795 81.1667 939.411 80.484C939.038 79.7907 938.851 78.9907 938.851 78.084C938.851 77.1773 939.033 76.3827 939.395 75.7C939.769 75.0067 940.286 74.4733 940.947 74.1C941.619 73.7267 942.387 73.54 943.251 73.54C944.083 73.54 944.825 73.7213 945.475 74.084C946.126 74.4467 946.633 74.9587 946.995 75.62C947.358 76.2707 947.539 77.0227 947.539 77.876ZM945.635 77.3C945.625 76.628 945.385 76.0893 944.915 75.684C944.446 75.2787 943.865 75.076 943.171 75.076C942.542 75.076 942.003 75.2787 941.555 75.684C941.107 76.0787 940.841 76.6173 940.755 77.3H945.635ZM948.876 78.052C948.876 77.1667 949.058 76.3827 949.42 75.7C949.794 75.0173 950.295 74.4893 950.924 74.116C951.564 73.732 952.268 73.54 953.036 73.54C953.73 73.54 954.332 73.6787 954.844 73.956C955.367 74.2227 955.783 74.5587 956.092 74.964V73.684H957.932V82.5H956.092V81.188C955.783 81.604 955.362 81.9507 954.828 82.228C954.295 82.5053 953.687 82.644 953.004 82.644C952.247 82.644 951.554 82.452 950.924 82.068C950.295 81.6733 949.794 81.1293 949.42 80.436C949.058 79.732 948.876 78.9373 948.876 78.052ZM956.092 78.084C956.092 77.476 955.964 76.948 955.708 76.5C955.463 76.052 955.138 75.7107 954.732 75.476C954.327 75.2413 953.89 75.124 953.42 75.124C952.951 75.124 952.514 75.2413 952.108 75.476C951.703 75.7 951.372 76.036 951.116 76.484C950.871 76.9213 950.748 77.444 950.748 78.052C950.748 78.66 950.871 79.1933 951.116 79.652C951.372 80.1107 951.703 80.4627 952.108 80.708C952.524 80.9427 952.962 81.06 953.42 81.06C953.89 81.06 954.327 80.9427 954.732 80.708C955.138 80.4733 955.463 80.132 955.708 79.684C955.964 79.2253 956.092 78.692 956.092 78.084ZM962.302 74.964C962.569 74.516 962.921 74.1693 963.358 73.924C963.806 73.668 964.334 73.54 964.942 73.54V75.428H964.478C963.763 75.428 963.219 75.6093 962.846 75.972C962.483 76.3347 962.302 76.964 962.302 77.86V82.5H960.478V73.684H962.302V74.964ZM971.217 73.54C971.91 73.54 972.529 73.684 973.073 73.972C973.627 74.26 974.059 74.6867 974.369 75.252C974.678 75.8173 974.833 76.5 974.833 77.3V82.5H973.025V77.572C973.025 76.7827 972.827 76.18 972.433 75.764C972.038 75.3373 971.499 75.124 970.817 75.124C970.134 75.124 969.59 75.3373 969.185 75.764C968.79 76.18 968.593 76.7827 968.593 77.572V82.5H966.769V73.684H968.593V74.692C968.891 74.3293 969.27 74.0467 969.729 73.844C970.198 73.6413 970.694 73.54 971.217 73.54ZM990.496 71.38V82.5H988.672V77.636H983.44V82.5H981.616V71.38H983.44V76.148H988.672V71.38H990.496ZM996.871 82.644C996.039 82.644 995.287 82.4573 994.615 82.084C993.943 81.7 993.415 81.1667 993.031 80.484C992.647 79.7907 992.455 78.9907 992.455 78.084C992.455 77.188 992.652 76.3933 993.047 75.7C993.442 75.0067 993.98 74.4733 994.663 74.1C995.346 73.7267 996.108 73.54 996.951 73.54C997.794 73.54 998.556 73.7267 999.239 74.1C999.922 74.4733 1000.46 75.0067 1000.85 75.7C1001.25 76.3933 1001.45 77.188 1001.45 78.084C1001.45 78.98 1001.24 79.7747 1000.84 80.468C1000.43 81.1613 999.879 81.7 999.175 82.084C998.482 82.4573 997.714 82.644 996.871 82.644ZM996.871 81.06C997.34 81.06 997.778 80.948 998.183 80.724C998.599 80.5 998.935 80.164 999.191 79.716C999.447 79.268 999.575 78.724 999.575 78.084C999.575 77.444 999.452 76.9053 999.207 76.468C998.962 76.02 998.636 75.684 998.231 75.46C997.826 75.236 997.388 75.124 996.919 75.124C996.45 75.124 996.012 75.236 995.607 75.46C995.212 75.684 994.898 76.02 994.663 76.468C994.428 76.9053 994.311 77.444 994.311 78.084C994.311 79.0333 994.551 79.7693 995.031 80.292C995.522 80.804 996.135 81.06 996.871 81.06ZM1015.24 73.684L1012.5 82.5H1010.58L1008.81 75.988L1007.03 82.5H1005.11L1002.36 73.684H1004.22L1006.06 80.772L1007.93 73.684H1009.83L1011.62 80.74L1013.45 73.684H1015.24Z" fill="white"/>
</g>
<defs>
<clipPath id="clip0_11171_48144">
<rect width="1072" height="153" rx="8" fill="white"/>
</clipPath>
</defs>
</svg>
